<svg xmlns="http://www.w3.org/2000/svg" viewBox="0 0 1600 687"><defs><style>.cls-1{fill:#c1aea7;}.cls-2{fill:#e4dbcc;}.cls-3{fill:#bba247;}.cls-4{stroke:#3f3f3f;stroke-miterlimit:10;}.cls-5{fill:#2f2e41;}.cls-6{fill:#ffb8b8;}.cls-7{fill:#3f3f3f;}</style></defs><g id="Layer_2" data-name="Layer 2"><g id="Layer_1-2" data-name="Layer 1"><rect class="cls-1" x="7" y="34" width="540" height="225"/><rect class="cls-1" x="272" y="249" width="10" height="55"/><rect class="cls-2" x="15" y="43" width="524" height="206"/><rect class="cls-1" x="7914.68" y="1151.51" width="540" height="336" transform="translate(9288.68 1838.51) rotate(180)"/><rect class="cls-1" x="8179.68" y="1106.51" width="10" height="55" transform="translate(9288.68 1467.51) rotate(180)"/><rect class="cls-2" x="7922.68" y="1161.51" width="524" height="318" transform="translate(9288.68 1840.51) rotate(180)"/><rect class="cls-2" x="1021.6" y="300.58" width="451.66" height="1.14"/><rect class="cls-2" y="300" width="1600" height="10"/><circle class="cls-1" cx="1104" cy="305" r="16"/><circle class="cls-2" cx="1104" cy="305" r="5"/><circle class="cls-1" cx="277" cy="305" r="16"/><circle class="cls-2" cx="277" cy="305" r="5"/><path class="cls-3" d="M8640.64,887.15h-59.23c-8-21.7-11.5-41.88,0-57A29.62,29.62,0,0,1,8611,800.51h0A29.59,29.59,0,0,1,8635.17,813a24.79,24.79,0,0,1,2.93,22.65C8633.32,849.18,8636.24,867.69,8640.64,887.15Z" transform="translate(-7080.68 -800.51)"/><path class="cls-4" d="M8671.92,1100.91h0a8,8,0,0,1-7.66-5.66l-2.44-7.93a12,12,0,0,1-.32-5.67l1.67-8.78h11.65l4.84,17.94a8,8,0,0,1-5.65,9.82A7.74,7.74,0,0,1,8671.92,1100.91Z" transform="translate(-7080.68 -800.51)"/><path class="cls-4" d="M8587,1100.91h0a8,8,0,0,0,7.66-5.66l2.44-7.93a11.84,11.84,0,0,0,.32-5.67l-1.66-8.78h-11.66l-4.84,17.94a8,8,0,0,0,5.65,9.82A7.8,7.8,0,0,0,8587,1100.91Z" transform="translate(-7080.68 -800.51)"/><path class="cls-5" d="M8675.77,1073.81h-12.92l-56.08-106.48-10.34,106.48H8585c-5.84-67-20.06-130.93,0-155l46.95,4.41Z" transform="translate(-7080.68 -800.51)"/><circle class="cls-6" cx="1528.77" cy="30.56" r="15.75"/><path class="cls-6" d="M8631.66,891.72h-35l-6-27.73c11.62-3.43,14.39-11.41,12-22l18.9-1.26c1.07,8.57,3,16.57,15.12,18Z" transform="translate(-7080.68 -800.51)"/><path class="cls-1" d="M8631.66,926.37c-19.84,7.53-36,7.3-47.26-3.15,5.09-16.78,5.4-37.44,3.15-60.17l6.31-2.84,2.2,20.16,31.19-1.57,6.93-22,6.93,1.57C8641.64,885.66,8640,910.26,8631.66,926.37Z" transform="translate(-7080.68 -800.51)"/><path class="cls-6" d="M8649.93,960.4l3.71,12a6.5,6.5,0,0,1-6.23,8.43h0a6.52,6.52,0,0,1-6.53-6.52c0-.22,0-.45,0-.67l1.45-13.91-6-47.26,4.41-20.79h11Z" transform="translate(-7080.68 -800.51)"/><path class="cls-6" d="M8561.7,957.89l-6.51,10.79a6.52,6.52,0,0,0,2.21,9,6.22,6.22,0,0,0,1.79.74h0a6.52,6.52,0,0,0,7.91-4.74c0-.22.09-.45.13-.67l2-13.85,17.26-44.4,3.48-21.26-13.42-2.65Z" transform="translate(-7080.68 -800.51)"/><path class="cls-1" d="M8659.7,894.24l-20.79-.32V857.69l3.2.47a15.3,15.3,0,0,1,13,13.73Z" transform="translate(-7080.68 -800.51)"/><path class="cls-1" d="M8570.86,898l20.79-.32V861.47l-3.2.47a15.29,15.29,0,0,0-13,13.73Z" transform="translate(-7080.68 -800.51)"/><path class="cls-3" d="M8623.94,823.51c-6.69,3.78-19.55,5.52-29,2.83L8591.81,810H8623Z" transform="translate(-7080.68 -800.51)"/><rect class="cls-1" x="1192.93" y="217.45" width="102.6" height="82.69"/><rect class="cls-7" x="1235.56" y="276.15" width="17.36" height="23.48"/><polygon class="cls-1" points="1421.63 219.89 1424.36 212.61 1449.85 198.05 1467.14 194.41 1421.63 219.89"/><polygon class="cls-1" points="1327.87 219.89 1325.14 212.61 1299.65 198.05 1282.36 194.41 1327.87 219.89"/><polygon class="cls-1" points="1423.45 221.71 1326.05 221.71 1317.86 183.48 1431.64 183.48 1423.45 221.71"/><rect class="cls-1" x="1325.6" y="219.44" width="98.31" height="80.71"/><rect class="cls-7" x="1366.07" y="276.14" width="17.36" height="23.48"/><rect class="cls-2" x="1354.33" y="235.95" width="40.84" height="12.76"/><rect class="cls-2" x="1223.55" y="235.95" width="40.84" height="12.76"/><path d="M8309.92,1044.79v-4.61h3v.4h-2.57v1.7h2.16v.37h-2.16v2.14Z" transform="translate(-7080.68 -800.51)"/><path d="M8313.67,1040.05h.44v4a.46.46,0,0,0,.09.34.35.35,0,0,0,.22.08l.24,0,.2,0,.08.35a1.26,1.26,0,0,1-.31.09l-.3,0a.65.65,0,0,1-.48-.18.62.62,0,0,1-.18-.48Z" transform="translate(-7080.68 -800.51)"/><path d="M8316.86,1044.85a1.64,1.64,0,0,1-.67-.14,1.6,1.6,0,0,1-.54-.38,1.85,1.85,0,0,1-.47-1.21,1.72,1.72,0,0,1,.13-.68,1.65,1.65,0,0,1,1.55-1.07,1.64,1.64,0,0,1,.67.14,1.72,1.72,0,0,1,.88.93,1.91,1.91,0,0,1,.13.68,1.85,1.85,0,0,1-.13.66,1.67,1.67,0,0,1-.35.55,1.47,1.47,0,0,1-.53.38A1.64,1.64,0,0,1,8316.86,1044.85Zm-1.23-1.73a1.51,1.51,0,0,0,.16.68,1.33,1.33,0,0,0,.45.49,1.2,1.2,0,0,0,.62.17,1.09,1.09,0,0,0,.61-.18,1.25,1.25,0,0,0,.45-.49,1.47,1.47,0,0,0,.17-.69,1.39,1.39,0,0,0-.17-.67,1.25,1.25,0,0,0-.45-.49,1.09,1.09,0,0,0-.61-.18,1.12,1.12,0,0,0-.62.18,1.45,1.45,0,0,0-.45.5A1.51,1.51,0,0,0,8315.63,1043.12Z" transform="translate(-7080.68 -800.51)"/><path d="M8320.63,1044.85a1.53,1.53,0,0,1-.64-.14,1.73,1.73,0,0,1-.5-.39,1.79,1.79,0,0,1-.33-.55,2,2,0,0,1-.11-.64,2.09,2.09,0,0,1,.11-.67,2,2,0,0,1,.33-.57,1.51,1.51,0,0,1,.49-.38,1.47,1.47,0,0,1,.64-.14,1.25,1.25,0,0,1,.75.22,1.74,1.74,0,0,1,.54.54v-.71h.4v3.38a1.41,1.41,0,0,1-.22.79,1.4,1.4,0,0,1-.61.48,2,2,0,0,1-.82.16,1.84,1.84,0,0,1-.94-.21,1.61,1.61,0,0,1-.58-.55l.27-.22a1.26,1.26,0,0,0,.54.48,1.67,1.67,0,0,0,.71.15,1.46,1.46,0,0,0,.6-.12.9.9,0,0,0,.44-.35,1,1,0,0,0,.17-.59v-.67a1.52,1.52,0,0,1-.53.51A1.4,1.4,0,0,1,8320.63,1044.85Zm.12-.37a1,1,0,0,0,.39-.07,1.41,1.41,0,0,0,.34-.19,1.33,1.33,0,0,0,.26-.27.76.76,0,0,0,.13-.31v-1a1.57,1.57,0,0,0-.28-.44,1.46,1.46,0,0,0-.41-.29,1,1,0,0,0-.48-.11,1.07,1.07,0,0,0-.51.12,1,1,0,0,0-.37.32,1.45,1.45,0,0,0-.24.44,1.4,1.4,0,0,0-.08.49,1.5,1.5,0,0,0,.09.52,1.57,1.57,0,0,0,.27.43,1.27,1.27,0,0,0,.4.3A1.19,1.19,0,0,0,8320.75,1044.48Z" transform="translate(-7080.68 -800.51)"/><path d="M8323,1043.82a.84.84,0,0,1,.18-.54,1.1,1.1,0,0,1,.5-.36,2.15,2.15,0,0,1,.75-.12l.51,0a2.93,2.93,0,0,1,.47.12v-.28a.91.91,0,0,0-.25-.68.94.94,0,0,0-.7-.25,1.47,1.47,0,0,0-.54.1,3.29,3.29,0,0,0-.55.29l-.16-.31a2.9,2.9,0,0,1,.65-.34,2,2,0,0,1,.64-.11,1.37,1.37,0,0,1,1,.35,1.33,1.33,0,0,1,.36,1v1.56a.16.16,0,0,0,.17.18v.35h-.21a.34.34,0,0,1-.24-.1.32.32,0,0,1-.09-.21v-.25a1.39,1.39,0,0,1-.59.45,1.76,1.76,0,0,1-.74.16,1.28,1.28,0,0,1-.59-.14,1,1,0,0,1-.55-.89Zm2.26.26a.58.58,0,0,0,.11-.18.27.27,0,0,0,0-.14v-.49a2.23,2.23,0,0,0-.46-.13,2.42,2.42,0,0,0-.47-.05,1.46,1.46,0,0,0-.77.19.57.57,0,0,0-.29.51.64.64,0,0,0,.1.35.73.73,0,0,0,.28.27.92.92,0,0,0,.44.1,1.5,1.5,0,0,0,.6-.12A1,1,0,0,0,8325.27,1044.08Z" transform="translate(-7080.68 -800.51)"/><path d="M8328.41,1044.65l-.16.07a.85.85,0,0,1-.27.09,1.18,1.18,0,0,1-.34,0,.84.84,0,0,1-.35-.07.56.56,0,0,1-.26-.22.61.61,0,0,1-.1-.36v-2.43h-.47v-.35h.47v-1.14h.44v1.14h.78v.35h-.78v2.31a.36.36,0,0,0,.14.27.44.44,0,0,0,.27.09.88.88,0,0,0,.33-.06l.18-.09Z" transform="translate(-7080.68 -800.51)"/><path d="M8330.36,1044.85a1.67,1.67,0,0,1-.67-.14,1.6,1.6,0,0,1-.54-.38,1.82,1.82,0,0,1-.26-2.1,1.63,1.63,0,0,1,1.47-.86,1.58,1.58,0,0,1,.87.24,1.78,1.78,0,0,1,.8,1.48v.1s0,.06,0,.07h-2.89a1.35,1.35,0,0,0,.21.64,1.27,1.27,0,0,0,.44.45,1.17,1.17,0,0,0,.6.16,1.28,1.28,0,0,0,.63-.16.93.93,0,0,0,.41-.45l.38.11a1.18,1.18,0,0,1-.32.43,1.48,1.48,0,0,1-.5.3A1.59,1.59,0,0,1,8330.36,1044.85Zm-1.24-1.91h2.49a1.37,1.37,0,0,0-.19-.64,1.32,1.32,0,0,0-.45-.43,1.26,1.26,0,0,0-.61-.16,1.22,1.22,0,0,0-.6.16,1.16,1.16,0,0,0-.44.44A1.24,1.24,0,0,0,8329.12,1042.94Z" transform="translate(-7080.68 -800.51)"/><path d="M8332.44,1043.82a.84.84,0,0,1,.18-.54,1.1,1.1,0,0,1,.5-.36,2.13,2.13,0,0,1,.74-.12l.52,0a2.93,2.93,0,0,1,.47.12v-.28a.91.91,0,0,0-.25-.68,1,1,0,0,0-.7-.25,1.44,1.44,0,0,0-.54.1,3,3,0,0,0-.55.29l-.17-.31a3.4,3.4,0,0,1,.65-.34,2.06,2.06,0,0,1,.65-.11,1.37,1.37,0,0,1,1,.35,1.33,1.33,0,0,1,.36,1v1.56a.17.17,0,0,0,0,.13.22.22,0,0,0,.12,0v.35h-.2a.38.38,0,0,1-.25-.1.48.48,0,0,1-.09-.21v-.25a1.39,1.39,0,0,1-.59.45,1.76,1.76,0,0,1-.74.16,1.28,1.28,0,0,1-.59-.14,1,1,0,0,1-.55-.89Zm2.26.26a.58.58,0,0,0,.11-.18.27.27,0,0,0,0-.14v-.49a2.42,2.42,0,0,0-.46-.13,2.5,2.5,0,0,0-.47-.05,1.46,1.46,0,0,0-.77.19.57.57,0,0,0-.29.51.64.64,0,0,0,.1.35.73.73,0,0,0,.28.27.89.89,0,0,0,.44.1,1.53,1.53,0,0,0,.6-.12A1,1,0,0,0,8334.7,1044.08Z" transform="translate(-7080.68 -800.51)"/><path d="M8336.21,1043.4v-2h.44v1.9a1.54,1.54,0,0,0,.2.86.67.67,0,0,0,.59.28,1.25,1.25,0,0,0,.5-.11,1.46,1.46,0,0,0,.43-.32,1.51,1.51,0,0,0,.29-.49v-2.12h.44v2.83a.24.24,0,0,0,0,.14.22.22,0,0,0,.12,0v.35H8339a.37.37,0,0,1-.22-.1.32.32,0,0,1-.1-.22V1044a1.6,1.6,0,0,1-.6.61,1.58,1.58,0,0,1-.82.22.94.94,0,0,1-.81-.37A1.79,1.79,0,0,1,8336.21,1043.4Z" transform="translate(-7080.68 -800.51)"/><path d="M8439.93,1045.6V1041h3v.4h-2.57v1.69h2.16v.38h-2.16v2.13Z" transform="translate(-7080.68 -800.51)"/><path d="M8443.68,1040.87h.44v4a.43.43,0,0,0,.09.33.3.3,0,0,0,.22.08l.24,0,.2-.06.08.36a2,2,0,0,1-.31.08,1.18,1.18,0,0,1-.3,0,.62.62,0,0,1-.66-.66Z" transform="translate(-7080.68 -800.51)"/><path d="M8446.87,1045.67a1.66,1.66,0,0,1-1.21-.52,1.68,1.68,0,0,1-.34-.56,1.77,1.77,0,0,1,0-1.33,1.69,1.69,0,0,1,.88-.94,1.67,1.67,0,0,1,.67-.14,1.64,1.64,0,0,1,.67.14,1.69,1.69,0,0,1,.88.94,1.9,1.9,0,0,1,0,1.33,1.71,1.71,0,0,1-.35.56,1.47,1.47,0,0,1-.53.38A1.64,1.64,0,0,1,8446.87,1045.67Zm-1.23-1.73a1.55,1.55,0,0,0,.16.68,1.38,1.38,0,0,0,.45.48,1.14,1.14,0,0,0,1.23,0,1.28,1.28,0,0,0,.45-.5,1.4,1.4,0,0,0,.17-.68,1.43,1.43,0,0,0-.17-.68,1.33,1.33,0,0,0-.45-.49,1.11,1.11,0,0,0-.61-.18,1.13,1.13,0,0,0-.62.19,1.42,1.42,0,0,0-.45.49A1.59,1.59,0,0,0,8445.64,1043.94Z" transform="translate(-7080.68 -800.51)"/><path d="M8450.64,1045.67a1.4,1.4,0,0,1-.64-.15,1.55,1.55,0,0,1-.5-.38,1.84,1.84,0,0,1-.33-.56,2,2,0,0,1-.11-.64,2.09,2.09,0,0,1,.11-.67,1.84,1.84,0,0,1,.33-.56,1.69,1.69,0,0,1,.49-.39,1.47,1.47,0,0,1,.64-.14,1.33,1.33,0,0,1,.75.22,2,2,0,0,1,.54.54v-.7h.4v3.38a1.38,1.38,0,0,1-.22.78,1.35,1.35,0,0,1-.61.49,2.22,2.22,0,0,1-.82.16,1.84,1.84,0,0,1-.94-.21,1.64,1.64,0,0,1-.58-.56l.27-.21a1.18,1.18,0,0,0,.54.47,1.54,1.54,0,0,0,.71.16,1.46,1.46,0,0,0,.6-.12,1,1,0,0,0,.61-.95V1045a1.47,1.47,0,0,1-1.24.7Zm.12-.37a1.23,1.23,0,0,0,.39-.07,1.68,1.68,0,0,0,.34-.2,1.33,1.33,0,0,0,.26-.27.72.72,0,0,0,.13-.3v-1a1.44,1.44,0,0,0-.28-.44,1.31,1.31,0,0,0-.41-.3,1.13,1.13,0,0,0-.48-.11,1.07,1.07,0,0,0-.51.12,1.14,1.14,0,0,0-.37.32,1.39,1.39,0,0,0-.24.45,1.36,1.36,0,0,0-.08.49,1.44,1.44,0,0,0,.09.51,1.62,1.62,0,0,0,.27.44,1.24,1.24,0,0,0,.4.29A1.21,1.21,0,0,0,8450.76,1045.3Z" transform="translate(-7080.68 -800.51)"/><path d="M8453,1044.64a.85.85,0,0,1,.18-.55,1.16,1.16,0,0,1,.5-.35,1.93,1.93,0,0,1,.75-.13,3.08,3.08,0,0,1,.51,0,2.15,2.15,0,0,1,.47.12v-.29a.88.88,0,0,0-.25-.67.94.94,0,0,0-.7-.26,1.71,1.71,0,0,0-.54.1,3.41,3.41,0,0,0-.55.3l-.16-.31a2.54,2.54,0,0,1,.65-.34,1.77,1.77,0,0,1,.64-.12,1.34,1.34,0,0,1,1,.36,1.31,1.31,0,0,1,.36,1v1.55a.17.17,0,0,0,0,.13.17.17,0,0,0,.13,0v.35h-.21a.27.27,0,0,1-.24-.1.29.29,0,0,1-.09-.21v-.24a1.57,1.57,0,0,1-.59.45,1.93,1.93,0,0,1-.74.16,1.28,1.28,0,0,1-.59-.14,1,1,0,0,1-.4-.38A.92.92,0,0,1,8453,1044.64Zm2.26.25a.69.69,0,0,0,.11-.17.34.34,0,0,0,0-.15v-.49a3.09,3.09,0,0,0-.46-.13,2.42,2.42,0,0,0-.47,0,1.37,1.37,0,0,0-.77.19.57.57,0,0,0-.29.5.62.62,0,0,0,.1.35.73.73,0,0,0,.28.27.93.93,0,0,0,.44.11,1.5,1.5,0,0,0,.6-.12A1.07,1.07,0,0,0,8455.28,1044.89Z" transform="translate(-7080.68 -800.51)"/><path d="M8458.42,1045.47l-.16.07-.27.09a1.67,1.67,0,0,1-.34,0,.85.85,0,0,1-.35-.08.54.54,0,0,1-.26-.21.61.61,0,0,1-.1-.36v-2.43h-.47v-.35h.47v-1.15h.44v1.15h.78v.35h-.78v2.3a.38.38,0,0,0,.14.28.44.44,0,0,0,.27.09.88.88,0,0,0,.33-.06.69.69,0,0,0,.18-.09Z" transform="translate(-7080.68 -800.51)"/><path d="M8460.37,1045.67a1.67,1.67,0,0,1-.67-.14,1.75,1.75,0,0,1-.54-.38,1.82,1.82,0,0,1-.26-2.1,1.65,1.65,0,0,1,.6-.63,1.7,1.7,0,0,1,1.74,0,1.78,1.78,0,0,1,.8,1.48v.1a.17.17,0,0,1,0,.08h-2.89a1.39,1.39,0,0,0,.21.64,1.27,1.27,0,0,0,.44.45,1.23,1.23,0,0,0,1.23,0,1,1,0,0,0,.41-.44l.38.1a1.21,1.21,0,0,1-.32.44,1.48,1.48,0,0,1-.5.3A1.8,1.8,0,0,1,8460.37,1045.67Zm-1.24-1.91h2.49a1.34,1.34,0,0,0-.19-.64,1.23,1.23,0,0,0-.45-.43,1.18,1.18,0,0,0-.61-.16,1.12,1.12,0,0,0-.6.16,1.21,1.21,0,0,0-.44.43A1.27,1.27,0,0,0,8459.13,1043.76Z" transform="translate(-7080.68 -800.51)"/><path d="M8462.45,1044.64a.85.85,0,0,1,.18-.55,1.16,1.16,0,0,1,.5-.35,1.92,1.92,0,0,1,.74-.13,2.92,2.92,0,0,1,.51,0,2.11,2.11,0,0,1,.48.12v-.29a.88.88,0,0,0-.25-.67,1,1,0,0,0-.7-.26,1.66,1.66,0,0,0-.54.1,3,3,0,0,0-.55.3l-.17-.31a2.91,2.91,0,0,1,.65-.34,1.82,1.82,0,0,1,.65-.12,1.34,1.34,0,0,1,1,.36,1.31,1.31,0,0,1,.36,1v1.55a.17.17,0,0,0,0,.13.17.17,0,0,0,.12,0v.35h-.2a.3.3,0,0,1-.25-.1.4.4,0,0,1-.09-.21v-.24a1.57,1.57,0,0,1-.59.45,1.93,1.93,0,0,1-.74.16,1.28,1.28,0,0,1-.59-.14,1.07,1.07,0,0,1-.41-.38A1,1,0,0,1,8462.45,1044.64Zm2.26.25a1.2,1.2,0,0,0,.11-.17.34.34,0,0,0,0-.15v-.49a3.47,3.47,0,0,0-.46-.13,2.49,2.49,0,0,0-.47,0,1.37,1.37,0,0,0-.77.19.55.55,0,0,0-.29.5.7.7,0,0,0,.09.35.76.76,0,0,0,.29.27.9.9,0,0,0,.44.11,1.53,1.53,0,0,0,.6-.12A1.07,1.07,0,0,0,8464.71,1044.89Z" transform="translate(-7080.68 -800.51)"/><path d="M8466.22,1044.21v-2h.44v1.89a1.52,1.52,0,0,0,.2.86.67.67,0,0,0,.59.29,1.11,1.11,0,0,0,.5-.12,1.31,1.31,0,0,0,.43-.32,1.47,1.47,0,0,0,.29-.48v-2.12h.44v2.83a.23.23,0,0,0,0,.13.17.17,0,0,0,.12,0v.35h-.21a.32.32,0,0,1-.22-.1.3.3,0,0,1-.1-.22v-.45a1.62,1.62,0,0,1-1.42.83,1,1,0,0,1-.81-.37A1.85,1.85,0,0,1,8466.22,1044.21Z" transform="translate(-7080.68 -800.51)"/></g></g></svg>