<svg xmlns="http://www.w3.org/2000/svg" viewBox="0 0 1579.63 763"><defs><style>.cls-1{fill:#ffb8b8;}.cls-2{fill:#2f2e41;}.cls-3{fill:#c1aea7;}.cls-4{opacity:0.15;isolation:isolate;}.cls-5{fill:#bba247;}.cls-6{fill:#b2dacd;}.cls-11,.cls-7{fill:#e4dbcc;}.cls-12,.cls-8,.cls-9{fill:#ccb164;}.cls-8,.cls-9{opacity:0.5;}.cls-9{stroke:#ccb164;stroke-width:1.28px;}.cls-14,.cls-9{stroke-miterlimit:10;}.cls-10,.cls-13{fill:#fff;}.cls-10,.cls-11{opacity:0.15;}.cls-12{opacity:0.25;}.cls-14{stroke:#3f3f3f;}.cls-15{fill:#3f3f3f;}.cls-16{fill:#b2dbcd;}</style></defs><g id="Layer_2" data-name="Layer 2"><g id="Layer_4" data-name="Layer 4"><g id="Layer_2-2" data-name="Layer 2"><g id="Layer_1-2" data-name="Layer 1-2"><path class="cls-1" d="M201.11,676.24s25.75,1.07,25.75,7.51-29,0-29,0Z"/><path class="cls-2" d="M162.47,763H114.63L112,746l-10.4,17h-48c1.07-40.78,18.7-81.4,19.77-86.76S77,648.7,77,648.7c4.69-10,29.26-10.88,48.53-10,8,.36,15.06,1,19.43,1.54,2.89.33,4.59.56,4.59.56,7.7,7.93,12.66,18.74,15.7,30.81C176.28,715.13,162.47,763,162.47,763Z"/><circle class="cls-1" cx="108.81" cy="499.16" r="26.83"/><path class="cls-1" d="M90.57,505.6s-7.51,33.27-19.32,42.93,46.15,0,46.15,0-12.88-21.46-3.22-31.12S90.57,505.6,90.57,505.6Z"/><path class="cls-3" d="M145.3,643l-17.8,2-49.81,5.54L77,648.76c-3.62-9.86-21-57.86-23-72.27C51.94,560.33,74.47,541,74.47,541s21.47-4.3,27.9-4.3,32.2,9.66,32.2,9.66l9.6,86.4.83,7.48Z"/><path class="cls-4" d="M165.29,671.63,129.2,650.48l-1.7-5.54-1.93-6.22c-4.17-13.37-11.15-35.44-16.76-51.56-8.58-24.68,33.27,44,33.27,44l2.09,1.62.83,7.48c2.89.33,4.59.56,4.59.56C157.29,648.75,162.25,659.56,165.29,671.63Z"/><path class="cls-3" d="M117.4,548.53s-10.73,14-2.15,38.63,20.38,63.32,20.38,63.32L197.89,687l8.58-10.73-58-45.08s-2.1-81.59-12.84-84.81A22,22,0,0,0,117.4,548.53Z"/><path class="cls-1" d="M64.28,642.43s15,31.12,21.46,27.9-16.11-35.41-16.11-35.41Z"/><path class="cls-3" d="M62.63,557.11,5.79,604.33s-21.46,15,18.24,25.76S67,647.26,67,647.26s4.29-14,9.66-11.8L30.47,612.92,68,590.38Z"/><path class="cls-5" d="M39.81,521.18a152.65,152.65,0,0,0,15.19-8c-.39-11.7,1-22.31,5.26-27.94,2.37-5.37,7.34-10.75,11.23-15,9.55-10.4,30.68-16.2,34.43-11,28.35.56,31.33,22.78,31.33,22.78-.14,9.3-9.8,9.59-18.27,9.25.76,6.35-1.26,12.94-7.1,15.86-11.19,5.59-14.54,12.86-9,17.89s15.65,18.45,2.24,21.81S90,556.89,93.93,559.69s-8.94-5-8.94-5-2.24,13.41-14,10.06a7.15,7.15,0,0,1-3.14-2.22c-3.17,3.48-6,5.54-8.13,5.55C47.51,568.15,49,554.62,49,554.62s-14.5,4.07-10,2.44,4.71-8.55-7.31-15.4S33.07,524.52,39.81,521.18Z"/><path class="cls-6" d="M197.63,528.24h-.19l.47,1.81a47.25,47.25,0,0,0,2,7.41l13.93,52.94A9,9,0,0,0,221.1,597l28.4,4.39a9,9,0,0,0,9.28-4.63l27-50.42a43.46,43.46,0,0,0,2.31-4.31l.92-1.71h-.14a47.72,47.72,0,1,0-91.23-12Z"/><path class="cls-6" d="M251.23,604.81a10.56,10.56,0,0,1-1.49-.11l-29.69-4.6a9.79,9.79,0,0,1-8-7.19l-14.56-55.34a49.62,49.62,0,0,1-2-7.78l-.37-2.42a50.33,50.33,0,0,1,57.59-56.11l-.13.83A49.51,49.51,0,0,0,196,527.8l.29,1.81a50.32,50.32,0,0,0,2,7.72l14.57,55.37a9,9,0,0,0,7.3,6.58l29.69,4.59a9,9,0,0,0,9.27-4.63l.74.4A9.82,9.82,0,0,1,251.23,604.81Z"/><rect class="cls-7" x="223.98" y="564.64" width="52.53" height="1.08" transform="translate(-366.52 605.73) rotate(-69.88)"/><rect class="cls-7" x="229.39" y="535.69" width="1.08" height="52.53" transform="translate(-24.49 10.65) rotate(-2.52)"/><path class="cls-6" d="M248.72,629.9l-38-5.88a1.09,1.09,0,0,1,.33-2.15l38,5.89a1.08,1.08,0,0,1-.32,2.14Z"/><path class="cls-6" d="M249.7,621.82l-38-5.88a1.09,1.09,0,0,1,.32-2.15h0l38,5.89a1.08,1.08,0,0,1-.32,2.14Z"/><path class="cls-6" d="M250.63,613.74l-38-5.88a1.08,1.08,0,0,1,.33-2.14h0l38,5.88a1.08,1.08,0,1,1-.33,2.14Z"/><path class="cls-6" d="M228.52,634.6c7.54,1.17,14.31-2.09,15.11-7.28l-27.32-4.22C215.51,628.28,221,633.44,228.52,634.6Z"/><path class="cls-7" d="M242.19,529.88a6.72,6.72,0,0,1-3.7-2.39c-.24-.28-.48-.58-.71-.87A8.4,8.4,0,0,0,235,524c-2.48-1.16-5.42.46-8,2.2l-.61-.89c2.79-1.92,6-3.68,9-2.29a9.41,9.41,0,0,1,3.18,2.9l.69.84c.77.9,2.3,2.35,3.93,2a5.22,5.22,0,0,0,1.89-1,11.46,11.46,0,0,1,1.33-.84,5.33,5.33,0,0,1,5.83.83,10.33,10.33,0,0,1,.79.83,3.93,3.93,0,0,0,1.55,1.28c.88.28,1.82-.23,2.81-.76a5.62,5.62,0,0,1,3.29-1h.11c2.14.33,3.12,2.69,3.68,4.46l-1,.32c-.76-2.39-1.68-3.59-2.89-3.72a4.83,4.83,0,0,0-2.64.86c-1.15.62-2.34,1.26-3.66.84a4.64,4.64,0,0,1-2-1.59c-.23-.26-.46-.51-.71-.75a4.25,4.25,0,0,0-4.62-.66,11.41,11.41,0,0,0-1.19.76,6,6,0,0,1-2.29,1.17A3.34,3.34,0,0,1,242.19,529.88Z"/><rect class="cls-8" x="19.75" y="34" width="896" height="225"/><rect class="cls-8" x="291.63" y="249" width="10" height="55"/><rect class="cls-9" x="363.75" y="351" width="1125" height="266.03"/><rect class="cls-8" x="1078.63" y="306" width="10" height="55"/><rect class="cls-10" x="821.63" y="361" width="524" height="318"/><rect class="cls-11" x="1001.23" y="300.58" width="451.66" height="1.14"/><rect class="cls-12" x="26.75" y="300" width="1552.88" height="10"/><circle class="cls-8" cx="1083.63" cy="305" r="16"/><circle class="cls-7" cx="1083.63" cy="305" r="5"/><circle class="cls-8" cx="296.63" cy="305" r="16"/><circle class="cls-7" cx="296.63" cy="305" r="5"/><polygon class="cls-13" points="375.06 359.53 1477.75 360.65 1477.75 604.03 373.75 604.03 375.06 359.53"/><polygon class="cls-13" points="32.62 43.53 905.22 42.11 905.12 249 34.91 249 32.62 43.53"/><path class="cls-5" d="M1539.63,86.64H1480.4c-8-21.7-11.5-41.88,0-57A29.61,29.61,0,0,1,1510,0h0a29.57,29.57,0,0,1,24.14,12.46,24.79,24.79,0,0,1,2.94,22.65C1532.27,48.67,1535.19,67.18,1539.63,86.64Z"/><path class="cls-14" d="M1570.87,300.4h0a8,8,0,0,1-7.66-5.66l-2.44-7.93a12,12,0,0,1-.32-5.67l1.66-8.78h11.66l4.86,17.94a8,8,0,0,1-5.63,9.81h0A7.94,7.94,0,0,1,1570.87,300.4Z"/><path class="cls-14" d="M1485.94,300.4h0a8,8,0,0,0,7.66-5.66l2.44-7.93a12,12,0,0,0,.32-5.67l-1.67-8.78H1483l-4.84,17.94a8,8,0,0,0,5.63,9.81h0A7.8,7.8,0,0,0,1485.94,300.4Z"/><path class="cls-2" d="M1574.72,273.3H1561.8l-56.08-106.48L1495.38,273.3H1484c-5.84-67.05-20.06-130.93,0-155l46.94,4.41Z"/><circle class="cls-1" cx="1508.4" cy="30.56" r="15.75"/><path class="cls-1" d="M1530.63,91.21h-35l-6-27.73c11.62-3.43,14.39-11.41,12-22l18.9-1.26c1.07,8.57,3,16.57,15.12,18Z"/><path class="cls-3" d="M1530.63,125.86c-19.84,7.53-36,7.3-47.26-3.15,5.09-16.78,5.4-37.44,3.15-60.17l6.3-2.84L1495,79.86l31.19-1.57,6.93-22.05,6.93,1.57C1540.63,85.15,1539,109.75,1530.63,125.86Z"/><path class="cls-1" d="M1548.88,159.89l3.71,12a6.5,6.5,0,0,1-4.28,8.14,6.79,6.79,0,0,1-2,.29h0a6.51,6.51,0,0,1-6.52-6.5v0c0-.22,0-.45,0-.67l1.45-13.91-6-47.26,4.41-20.79h11Z"/><path class="cls-1" d="M1460.63,157.38l-6.51,10.79a6.5,6.5,0,0,0,2.12,8.94l.09.06a6.1,6.1,0,0,0,1.79.74h0a6.52,6.52,0,0,0,7.91-4.74h0a5.24,5.24,0,0,1,.12-.67l2-13.85,17.26-44.4L1488.89,93l-13.43-2.65Z"/><path class="cls-3" d="M1558.63,93.73l-20.79-.32V57.18l3.2.47a15.3,15.3,0,0,1,13,13.73Z"/><path class="cls-3" d="M1469.81,97.51l20.79-.32V61l-3.2.47a15.3,15.3,0,0,0-13,13.73Z"/><path class="cls-5" d="M1522.89,23c-6.69,3.78-19.55,5.52-29,2.83l-3.15-16.38h31.19Z"/><rect class="cls-6" x="1172.56" y="217.45" width="102.6" height="82.69"/><rect class="cls-15" x="1215.19" y="276.15" width="17.36" height="23.48"/><polygon class="cls-16" points="1401.26 219.89 1403.99 212.61 1429.48 198.05 1446.77 194.41 1401.26 219.89"/><polygon class="cls-16" points="1307.5 219.89 1304.77 212.61 1279.28 198.05 1261.99 194.41 1307.5 219.89"/><polygon class="cls-16" points="1403.08 221.71 1305.68 221.71 1297.49 183.48 1411.27 183.48 1403.08 221.71"/><rect class="cls-16" x="1305.23" y="219.44" width="98.31" height="80.71"/><rect class="cls-15" x="1345.7" y="276.14" width="17.36" height="23.48"/></g></g></g></g></svg>