<?xml version="1.0" encoding="utf-8"?>
<!-- Generator: Adobe Illustrator 25.1.0, SVG Export Plug-In . SVG Version: 6.00 Build 0)  -->
<svg version="1.1" id="Layer_1" xmlns="http://www.w3.org/2000/svg" xmlns:xlink="http://www.w3.org/1999/xlink" x="0px" y="0px"
	 viewBox="0 0 1600 763" style="enable-background:new 0 0 1600 763;" xml:space="preserve">
<style type="text/css">
	.st0{fill:#FFFFFF;stroke:#B2DBCD;stroke-miterlimit:10;}
	.st1{fill:#B2DACD;}
	.st2{fill:#FFB8B8;}
	.st3{fill:#2F2E41;}
	.st4{fill:#C1AEA7;}
	.st5{opacity:0.15;enable-background:new    ;}
	.st6{fill:#BBA247;}
	.st7{fill:#E4DBCC;}
	.st8{fill:#CCB164;}
	.st9{fill:#FFFFFF;}
	.st10{stroke:#3F3F3F;stroke-miterlimit:10;}
	.st11{fill:#3F3F3F;}
	.st12{fill:#B2DBCD;}
	.st13{fill:#4F5D75;}
</style>
<path class="st0" d="M294,420.6"/>
<path class="st0" d="M186.6,533.9"/>
<path class="st1" d="M317.3,541.4"/>
<path class="st1" d="M263.2,455.9"/>
<path class="st2" d="M221.4,676.1c0,0,25.8,1.1,25.8,7.5s-29,0-29,0L221.4,676.1z"/>
<path class="st3" d="M182.7,762.8h-47.8l-2.6-17l-10.4,17h-48c1.1-40.8,18.7-81.4,19.8-86.8s3.6-27.5,3.6-27.5
	c4.7-10,29.3-10.9,48.5-10c8,0.4,15.1,1,19.4,1.5c2.9,0.3,4.6,0.6,4.6,0.6c7.7,7.9,12.7,18.7,15.7,30.8
	C196.5,715,182.7,762.8,182.7,762.8z"/>
<circle class="st2" cx="129.1" cy="499" r="26.8"/>
<path class="st2" d="M110.8,505.4c0,0-7.5,33.3-19.3,42.9s46.1,0,46.1,0s-12.9-21.5-3.2-31.1C144.1,507.6,110.8,505.4,110.8,505.4z"
	/>
<path class="st4" d="M165.6,642.8l-17.8,2L98,650.4l-0.7-1.8c-3.6-9.9-21-57.9-23-72.3c-2.1-16.2,20.4-35.5,20.4-35.5
	s21.5-4.3,27.9-4.3c6.4,0,32.2,9.7,32.2,9.7l9.6,86.4l0.8,7.5L165.6,642.8z"/>
<path class="st5" d="M185.6,671.5l-36.1-21.2l-1.7-5.5l-1.9-6.2c-4.2-13.4-11.1-35.4-16.8-51.6c-8.6-24.7,33.3,44,33.3,44l2.1,1.6
	l0.8,7.5c2.9,0.3,4.6,0.6,4.6,0.6C177.6,648.6,182.5,659.4,185.6,671.5z"/>
<path class="st4" d="M137.7,548.4c0,0-10.7,14-2.1,38.6s20.4,63.3,20.4,63.3l62.3,36.5l8.6-10.7l-58-45.1c0,0-2.1-81.6-12.8-84.8
	C149.8,544.2,143.1,545,137.7,548.4z"/>
<path class="st2" d="M84.5,642.3c0,0,15,31.1,21.5,27.9s-16.1-35.4-16.1-35.4L84.5,642.3z"/>
<path class="st4" d="M82.9,556.9l-56.8,47.2c0,0-21.5,15,18.2,25.8s42.9,17.2,42.9,17.2s4.3-14,9.7-11.8l-46.2-22.5l37.6-22.5
	L82.9,556.9z"/>
<path class="st6" d="M60.1,521c5.2-2.4,10.3-5,15.2-8c-0.4-11.7,1-22.3,5.3-27.9c2.4-5.4,7.3-10.8,11.2-15
	c9.6-10.4,30.7-16.2,34.4-11c28.3,0.6,31.3,22.8,31.3,22.8c-0.1,9.3-9.8,9.6-18.3,9.2c0.8,6.4-1.3,12.9-7.1,15.9
	c-11.2,5.6-14.5,12.9-9,17.9c5.5,5,15.6,18.5,2.2,21.8s-15.1,10.1-11.2,12.9s-8.9-5-8.9-5s-2.2,13.4-14,10.1
	c-1.2-0.4-2.3-1.2-3.1-2.2c-3.2,3.5-6,5.5-8.1,5.5c-12.2,0.1-10.7-13.5-10.7-13.5s-14.5,4.1-10,2.4s4.7-8.5-7.3-15.4
	S53.3,524.4,60.1,521z"/>
<path class="st1" d="M217.9,528.1h-0.2l0.5,1.8c0.4,2.5,1.1,5,1.9,7.4l13.9,52.9c0.9,3.5,3.8,6,7.3,6.6l28.4,4.4
	c3.8,0.6,7.5-1.3,9.3-4.6l27-50.4c0.9-1.4,1.6-2.8,2.3-4.3l0.9-1.7h-0.1c10.3-24.3-1.1-52.3-25.4-62.5s-52.3,1.1-62.5,25.4
	C217.9,511,216.7,519.6,217.9,528.1L217.9,528.1z"/>
<path class="st1" d="M271.5,604.6c-0.5,0-1,0-1.5-0.1l-29.7-4.6c-3.9-0.6-7-3.4-8-7.2l-14.6-55.3c-0.9-2.5-1.5-5.1-2-7.8l-0.4-2.4
	c-3.5-27.6,16-52.8,43.5-56.3c4.7-0.6,9.4-0.5,14.1,0.2l-0.1,0.8c-27-4.2-52.3,14.4-56.5,41.4c-0.7,4.7-0.8,9.6-0.1,14.3l0.3,1.8
	c0.5,2.6,1.1,5.2,2,7.7l14.6,55.4c0.9,3.4,3.8,6,7.3,6.6l29.7,4.6c3.8,0.6,7.5-1.3,9.3-4.6l0.7,0.4
	C278.4,602.7,275.1,604.6,271.5,604.6z"/>
<rect x="244.2" y="564.5" transform="matrix(0.344 -0.939 0.939 0.344 -353.0779 624.6583)" class="st7" width="52.5" height="1.1"/>
<rect x="249.7" y="535.5" transform="matrix(0.999 -4.396812e-02 4.396812e-02 0.999 -24.459 11.5439)" class="st7" width="1.1" height="52.5"/>
<path class="st1" d="M269,629.7l-38-5.9c-0.6-0.1-1-0.7-0.8-1.3c0.1-0.5,0.6-0.9,1.2-0.8l38,5.9c0.6,0.1,1,0.6,0.9,1.2
	C270.1,629.4,269.6,629.8,269,629.7L269,629.7z"/>
<path class="st1" d="M270,621.7l-38-5.9c-0.6-0.1-1-0.7-0.8-1.3c0.1-0.5,0.6-0.9,1.1-0.8l0,0l38,5.9c0.6,0.1,1,0.6,0.9,1.2
	C271.1,621.3,270.6,621.7,270,621.7z"/>
<path class="st1" d="M270.9,613.6l-38-5.9c-0.6-0.1-1-0.6-0.9-1.2c0.1-0.6,0.6-1,1.2-0.9l0,0l38,5.9c0.6,0.1,1,0.6,0.9,1.2
	C272,613.3,271.5,613.7,270.9,613.6L270.9,613.6L270.9,613.6z"/>
<path class="st1" d="M248.8,634.4c7.5,1.2,14.3-2.1,15.1-7.3l-27.3-4.2C235.8,628.1,241.2,633.3,248.8,634.4z"/>
<path class="st7" d="M262.5,529.7c-1.5-0.4-2.8-1.2-3.7-2.4c-0.2-0.3-0.5-0.6-0.7-0.9c-0.7-1.1-1.7-2-2.8-2.6
	c-2.5-1.2-5.4,0.5-8,2.2l-0.6-0.9c2.8-1.9,6.1-3.7,9-2.3c1.3,0.7,2.4,1.7,3.2,2.9l0.7,0.8c0.8,0.9,2.3,2.3,3.9,2
	c0.7-0.2,1.3-0.5,1.9-1c0.4-0.3,0.9-0.6,1.3-0.8c1.9-0.9,4.2-0.6,5.8,0.8c0.3,0.3,0.5,0.5,0.8,0.8c0.4,0.6,0.9,1,1.5,1.3
	c0.9,0.3,1.8-0.2,2.8-0.8c1-0.7,2.1-1,3.3-1h0.1c2.1,0.3,3.1,2.7,3.7,4.5l-1,0.3c-0.8-2.4-1.7-3.6-2.9-3.7c-0.9,0-1.9,0.3-2.6,0.9
	c-1.1,0.6-2.3,1.3-3.7,0.8c-0.8-0.3-1.5-0.9-2-1.6c-0.2-0.3-0.5-0.5-0.7-0.8c-1.3-1.1-3.1-1.4-4.6-0.7c-0.4,0.2-0.8,0.5-1.2,0.8
	c-0.7,0.6-1.5,1-2.3,1.2C263.3,529.8,262.9,529.8,262.5,529.7z"/>
<rect x="6.9" y="33.8" class="st8" width="540" height="225"/>
<rect x="271.9" y="248.8" class="st8" width="10" height="55"/>
<rect x="14.9" y="42.8" class="st9" width="524" height="206"/>
<rect x="833.9" y="350.8" class="st8" width="540" height="336"/>
<rect x="1098.9" y="305.8" class="st8" width="10" height="55"/>
<rect x="841.9" y="360.8" class="st9" width="524" height="318"/>
<rect x="1021.5" y="300.4" class="st7" width="451.7" height="1.1"/>
<rect x="-0.1" y="299.8" class="st8" width="1600" height="10"/>
<circle class="st8" cx="1103.9" cy="304.8" r="16"/>
<circle class="st7" cx="1103.9" cy="304.8" r="5"/>
<circle class="st8" cx="276.9" cy="304.8" r="16"/>
<circle class="st7" cx="276.9" cy="304.8" r="5"/>
<path class="st6" d="M1559.9,86.5h-59.2c-8-21.7-11.5-41.9,0-57c0-16.3,13.2-29.6,29.6-29.6l0,0c9.6,0,18.6,4.6,24.1,12.5
	c4.6,6.6,5.7,15.1,2.9,22.7C1552.5,48.5,1555.5,67,1559.9,86.5z"/>
<path class="st10" d="M1591.1,300.2L1591.1,300.2c-3.5,0-6.6-2.3-7.7-5.7l-2.4-7.9c-0.6-1.8-0.7-3.8-0.3-5.7l1.7-8.8h11.7l4.9,17.9
	c1.2,4.3-1.4,8.7-5.6,9.8c0,0,0,0,0,0C1592.6,300.1,1591.9,300.2,1591.1,300.2z"/>
<path class="st10" d="M1506.2,300.2L1506.2,300.2c3.5,0,6.6-2.3,7.7-5.7l2.4-7.9c0.6-1.8,0.7-3.8,0.3-5.7l-1.7-8.8h-11.7l-4.8,17.9
	c-1.2,4.3,1.4,8.7,5.6,9.8c0,0,0,0,0,0C1504.8,300.1,1505.5,300.2,1506.2,300.2z"/>
<path class="st3" d="M1595,273.1h-12.9L1526,166.7l-10.3,106.5h-11.4c-5.8-67.1-20.1-130.9,0-155l46.9,4.4L1595,273.1z"/>
<circle class="st2" cx="1528.7" cy="30.4" r="15.7"/>
<path class="st2" d="M1550.9,91h-35l-6-27.7c11.6-3.4,14.4-11.4,12-22l18.9-1.3c1.1,8.6,3,16.6,15.1,18L1550.9,91z"/>
<path class="st4" d="M1550.9,125.7c-19.8,7.5-36,7.3-47.3-3.2c5.1-16.8,5.4-37.4,3.2-60.2l6.3-2.8l2.2,20.2l31.2-1.6l6.9-22l6.9,1.6
	C1560.9,85,1559.2,109.6,1550.9,125.7z"/>
<path class="st2" d="M1569.1,159.7l3.7,12c1.1,3.4-0.8,7.1-4.3,8.1c-0.6,0.2-1.3,0.3-2,0.3l0,0c-3.6,0-6.5-2.9-6.5-6.5c0,0,0,0,0,0
	c0-0.2,0-0.4,0-0.7l1.4-13.9l-6-47.3L1560,91h11L1569.1,159.7z"/>
<path class="st2" d="M1480.9,157.2l-6.5,10.8c-1.9,3.1-0.9,7.1,2.1,8.9c0,0,0.1,0,0.1,0.1c0.6,0.3,1.2,0.6,1.8,0.7l0,0
	c3.5,0.9,7-1.2,7.9-4.7c0,0,0,0,0,0c0-0.2,0.1-0.4,0.1-0.7l2-13.9l17.3-44.4l3.5-21.3l-13.4-2.7L1480.9,157.2z"/>
<path class="st4" d="M1578.9,93.6l-20.8-0.3V57l3.2,0.5c7,1,12.4,6.7,13,13.7L1578.9,93.6z"/>
<path class="st4" d="M1490.1,97.3l20.8-0.3V60.8l-3.2,0.5c-7,1-12.4,6.7-13,13.7L1490.1,97.3z"/>
<path class="st6" d="M1543.2,22.8c-6.7,3.8-19.6,5.5-29,2.8L1511,9.3h31.2L1543.2,22.8z"/>
<rect x="1192.8" y="217.3" class="st1" width="102.6" height="82.7"/>
<rect x="1235.5" y="276" class="st11" width="17.4" height="23.5"/>
<polygon class="st12" points="1421.5,219.7 1424.3,212.4 1449.7,197.9 1467,194.2 "/>
<polygon class="st12" points="1327.8,219.7 1325,212.4 1299.5,197.9 1282.3,194.2 "/>
<polygon class="st12" points="1423.3,221.5 1325.9,221.5 1317.8,183.3 1431.5,183.3 "/>
<rect x="1325.5" y="219.3" class="st12" width="98.3" height="80.7"/>
<rect x="1366" y="276" class="st11" width="17.4" height="23.5"/>
<rect x="1354.2" y="235.8" class="st7" width="40.8" height="12.8"/>
<rect x="1223.4" y="235.8" class="st7" width="40.8" height="12.8"/>
<path d="M1229.1,244.1v-4.6h3v0.4h-2.6v1.7h2.2v0.4h-2.2v2.1L1229.1,244.1z"/>
<path d="M1232.9,239.4h0.4v4c0,0.1,0,0.2,0.1,0.3c0.1,0.1,0.1,0.1,0.2,0.1c0.1,0,0.2,0,0.2,0h0.2l0.1,0.4c-0.1,0-0.2,0.1-0.3,0.1
	h-0.3c-0.2,0-0.3-0.1-0.5-0.2c-0.1-0.1-0.2-0.3-0.2-0.5L1232.9,239.4z"/>
<path d="M1236.1,244.2c-0.2,0-0.5,0-0.7-0.1c-0.2-0.1-0.4-0.2-0.5-0.4c-0.3-0.3-0.5-0.8-0.5-1.2c0-0.2,0-0.5,0.1-0.7
	c0.1-0.2,0.2-0.4,0.4-0.6c0.1-0.2,0.3-0.3,0.5-0.4c0.2-0.1,0.4-0.1,0.7-0.1c0.2,0,0.5,0,0.7,0.1c0.4,0.2,0.7,0.5,0.9,0.9
	c0.1,0.2,0.1,0.4,0.1,0.7c0,0.2,0,0.4-0.1,0.7c-0.1,0.2-0.2,0.4-0.3,0.6c-0.1,0.2-0.3,0.3-0.5,0.4
	C1236.5,244.1,1236.3,244.2,1236.1,244.2z M1234.8,242.4c0,0.2,0,0.5,0.2,0.7c0.1,0.2,0.3,0.4,0.4,0.5c0.2,0.1,0.4,0.2,0.6,0.2
	c0.2,0,0.4-0.1,0.6-0.2c0.2-0.1,0.3-0.3,0.4-0.5c0.1-0.2,0.2-0.4,0.2-0.7c0-0.2-0.1-0.5-0.2-0.7c-0.1-0.2-0.3-0.4-0.4-0.5
	c-0.2-0.1-0.4-0.2-0.6-0.2c-0.2,0-0.4,0.1-0.6,0.2c-0.2,0.1-0.3,0.3-0.4,0.5C1234.9,242,1234.9,242.2,1234.8,242.4L1234.8,242.4z"/>
<path d="M1239.9,244.2c-0.2,0-0.4,0-0.6-0.1c-0.2-0.1-0.4-0.2-0.5-0.4c-0.1-0.2-0.3-0.3-0.3-0.6c-0.1-0.2-0.1-0.4-0.1-0.6
	c0-0.2,0-0.5,0.1-0.7c0.1-0.2,0.2-0.4,0.3-0.6c0.1-0.2,0.3-0.3,0.5-0.4c0.2-0.1,0.4-0.1,0.6-0.1c0.3,0,0.5,0.1,0.8,0.2
	c0.2,0.1,0.4,0.3,0.5,0.5v-0.7h0.4v3.4c0,0.3-0.1,0.6-0.2,0.8c-0.2,0.2-0.4,0.4-0.6,0.5c-0.3,0.1-0.5,0.2-0.8,0.2
	c-0.3,0-0.6-0.1-0.9-0.2c-0.2-0.1-0.4-0.3-0.6-0.6l0.3-0.2c0.1,0.2,0.3,0.4,0.5,0.5c0.2,0.1,0.5,0.2,0.7,0.1c0.2,0,0.4,0,0.6-0.1
	c0.2-0.1,0.3-0.2,0.4-0.4c0.1-0.2,0.2-0.4,0.2-0.6v-0.7c-0.1,0.2-0.3,0.4-0.5,0.5C1240.4,244.1,1240.1,244.2,1239.9,244.2z
	 M1240,243.8c0.1,0,0.3,0,0.4-0.1c0.1,0,0.2-0.1,0.3-0.2c0.1-0.1,0.2-0.2,0.3-0.3c0.1-0.1,0.1-0.2,0.1-0.3v-1
	c-0.1-0.2-0.2-0.3-0.3-0.4c-0.1-0.1-0.3-0.2-0.4-0.3c-0.1-0.1-0.3-0.1-0.5-0.1c-0.2,0-0.4,0-0.5,0.1c-0.1,0.1-0.3,0.2-0.4,0.3
	c-0.1,0.1-0.2,0.3-0.2,0.4c-0.1,0.2-0.1,0.3-0.1,0.5c0,0.2,0,0.4,0.1,0.5c0.1,0.2,0.2,0.3,0.3,0.4c0.1,0.1,0.2,0.2,0.4,0.3
	C1239.7,243.8,1239.8,243.8,1240,243.8L1240,243.8z"/>
<path d="M1242.2,243.1c0-0.2,0.1-0.4,0.2-0.5c0.1-0.2,0.3-0.3,0.5-0.4c0.2-0.1,0.5-0.1,0.7-0.1h0.5c0.2,0,0.3,0.1,0.5,0.1V242
	c0-0.3-0.1-0.5-0.2-0.7c-0.2-0.2-0.4-0.3-0.7-0.2c-0.2,0-0.4,0-0.5,0.1c-0.2,0.1-0.4,0.2-0.6,0.3l-0.2-0.3c0.2-0.1,0.4-0.3,0.6-0.3
	c0.2-0.1,0.4-0.1,0.7-0.1c0.4,0,0.7,0.1,1,0.4c0.3,0.3,0.4,0.6,0.4,1v1.6c0,0,0,0.1,0,0.1c0,0,0.1,0,0.1,0.1v0.4h-0.2
	c-0.1,0-0.2,0-0.2-0.1c-0.1-0.1-0.1-0.1-0.1-0.2v-0.2c-0.2,0.2-0.4,0.4-0.6,0.4c-0.2,0.1-0.5,0.2-0.7,0.2c-0.2,0-0.4,0-0.6-0.1
	C1242.4,243.8,1242.2,243.5,1242.2,243.1L1242.2,243.1z M1244.5,243.4c0-0.1,0.1-0.1,0.1-0.2c0,0,0-0.1,0-0.1v-0.5
	c-0.1-0.1-0.3-0.1-0.5-0.1c-0.2,0-0.3,0-0.5,0c-0.3,0-0.5,0.1-0.8,0.2c-0.2,0.1-0.3,0.3-0.3,0.5c0,0.1,0,0.2,0.1,0.4
	c0.1,0.1,0.2,0.2,0.3,0.3c0.1,0.1,0.3,0.1,0.4,0.1c0.2,0,0.4,0,0.6-0.1C1244.2,243.7,1244.4,243.6,1244.5,243.4L1244.5,243.4z"/>
<path d="M1247.6,244l-0.2,0.1c-0.1,0-0.2,0.1-0.3,0.1c-0.1,0-0.2,0-0.3,0c-0.1,0-0.2,0-0.3-0.1c-0.1,0-0.2-0.1-0.3-0.2
	c-0.1-0.1-0.1-0.2-0.1-0.4v-2.4h-0.5v-0.4h0.5v-1.1h0.4v1.1h0.8v0.4h-0.8v2.3c0,0.1,0.1,0.2,0.1,0.3c0.1,0.1,0.2,0.1,0.3,0.1
	c0.1,0,0.2,0,0.3-0.1c0.1,0,0.1-0.1,0.2-0.1L1247.6,244z"/>
<path class="st13" d="M1249.6,244.2c-0.2,0-0.5,0-0.7-0.1c-0.2-0.1-0.4-0.2-0.5-0.4c-0.2-0.2-0.3-0.4-0.3-0.6
	c-0.2-0.5-0.2-1.1,0.1-1.5c0.3-0.5,0.9-0.9,1.5-0.9c0.3,0,0.6,0.1,0.9,0.2c0.5,0.3,0.8,0.9,0.8,1.5v0.1c0,0,0,0.1,0,0.1h-2.9
	c0,0.2,0.1,0.4,0.2,0.6c0.1,0.2,0.3,0.3,0.4,0.4c0.2,0.1,0.4,0.2,0.6,0.2c0.2,0,0.4-0.1,0.6-0.2c0.2-0.1,0.3-0.3,0.4-0.4l0.4,0.1
	c-0.1,0.2-0.2,0.3-0.3,0.4c-0.1,0.1-0.3,0.2-0.5,0.3C1250,244.1,1249.8,244.2,1249.6,244.2z M1248.3,242.3h2.5
	c0-0.2-0.1-0.4-0.2-0.6c-0.1-0.2-0.3-0.3-0.4-0.4c-0.2-0.1-0.4-0.2-0.6-0.2c-0.2,0-0.4,0.1-0.6,0.2c-0.2,0.1-0.3,0.3-0.4,0.4
	C1248.4,241.8,1248.3,242,1248.3,242.3L1248.3,242.3z"/>
<path d="M1251.7,243.1c0-0.2,0.1-0.4,0.2-0.5c0.1-0.2,0.3-0.3,0.5-0.4c0.2-0.1,0.5-0.1,0.7-0.1h0.5c0.2,0,0.3,0.1,0.5,0.1V242
	c0-0.2-0.1-0.5-0.2-0.7c-0.2-0.2-0.4-0.3-0.7-0.2c-0.2,0-0.4,0-0.5,0.1c-0.2,0.1-0.4,0.2-0.6,0.3l-0.2-0.3c0.2-0.1,0.4-0.3,0.7-0.3
	c0.2-0.1,0.4-0.1,0.7-0.1c0.4,0,0.7,0.1,1,0.4c0.3,0.3,0.4,0.6,0.4,1v1.6c0,0,0,0.1,0,0.1c0,0,0.1,0,0.1,0.1v0.4h-0.2
	c-0.1,0-0.2,0-0.2-0.1c0-0.1-0.1-0.1-0.1-0.2v-0.2c-0.2,0.2-0.4,0.4-0.6,0.4c-0.2,0.1-0.5,0.2-0.7,0.2c-0.2,0-0.4,0-0.6-0.1
	c-0.2-0.1-0.3-0.2-0.4-0.4C1251.7,243.5,1251.7,243.3,1251.7,243.1z M1253.9,243.4c0-0.1,0.1-0.1,0.1-0.2c0,0,0-0.1,0-0.1v-0.5
	c-0.1-0.1-0.3-0.1-0.5-0.1c-0.2,0-0.3,0-0.5,0c-0.3,0-0.5,0.1-0.8,0.2c-0.2,0.1-0.3,0.3-0.3,0.5c0,0.1,0,0.2,0.1,0.4
	c0.1,0.1,0.2,0.2,0.3,0.3c0.1,0.1,0.3,0.1,0.4,0.1c0.2,0,0.4,0,0.6-0.1C1253.6,243.7,1253.8,243.6,1253.9,243.4L1253.9,243.4z"/>
<path d="M1255.4,242.7v-2h0.4v1.9c0,0.3,0.1,0.6,0.2,0.9c0.1,0.2,0.4,0.3,0.6,0.3c0.2,0,0.3,0,0.5-0.1c0.2-0.1,0.3-0.2,0.4-0.3
	c0.1-0.1,0.2-0.3,0.3-0.5v-2.1h0.4v2.8c0,0,0,0.1,0,0.1c0,0,0.1,0,0.1,0.1v0.4h-0.2c-0.1,0-0.2,0-0.2-0.1c-0.1-0.1-0.1-0.1-0.1-0.2
	v-0.5c-0.3,0.5-0.8,0.8-1.4,0.8c-0.3,0-0.6-0.1-0.8-0.4C1255.5,243.5,1255.4,243.1,1255.4,242.7z"/>
<path d="M1359.1,244.9v-4.6h3v0.4h-2.6v1.7h2.2v0.4h-2.2v2.1L1359.1,244.9z"/>
<path d="M1362.9,240.2h0.4v4c0,0.1,0,0.2,0.1,0.3c0.1,0.1,0.1,0.1,0.2,0.1h0.2l0.2-0.1l0.1,0.4c-0.1,0-0.2,0.1-0.3,0.1
	c-0.1,0-0.2,0-0.3,0c-0.3,0-0.6-0.2-0.7-0.6c0,0,0-0.1,0-0.1L1362.9,240.2z"/>
<path d="M1366.1,245c-0.2,0-0.5,0-0.7-0.1c-0.2-0.1-0.4-0.2-0.5-0.4c-0.1-0.2-0.3-0.4-0.3-0.6c-0.1-0.2-0.1-0.4-0.1-0.7
	c0-0.5,0.2-0.9,0.5-1.2c0.2-0.2,0.3-0.3,0.5-0.4c0.2-0.1,0.4-0.1,0.7-0.1c0.2,0,0.5,0,0.7,0.1c0.4,0.2,0.7,0.5,0.9,0.9
	c0.1,0.2,0.1,0.4,0.1,0.7c0,0.2,0,0.4-0.1,0.7c-0.1,0.2-0.2,0.4-0.3,0.6c-0.1,0.2-0.3,0.3-0.5,0.4C1366.5,245,1366.3,245,1366.1,245
	z M1364.9,243.3c0,0.2,0.1,0.5,0.2,0.7c0.1,0.2,0.3,0.4,0.4,0.5c0.2,0.1,0.4,0.2,0.6,0.2c0.2,0,0.4-0.1,0.6-0.2
	c0.2-0.1,0.3-0.3,0.4-0.5c0.1-0.2,0.2-0.4,0.2-0.7c0-0.2-0.1-0.5-0.2-0.7c-0.1-0.2-0.3-0.4-0.4-0.5c-0.2-0.1-0.4-0.2-0.6-0.2
	c-0.2,0-0.4,0.1-0.6,0.2c-0.2,0.1-0.3,0.3-0.4,0.5C1364.9,242.8,1364.9,243,1364.9,243.3L1364.9,243.3z"/>
<path class="st13" d="M1369.9,245c-0.2,0-0.4,0-0.6-0.1c-0.2-0.1-0.4-0.2-0.5-0.4c-0.1-0.2-0.3-0.4-0.3-0.6
	c-0.1-0.2-0.1-0.4-0.1-0.6c0-0.2,0-0.5,0.1-0.7c0.1-0.2,0.2-0.4,0.3-0.6c0.1-0.2,0.3-0.3,0.5-0.4c0.2-0.1,0.4-0.1,0.6-0.1
	c0.3,0,0.5,0.1,0.8,0.2c0.2,0.1,0.4,0.3,0.5,0.5v-0.7h0.4v3.4c0,0.6-0.3,1.1-0.8,1.3c-0.3,0.1-0.5,0.2-0.8,0.2
	c-0.3,0-0.6-0.1-0.9-0.2c-0.2-0.1-0.4-0.3-0.6-0.6l0.3-0.2c0.1,0.2,0.3,0.4,0.5,0.5c0.2,0.1,0.5,0.2,0.7,0.2c0.2,0,0.4,0,0.6-0.1
	c0.2-0.1,0.3-0.2,0.4-0.4c0.1-0.2,0.2-0.4,0.2-0.6v-0.7C1370.9,244.7,1370.4,245,1369.9,245L1369.9,245z M1370,244.6
	c0.1,0,0.3,0,0.4-0.1c0.1-0.1,0.2-0.1,0.3-0.2c0.1-0.1,0.2-0.2,0.3-0.3c0.1-0.1,0.1-0.2,0.1-0.3v-1c-0.1-0.2-0.2-0.3-0.3-0.4
	c-0.1-0.1-0.3-0.2-0.4-0.3c-0.2-0.1-0.3-0.1-0.5-0.1c-0.2,0-0.4,0-0.5,0.1c-0.1,0.1-0.3,0.2-0.4,0.3c-0.2,0.3-0.3,0.6-0.3,0.9
	c0,0.2,0,0.3,0.1,0.5c0.1,0.2,0.2,0.3,0.3,0.4c0.1,0.1,0.2,0.2,0.4,0.3C1369.7,244.6,1369.8,244.6,1370,244.6L1370,244.6z"/>
<path d="M1372.2,244c0-0.2,0.1-0.4,0.2-0.6c0.1-0.2,0.3-0.3,0.5-0.4c0.2-0.1,0.5-0.1,0.7-0.1c0.2,0,0.3,0,0.5,0
	c0.2,0,0.3,0.1,0.5,0.1v-0.2c0-0.2-0.1-0.5-0.2-0.7c-0.2-0.2-0.4-0.3-0.7-0.3c-0.2,0-0.4,0-0.5,0.1c-0.2,0.1-0.4,0.2-0.6,0.3
	l-0.2-0.3c0.2-0.1,0.4-0.3,0.6-0.3c0.2-0.1,0.4-0.1,0.7-0.1c0.4,0,0.7,0.1,1,0.4c0.3,0.3,0.4,0.6,0.4,1v1.6c0,0.1,0,0.1,0,0.1
	c0,0,0.1,0,0.1,0.1v0.4h-0.1c0,0-0.1,0-0.1,0c-0.1,0-0.2,0-0.2-0.1c-0.1-0.1-0.1-0.1-0.1-0.2v-0.2c-0.2,0.2-0.4,0.3-0.6,0.4
	c-0.2,0.1-0.5,0.2-0.7,0.2c-0.2,0-0.4,0-0.6-0.1c-0.2-0.1-0.3-0.2-0.4-0.4C1372.3,244.3,1372.2,244.2,1372.2,244z M1374.5,244.2
	c0-0.1,0.1-0.1,0.1-0.2c0,0,0-0.1,0-0.1v-0.5c-0.2-0.1-0.3-0.1-0.5-0.1c-0.2,0-0.3,0-0.5,0c-0.3,0-0.5,0.1-0.8,0.2
	c-0.2,0.1-0.3,0.3-0.3,0.5c0,0.1,0,0.2,0.1,0.4c0.1,0.1,0.2,0.2,0.3,0.3c0.1,0.1,0.3,0.1,0.4,0.1c0.2,0,0.4,0,0.6-0.1
	C1374.2,244.5,1374.4,244.4,1374.5,244.2z"/>
<path d="M1377.6,244.8l-0.2,0.1l-0.3,0.1c-0.1,0-0.2,0-0.3,0c-0.1,0-0.2,0-0.3-0.1c-0.1,0-0.2-0.1-0.3-0.2c-0.1-0.1-0.1-0.2-0.1-0.4
	v-2.4h-0.5v-0.4h0.5v-1.1h0.4v1.1h0.8v0.4h-0.8v2.3c0,0.1,0,0.2,0.1,0.3c0.1,0.1,0.2,0.1,0.3,0.1c0.1,0,0.2,0,0.3-0.1
	c0.1,0,0.1-0.1,0.2-0.1L1377.6,244.8z"/>
<path d="M1379.6,245c-0.2,0-0.5,0-0.7-0.1c-0.2-0.1-0.4-0.2-0.5-0.4c-0.3-0.3-0.5-0.8-0.5-1.2c0-0.3,0.1-0.6,0.2-0.9
	c0.1-0.3,0.3-0.5,0.6-0.6c0.3-0.2,0.6-0.2,0.9-0.2c0.3,0,0.6,0.1,0.9,0.2c0.5,0.3,0.8,0.9,0.8,1.5v0.1c0,0,0,0.1,0,0.1h-2.9
	c0,0.2,0.1,0.4,0.2,0.6c0.1,0.2,0.3,0.3,0.4,0.4c0.2,0.1,0.4,0.2,0.6,0.2c0.2,0,0.4-0.1,0.6-0.2c0.2-0.1,0.3-0.3,0.4-0.4l0.4,0.1
	c-0.1,0.2-0.2,0.3-0.3,0.4c-0.1,0.1-0.3,0.2-0.5,0.3C1380,245,1379.8,245,1379.6,245z M1378.3,243.1h2.5c0-0.2-0.1-0.4-0.2-0.6
	c-0.1-0.2-0.3-0.3-0.4-0.4c-0.2-0.1-0.4-0.2-0.6-0.2c-0.2,0-0.4,0.1-0.6,0.2c-0.2,0.1-0.3,0.3-0.4,0.4
	C1378.4,242.6,1378.4,242.9,1378.3,243.1z"/>
<path d="M1381.7,244c0-0.2,0.1-0.4,0.2-0.6c0.1-0.2,0.3-0.3,0.5-0.4c0.2-0.1,0.5-0.1,0.7-0.1c0.2,0,0.3,0,0.5,0
	c0.2,0,0.3,0.1,0.5,0.1v-0.2c0-0.2-0.1-0.5-0.3-0.7c-0.2-0.2-0.4-0.3-0.7-0.3c-0.2,0-0.4,0-0.5,0.1c-0.2,0.1-0.4,0.2-0.6,0.3
	l-0.2-0.3c0.2-0.1,0.4-0.3,0.7-0.3c0.2-0.1,0.4-0.1,0.7-0.1c0.4,0,0.7,0.1,1,0.4c0.3,0.3,0.4,0.6,0.4,1v1.6c0,0.1,0,0.1,0,0.1
	c0,0,0.1,0.1,0.1,0.1v0.4h-0.1c0,0-0.1,0-0.1,0c-0.1,0-0.2,0-0.2-0.1c0-0.1-0.1-0.1-0.1-0.2v-0.2c-0.2,0.2-0.4,0.3-0.6,0.4
	c-0.2,0.1-0.5,0.2-0.7,0.2c-0.2,0-0.4,0-0.6-0.1c-0.2-0.1-0.3-0.2-0.4-0.4C1381.7,244.4,1381.6,244.2,1381.7,244z M1383.9,244.2
	c0-0.1,0.1-0.1,0.1-0.2c0,0,0-0.1,0-0.1v-0.5c-0.2-0.1-0.3-0.1-0.5-0.1c-0.2,0-0.3,0-0.5,0c-0.3,0-0.5,0.1-0.8,0.2
	c-0.2,0.1-0.3,0.3-0.3,0.5c0,0.1,0,0.2,0.1,0.4c0.1,0.1,0.2,0.2,0.3,0.3c0.1,0.1,0.3,0.1,0.4,0.1c0.2,0,0.4,0,0.6-0.1
	C1383.6,244.5,1383.8,244.4,1383.9,244.2L1383.9,244.2z"/>
<path d="M1385.4,243.5v-2h0.4v1.9c0,0.3,0.1,0.6,0.2,0.9c0.1,0.2,0.4,0.3,0.6,0.3c0.2,0,0.3,0,0.5-0.1c0.2-0.1,0.3-0.2,0.4-0.3
	c0.1-0.1,0.2-0.3,0.3-0.5v-2.1h0.4v2.8c0,0,0,0.1,0,0.1c0,0,0.1,0,0.1,0.1v0.4h-0.2c-0.1,0-0.2,0-0.2-0.1c-0.1-0.1-0.1-0.1-0.1-0.2
	v-0.4c-0.1,0.3-0.4,0.5-0.6,0.6c-0.3,0.1-0.5,0.2-0.8,0.2c-0.3,0-0.6-0.1-0.8-0.4C1385.5,244.3,1385.4,243.9,1385.4,243.5z"/>
</svg>
