<svg xmlns="http://www.w3.org/2000/svg" viewBox="0 0 402.3 405.75"><defs><style>.cls-1,.cls-8{fill:#bca04a;}.cls-1{opacity:0.5;}.cls-2{fill:#3f3f3f;}.cls-3{fill:#fff;}.cls-4{fill:#ffb8b8;}.cls-5{fill:#3f3d56;}.cls-6{fill:#b2dacd;}.cls-7{fill:#e6e6e6;}.cls-9{fill:#2f2e41;}.cls-10{fill:#c1aea7;}.cls-11{fill:#bba247;}</style></defs><g id="Layer_2" data-name="Layer 2"><g id="Layer_7" data-name="Layer 7"><g id="img"><path class="cls-1" d="M356.28,335.54A357.58,357.58,0,0,1,326,402.11c-.29.49-.58,1-.86,1.44l-31.45-9.95.58-1.52C306.91,359.27,383.45,159.38,380,120,380.39,123.22,392.37,230,356.28,335.54Z"/><path class="cls-1" d="M332,402.89c-.43.44-.87.29-1.31.72l-23.6-5.73,1.12-1.36c7-8.53,27.77-34.08,48-61,21.8-28.89,43.05-59.31,46-71.81C401.7,266.58,383.09,352,332,402.89Z"/><path class="cls-2" d="M343.81,71.22h0V20.65A20.64,20.64,0,0,0,323.16,0H164.79a20.64,20.64,0,0,0-20.65,20.65h0V46.58a1.67,1.67,0,0,0-1.64,1.67V61.09a1.67,1.67,0,0,0,1.64,1.67V76.21h-.08a1.68,1.68,0,0,0-1.68,1.68h0v24.84a1.67,1.67,0,0,0,1.67,1.67h.09v9.83h0a1.68,1.68,0,0,0-1.68,1.68h0V141a1.67,1.67,0,0,0,1.67,1.67h0v242.4a20.64,20.64,0,0,0,20.65,20.64H323.14a20.64,20.64,0,0,0,20.64-20.64h0V120.41h0a3,3,0,0,0,3-3h0V74.21A3,3,0,0,0,343.81,71.22Z"/><path class="cls-3" d="M331.45,26.43V379.32a15.85,15.85,0,0,1-15.85,15.85H172.32a15.86,15.86,0,0,1-15.85-15.85V26.43a15.86,15.86,0,0,1,15.85-15.86h21.44v2.78a13.08,13.08,0,0,0,13.06,13.06h72.89a13,13,0,0,0,13-13.06V10.6h22.86A15.85,15.85,0,0,1,331.45,26.43Z"/><path class="cls-4" d="M99.13,198a6.22,6.22,0,0,0-8,3.55,6.74,6.74,0,0,0-.31,1.06L39.73,230.39l9,10.1,47.44-30.43a6.25,6.25,0,0,0,3-12Z"/><polygon class="cls-4" points="86.1 397.75 92.47 393.64 79.62 367.14 73.01 372.04 86.1 397.75"/><path class="cls-2" d="M108.56,391.61l-20,12.94h0l-5-7.73h0l12.55-8.1a8.86,8.86,0,0,1,12.25,2.62h0l.19.29Z"/><polygon class="cls-4" points="14.72 398.71 22.3 398.71 25.9 369.49 14.72 369.49 14.72 398.71"/><path class="cls-2" d="M36.91,405.75H13.1v-9.21h15a8.86,8.86,0,0,1,8.85,8.86h0Z"/><path class="cls-5" d="M188.56,57.27H172.94a1.45,1.45,0,1,1,0-2.89h15.62a1.45,1.45,0,0,1,0,2.89Z"/><path class="cls-5" d="M188.56,61.32H172.94a1.45,1.45,0,1,1,0-2.89h15.62a1.45,1.45,0,0,1,0,2.89Z"/><path class="cls-5" d="M188.56,65.37H172.94a1.45,1.45,0,1,1,0-2.89h15.62a1.45,1.45,0,0,1,0,2.89Z"/><path class="cls-5" d="M309.63,61.32h-.52l-.21-.17a4.36,4.36,0,0,0,1-2.82,4.3,4.3,0,1,0-4.28,4.32,4.44,4.44,0,0,0,2.83-1l.19.17v.53L312,65.65l1-1Zm-4,0a3,3,0,1,1,3-3h0a3,3,0,0,1-2.95,3h0Z"/><path class="cls-6" d="M220.38,110.5H192.32a6.37,6.37,0,1,1,0-12.73h28.06a6.37,6.37,0,0,1,0,12.73Z"/><path class="cls-7" d="M306.28,124.38H189.42a3.47,3.47,0,0,1,0-6.94H306.28a3.47,3.47,0,1,1,0,6.94Z"/><path class="cls-7" d="M232.35,138.26H189.42a3.47,3.47,0,0,1,0-6.94h42.93a3.47,3.47,0,0,1,0,6.94Z"/><path class="cls-6" d="M220.38,264.38H192.32a6.37,6.37,0,1,1,0-12.73h28.06a6.37,6.37,0,0,1,0,12.73Z"/><path class="cls-7" d="M306.28,278.26H189.42a3.47,3.47,0,0,1,0-6.94H306.28a3.47,3.47,0,0,1,0,6.94Z"/><path class="cls-7" d="M232.35,292.15H189.42a3.48,3.48,0,0,1,0-6.95h42.93a3.48,3.48,0,0,1,0,6.95Z"/><path class="cls-6" d="M220.38,335.54H192.32a6.37,6.37,0,1,1,0-12.73h28.06a6.37,6.37,0,0,1,0,12.73Z"/><path class="cls-7" d="M306.28,349.42H189.42a3.47,3.47,0,0,1,0-6.94H306.28a3.47,3.47,0,1,1,0,6.94Z"/><path class="cls-7" d="M232.35,363.3H189.42a3.47,3.47,0,1,1,0-6.94h42.93a3.47,3.47,0,0,1,0,6.94Z"/><path class="cls-8" d="M322.77,228.22H99.47a4.93,4.93,0,0,1-4.92-4.92V162.56a4.94,4.94,0,0,1,4.92-4.92h223.3a4.93,4.93,0,0,1,4.92,4.92V223.3A4.94,4.94,0,0,1,322.77,228.22Z"/><path class="cls-9" d="M19.19,301.64c2.13,15-9.17,95.22-7.92,95.22l16.24-.09c.57-1.11,8-50.8,10.36-56.54,3.27-8,6.56-16.05,7.84-24.56,1.21-8,.61-16.14-.17-24.19a1.52,1.52,0,0,0-1.28-1.73,1.35,1.35,0,0,0-.49,0L22,288.62c-4.49-.23-5.55-1.22-4.87,3.19C17.59,295.1,18.71,298.31,19.19,301.64Z"/><path class="cls-9" d="M26.36,264.07c-4.43,6.36-9.06,13.68-7.6,21.3,1.12,5.79,5.53,10.27,9.69,14.47,20.83,14.35,52.88,99,52.88,99,15.82-10.13-.38.29,15.68-10.42-1.43-.11-37.23-125-39.92-125.17C46.29,262.57,36.92,261.51,26.36,264.07Z"/><path class="cls-10" d="M41,203.5c-2.24-2-18-8.19-18-8.19a2.54,2.54,0,0,0-.87,0,1.87,1.87,0,0,0-1.12,2.24c.19.91-1.38,15.76-1.79,22.51-.71,11.78,6.23,38.47,6.17,39.28a12.25,12.25,0,0,1-3.59,7.69c.53.67,34.86,2,37.19,2.81.47-.57-2.66-42.93-2.8-45.32C55.88,220.92,43.94,206.25,41,203.5Z"/><path class="cls-4" d="M16.49,295.36a6.22,6.22,0,0,0,2.8-8.33h0a7,7,0,0,0-.58-.94L33.2,206l-13.52-.19L9.62,285a6.25,6.25,0,0,0,6.87,10.34Z"/><path class="cls-10" d="M16.38,211.89a2.57,2.57,0,0,1-1.6-.42c-.81-.68,5.75-11.22,7-11.38a33.2,33.2,0,0,1,12.65.5c4.09,1.14,7.93,3.73,9.76,7.56.77,1.6-4.77,9.64-7.29,8.46C33.94,215.21,20.34,212,16.38,211.89Z"/><circle class="cls-4" cx="31.26" cy="179.27" r="15.18"/><path class="cls-11" d="M16.35,216.51c6.91,1.07,13.21-16.47,13.94-23.44a12.8,12.8,0,0,0-.58-5.32c-.61-1.82-1.61-3.47-2.17-5.32s-.58-4,.66-5.46c2.4-2.9,7-1.07,10.73-1.64,3.94-.61,6.94-4.39,7.28-8.37s-1.73-6.18-4.84-8.71-7.07-2.61-11-3c-15.75-.14-23.49,7.49-25.11,23.9C4.75,183.9.8,191,2.58,195.45c0,0,2.73,10-1.89,17.5S16.35,216.51,16.35,216.51Z"/><path class="cls-3" d="M178.88,185.41H140.09c-2.46,0-4.47-2.86-4.47-6.37s2-6.36,4.47-6.36h38.79c2.47,0,4.47,2.86,4.47,6.36S181.35,185.41,178.88,185.41Z"/><path class="cls-7" d="M283.14,199.29h-144a3.47,3.47,0,0,1,0-6.94h144a3.47,3.47,0,1,1,0,6.94Z"/><path class="cls-7" d="M209.21,213.17H139.09a3.47,3.47,0,0,1,0-6.94h70.12a3.47,3.47,0,0,1,0,6.94Z"/></g></g></g></svg>