<svg xmlns="http://www.w3.org/2000/svg" viewBox="0 0 695.39 701.37"><defs><style>.cls-1{fill:#e4dbcc;}.cls-2{fill:#3f3f3f;}.cls-3{fill:#fff;}.cls-4{fill:#ffb8b8;}.cls-5{fill:#3f3d56;}.cls-6{fill:#b2dacd;}.cls-7{fill:#e6e6e6;}.cls-8{fill:#c1aea7;}.cls-9{fill:#2f2e41;}.cls-10{fill:#bba247;}</style></defs><g id="Layer_2" data-name="Layer 2"><g id="Layer_1-2" data-name="Layer 1"><path class="cls-1" d="M615.84,580c-13.32,39-30.47,78-52.43,115.08-.49.84-1,1.66-1.48,2.49l-54.36-17.2,1-2.63c21.93-56.71,154.23-402.24,148.29-470.36C657.52,213,678.22,397.53,615.84,580Z"/><path class="cls-1" d="M573.9,696.43c-.74.76-1.5.5-2.26,1.24l-40.79-9.91c.56-.66,1.2-1.45,1.94-2.34,12.08-14.75,48-58.92,83.05-105.39,37.69-49.94,74.41-102.53,79.55-124.14C694.36,460.8,662.18,608.4,573.9,696.43Z"/><path class="cls-2" d="M594.29,123.11h0V35.69A35.69,35.69,0,0,0,558.55,0H284.83a35.69,35.69,0,0,0-35.69,35.69V80.51a2.89,2.89,0,0,0-2.83,2.89v22.2a2.9,2.9,0,0,0,2.83,2.89v23.25H249a2.9,2.9,0,0,0-2.9,2.9h0v42.93a2.89,2.89,0,0,0,2.9,2.89h.14v17h0a2.9,2.9,0,0,0-2.9,2.9h0v43.35a2.89,2.89,0,0,0,2.9,2.89h0v419a35.69,35.69,0,0,0,35.69,35.69H558.55a35.69,35.69,0,0,0,35.69-35.69V208.13h0a5.14,5.14,0,0,0,5.15-5.15h0V128.27A5.15,5.15,0,0,0,594.29,123.11Z"/><path class="cls-3" d="M572.93,45.68v610a27.41,27.41,0,0,1-27.41,27.4H297.86a27.42,27.42,0,0,1-27.41-27.4v-610a27.41,27.41,0,0,1,27.41-27.41h37.06v4.81a22.59,22.59,0,0,0,22.57,22.57h126A22.57,22.57,0,0,0,506,23.08V18.32h39.51A27.4,27.4,0,0,1,572.93,45.68Z"/><path class="cls-4" d="M171.33,342.28a10.74,10.74,0,0,0-13.89,6.14,10.53,10.53,0,0,0-.53,1.82l-88.25,48,15.51,17.46,82-52.6a10.8,10.8,0,0,0,5.2-20.81Z"/><polygon class="cls-4" points="148.82 687.55 159.82 680.44 137.62 634.63 126.19 643.1 148.82 687.55"/><path class="cls-2" d="M187.64,676.93l-34.57,22.36h0l-8.63-13.36h0l21.7-14a15.31,15.31,0,0,1,21.17,4.54h0l.33.5Z"/><polygon class="cls-4" points="25.43 689.21 38.53 689.21 44.76 638.69 25.43 638.69 25.43 689.21"/><path class="cls-2" d="M63.79,701.37H22.63V685.46H48.48a15.32,15.32,0,0,1,15.31,15.31h0v.6Z"/><path class="cls-5" d="M325.92,99h-27a2.5,2.5,0,0,1,0-5h27a2.5,2.5,0,0,1,0,5Z"/><path class="cls-5" d="M325.92,106h-27a2.5,2.5,0,0,1,0-5h27a2.5,2.5,0,0,1,0,5Z"/><path class="cls-5" d="M325.92,113h-27a2.5,2.5,0,0,1,0-5h27a2.5,2.5,0,0,1,0,5Z"/><path class="cls-5" d="M535.21,106h-.91l-.35-.29a7.6,7.6,0,0,0,1.78-4.89,7.44,7.44,0,1,0-7.4,7.48,7.69,7.69,0,0,0,4.88-1.78l.34.29v.92l5.74,5.75L541,111.8Zm-6.88,0a5.18,5.18,0,1,1,5.16-5.2h0v0a5.14,5.14,0,0,1-5.12,5.18h0Z"/><path class="cls-6" d="M380.93,191H332.42a11,11,0,0,1,0-22h48.51a11,11,0,1,1,0,22Z"/><path class="cls-7" d="M529.42,215h-202a6,6,0,0,1,0-12h202a6,6,0,0,1,0,12Z"/><path class="cls-7" d="M401.62,239h-74.2a6,6,0,0,1,0-12h74.2a6,6,0,0,1,0,12Z"/><path class="cls-6" d="M380.93,457H332.42a11,11,0,0,1,0-22h48.51a11,11,0,1,1,0,22Z"/><path class="cls-7" d="M529.42,481h-202a6,6,0,0,1,0-12h202a6,6,0,0,1,0,12Z"/><path class="cls-7" d="M401.62,505h-74.2a6,6,0,0,1,0-12h74.2a6,6,0,0,1,0,12Z"/><path class="cls-6" d="M380.93,580H332.42a11,11,0,0,1,0-22h48.51a11,11,0,1,1,0,22Z"/><path class="cls-7" d="M529.42,604h-202a6,6,0,0,1,0-12h202a6,6,0,0,1,0,12Z"/><path class="cls-7" d="M401.62,628h-74.2a6,6,0,0,1,0-12h74.2a6,6,0,0,1,0,12Z"/><path class="cls-8" d="M557.92,394.49h-386a8.51,8.51,0,0,1-8.5-8.5V281a8.52,8.52,0,0,1,8.5-8.5h386a8.51,8.51,0,0,1,8.5,8.5V386A8.51,8.51,0,0,1,557.92,394.49Z"/><path class="cls-9" d="M33.15,521.41C36.84,547.3,17.3,686,19.47,686l28.06-.15c1-1.92,13.88-87.81,17.92-97.74,5.64-13.78,11.33-27.73,13.55-42.45,2.09-13.82,1.06-27.9-.3-41.81a2.64,2.64,0,0,0-2.21-3,2.69,2.69,0,0,0-.85,0L38,498.9c-7.76-.4-9.6-2.1-8.42,5.52C30.39,510.11,32.33,515.65,33.15,521.41Z"/><path class="cls-9" d="M45.55,456.46c-7.65,11-15.67,23.66-13.13,36.83,1.93,10,9.55,17.75,16.74,25,36,24.81,91.41,171.2,91.41,171.2,27.35-17.5-.65.5,27.1-18-2.46-.19-64.35-216.1-69-216.37C80,453.88,63.8,452.05,45.55,456.46Z"/><path class="cls-8" d="M70.81,351.76c-3.88-3.46-31.19-14.15-31.19-14.15a4.51,4.51,0,0,0-1.51.05c-1.55.39-2.26,2.32-1.93,3.88s-2.39,27.23-3.09,38.9c-1.23,20.36,10.76,66.5,10.66,67.91a21.14,21.14,0,0,1-6.21,13.29c.93,1.16,60.26,3.49,64.3,4.86.81-1-4.6-74.21-4.84-78.35C96.58,381.88,75.94,356.52,70.81,351.76Z"/><path class="cls-4" d="M28.49,510.55a10.74,10.74,0,0,0,4.84-14.4,12.09,12.09,0,0,0-1-1.62L57.37,356,34,355.68l-17.39,137a10.8,10.8,0,0,0,11.87,17.87Z"/><path class="cls-8" d="M28.29,366.27a4.44,4.44,0,0,1-2.76-.72c-1.39-1.19,9.95-19.4,12.19-19.67,7.29-.84,14.79-1.12,21.86.85s13.72,6.45,16.88,13.08c1.32,2.76-8.25,16.65-12.6,14.61C58.65,372,35.15,366.44,28.29,366.27Z"/><circle class="cls-4" cx="54.02" cy="309.88" r="26.24"/><path class="cls-10" d="M28.25,374.26c11.94,1.84,22.83-28.48,24.09-40.52a22.08,22.08,0,0,0-1-9.2c-1.05-3.14-2.79-6-3.75-9.19s-1-6.91,1.14-9.45c4.15-5,12.15-1.84,18.55-2.83,6.81-1.05,12-7.59,12.59-14.47s-3-10.68-8.38-15.05-12.21-4.52-19.08-5.2C25.19,268.1,11.81,281.3,9,309.66c-.81,8.22-7.63,20.52-4.56,28.19,0,0,4.73,17.25-3.27,30.25S28.25,374.26,28.25,374.26Z"/><path class="cls-3" d="M309.2,320.49H242.14c-4.25,0-7.72-4.93-7.72-11s3.47-11,7.72-11H309.2c4.26,0,7.72,4.94,7.72,11S313.46,320.49,309.2,320.49Z"/><path class="cls-7" d="M489.42,344.49h-249a6,6,0,1,1,0-12h249a6,6,0,1,1,0,12Z"/><path class="cls-7" d="M361.62,368.49H240.42a6,6,0,1,1,0-12h121.2a6,6,0,0,1,0,12Z"/></g></g></svg>