<svg xmlns="http://www.w3.org/2000/svg" viewBox="0 0 754.83 315.07"><defs><style>.cls-1{fill:#b2dacd;}.cls-2{fill:#e4dbcc;}.cls-3{fill:#c1aea7;}.cls-4{fill:#ffb8b8;}.cls-5{fill:#2f2e41;}.cls-6{fill:#bba247;}.cls-7{fill:#3f3d56;}.cls-8{fill:#fff;}</style></defs><g id="Layer_2" data-name="Layer 2"><g id="Layer_1-2" data-name="Layer 1"><path class="cls-1" d="M685.44,275a19.92,19.92,0,0,0,19.25-3.39c6.75-5.66,8.86-15,10.58-23.62l5.09-25.54-10.65,7.33c-7.66,5.28-15.5,10.73-20.8,18.37s-7.63,18.07-3.36,26.34"/><path class="cls-1" d="M696.73,292a14.7,14.7,0,0,0,12.79,6.6c6.48-.31,11.88-4.83,16.74-9.12l14.37-12.69-9.51-.45c-6.84-.33-13.86-.63-20.38,1.48S698.22,285,697,291.79"/><path class="cls-1" d="M555.38,245.93a39.28,39.28,0,0,1-38-6.68c-13.3-11.16-17.46-29.54-20.85-46.56q-5-25.17-10-50.34l21,14.46c15.1,10.4,30.55,21.13,41,36.19s15,35.62,6.62,51.92"/><path class="cls-2" d="M553.58,306.88c2.13-15.48,4.31-31.16,2.82-46.81-1.32-13.89-5.56-27.47-14.19-38.59a64.26,64.26,0,0,0-16.48-14.93c-1.64-1-3.16,1.57-1.52,2.6a61,61,0,0,1,24.14,29.14c5.26,13.37,6.1,27.94,5.2,42.14-.55,8.59-1.71,17.13-2.88,25.65a1.56,1.56,0,0,0,1.05,1.85,1.51,1.51,0,0,0,1.86-1.05Z"/><path class="cls-1" d="M533.11,279.49a28.94,28.94,0,0,1-25.21,13c-12.76-.61-23.39-9.52-33-18l-28.32-25,18.74-.9c13.48-.64,27.31-1.24,40.15,2.91s24.68,14.17,27,27.46"/><path class="cls-2" d="M559.59,313.78c-10.23-18.1-22.1-36.22-43.3-42.65a48.31,48.31,0,0,0-18.21-1.88c-1.93.17-1.45,3.15.48,3a44.88,44.88,0,0,1,29.06,7.69c8.2,5.58,14.58,13.33,20,21.56,3.3,5,6.27,5.28,9.23,10.53a1.91,1.91,0,0,0,2.76.77Z"/><path class="cls-3" d="M480.63,70.73,392.56,52.28,391.41,52a3.16,3.16,0,0,0-3.75,2.44,3.26,3.26,0,0,0,.27,2.08l35.35,70.71a3.17,3.17,0,0,0,2.37,1.71,3.1,3.1,0,0,0,2.76-1l24.11-25.72a1.81,1.81,0,0,1,1.35-.6,1.9,1.9,0,0,1,1.7,1l5,9.16a3.08,3.08,0,0,0,3.47,1.57h0a3.09,3.09,0,0,0,2.43-3l.87-21.22a2,2,0,0,1,.19-.77,2.09,2.09,0,0,1,.5-.61L482,76.27a3.17,3.17,0,0,0,.42-4.46,3.21,3.21,0,0,0-1.79-1.08Zm.57,4.56L467.27,86.86a3.86,3.86,0,0,0-.49.5L392.41,54.17a.68.68,0,0,0-.2-.07,1.27,1.27,0,0,0-1,2.26l61.26,44.43a3.23,3.23,0,0,0-.83.64l-24.1,25.72a1.91,1.91,0,0,1-2.69.09,2.07,2.07,0,0,1-.39-.54L389.06,56a1.91,1.91,0,0,1,.86-2.55,1.87,1.87,0,0,1,1.23-.16l1.17.25L480.37,72a1.9,1.9,0,0,1,.83,3.32Z"/><path class="cls-3" d="M480.63,70.73,392.56,52.28,391.41,52a3.16,3.16,0,0,0-3.75,2.44,3.26,3.26,0,0,0,.27,2.08l35.35,70.71a3.17,3.17,0,0,0,2.37,1.71,3.1,3.1,0,0,0,2.76-1l24.11-25.72a1.81,1.81,0,0,1,1.35-.6,1.9,1.9,0,0,1,1.7,1l5,9.16a3.08,3.08,0,0,0,3.47,1.57h0a3.09,3.09,0,0,0,2.43-3l.87-21.22a2,2,0,0,1,.19-.77,2.09,2.09,0,0,1,.5-.61L482,76.27a3.17,3.17,0,0,0,.42-4.46,3.21,3.21,0,0,0-1.79-1.08Zm.57,4.56L467.27,86.86a3.86,3.86,0,0,0-.49.5,3.32,3.32,0,0,0-.33.53,3.47,3.47,0,0,0-.23.61h0a3.73,3.73,0,0,0-.09.67l-.87,21.22a1.84,1.84,0,0,1-1.46,1.77h0a1.84,1.84,0,0,1-2.09-.93l-5-9.17a3.2,3.2,0,0,0-2.61-1.63h-.22a3.09,3.09,0,0,0-1.43.36,3.23,3.23,0,0,0-.83.64l-24.1,25.72a1.91,1.91,0,0,1-2.69.09,2.07,2.07,0,0,1-.39-.54L389.06,56a1.91,1.91,0,0,1,.86-2.55,1.87,1.87,0,0,1,1.23-.16l1.17.25L480.37,72a1.9,1.9,0,0,1,.83,3.32Z"/><path class="cls-3" d="M467.06,87.49l-.51,1.15-.33-.14h0L391.91,55.33l62.16,45.1h0l.17.13-.74,1-1.08-.79L391.16,56.36a1.27,1.27,0,0,1,1-2.26.68.68,0,0,1,.2.07l74.37,33.19Z"/><path class="cls-4" d="M704.52,315c-.76-4.15-2.81-6.43-6-9.17l-7.88-94.64-.69-8.3-2.26-33.11-29.39,6.16,3.22,31.42.06.65,1,9.32L670.36,294h0l1.53,14.89a17.09,17.09,0,0,0-1.58,2.54c-2.81,5.54-2.61-1.87.53,3.49"/><circle class="cls-4" cx="651.4" cy="60.89" r="41.6" transform="translate(147.73 478.44) rotate(-45)"/><path class="cls-3" d="M573.86,232.58a2.12,2.12,0,0,1,0,.24,7.64,7.64,0,0,0,6,6.81l62.08,13.56a7.6,7.6,0,0,0,9-5.41c.13-.49.28-1,.44-1.53h0c2.09-7.11,5.83-16.79,11.18-29,1.2-2.75,2.5-5.64,3.87-8.65.26-.56.52-1.12.77-1.68q4.26-9.26,9.51-20a50.48,50.48,0,0,0,1.3-41.17,48.41,48.41,0,0,0-2.75-5.66,50.66,50.66,0,0,0-40.07-25.5c-1.31-.11-2.62-.16-3.93-.16a50.9,50.9,0,0,0-35.1,14.25A49.68,49.68,0,0,0,583.77,148c-.16.46-.31.93-.47,1.39a188.84,188.84,0,0,0-5.61,22.6c-.85,4.54-1.53,9-2.08,13.37A276.52,276.52,0,0,0,573.86,232.58Z"/><path class="cls-5" d="M682.52,315c-3.31-10.76-7.6-10.63-12.16-20.93h0c-7.6-17-14.59-27.48-18-32.09a5.89,5.89,0,0,1-.84-5.37l1.05-3.17a7.61,7.61,0,0,0-1.24-7.14h0l-.22-.27c-27.66-31.51-75.87-14.32-76.36-14.14l-.24.09-.15.21-.49.68c-13.07,18.32-21.75,49.47-27.35,82.25"/><path class="cls-4" d="M489.68,109.21a17.59,17.59,0,0,1,.41,2.78l72.75,42,17.69-10.18,18.85,24.68-29.56,21.07a13.55,13.55,0,0,1-16.25-.4l-75-59.18a17.78,17.78,0,1,1,10.51-22.85A19.64,19.64,0,0,1,489.68,109.21Z"/><path class="cls-3" d="M564,153.32h0a7.6,7.6,0,0,0,1.31,2.62L577.69,172l5.91,7.68,5.19,6.72a7.62,7.62,0,0,0,10.69,1.38,8.39,8.39,0,0,0,.83-.75l18.84-19.56,7.78-8.08A21.17,21.17,0,0,0,601,126l-4.85,2.72-28.53,15.95A7.64,7.64,0,0,0,564,153.32Z"/><path class="cls-6" d="M742.6,111.87c-8.94-9.12-32.32-10.76-34.35-26s12.19-27.7,14.86-42.77c3.33-18.73-13-36.58-31.4-41.27S653.83,2.33,636,8.89C622,14,607.46,20.7,602.42,36.12c-2.68,8.22-.18,17.43,6.92,22.38,10.89,7.58,24.84.1,35.47-7.17l-.1.17a7.52,7.52,0,0,0,1,8.79c5.91,6.68,7.48,17,5.35,25.93-2,8.53-6.76,16-12,23.16-4.69,6.39-7.52,15.46-9.49,23.14-3.92,15.22,17.08,27.22,29.08,32.45,22,9.56,32.66,10.13,56,4.67C714.66,169.64,781.67,151.74,742.6,111.87Z"/><path class="cls-1" d="M66.93,312.89a14.76,14.76,0,0,0,5.3-12.72A11.94,11.94,0,0,0,63.36,290c-4.68-1-10,1.79-11.44,6.36-.78-8.81-1.68-18-6.36-25.5A27,27,0,0,0,26,258.37a24.23,24.23,0,0,0-21.31,8.7A22,22,0,0,0,2,289.71C4.55,295,9.27,299,14.21,302.2A78.9,78.9,0,0,0,68.2,314"/><path class="cls-2" d="M12.56,261a129.36,129.36,0,0,1,18,17.87,129.46,129.46,0,0,1,20.27,33.88c.36.89-1.09,1.28-1.45.39A128.21,128.21,0,0,0,37.67,291,128.86,128.86,0,0,0,11.5,262C10.75,261.42,11.82,260.37,12.56,261Z"/><path class="cls-1" d="M69.46,312.89a14.76,14.76,0,0,1-5.3-12.72A11.94,11.94,0,0,1,73,290c4.68-1,10,1.79,11.44,6.36.78-8.81,1.68-18,6.36-25.5a27,27,0,0,1,19.56-12.53,24.23,24.23,0,0,1,21.31,8.7,22,22,0,0,1,2.71,22.64c-2.57,5.32-7.29,9.28-12.23,12.49A78.88,78.88,0,0,1,68.2,314"/><path class="cls-2" d="M123.83,261a130.15,130.15,0,0,0-38.27,51.75c-.36.89,1.09,1.28,1.45.39A128.87,128.87,0,0,1,124.89,262c.75-.61-.32-1.66-1.06-1.06Z"/><circle class="cls-1" cx="80.31" cy="195.42" r="12.25"/><path class="cls-7" d="M58.78,313.15V243H79.32v70.12a1.78,1.78,0,0,1-1.78,1.78h-17A1.78,1.78,0,0,1,58.78,313.15Z"/><path class="cls-7" d="M5.25,241.64v-57a34.27,34.27,0,0,1,34.23-34.24h87.05v93.24H7.22A2,2,0,0,1,5.25,241.64Zm120.49-90.47H39.48A33.48,33.48,0,0,0,6,184.62v57a1.18,1.18,0,0,0,1.18,1.19H125.74Z"/><path class="cls-3" d="M80.31,201.74a7.11,7.11,0,0,1-7.11-7.11v-51A1.19,1.19,0,0,0,72,142.48H44.36a2,2,0,0,1-2-2V121.94a2,2,0,0,1,2-2H85.44a2,2,0,0,1,2,2v72.69A7.12,7.12,0,0,1,80.31,201.74Z"/><path class="cls-7" d="M129.69,149.59h0A22.48,22.48,0,0,1,152.21,172v64.91h44.25a6.7,6.7,0,0,1,6.71,6.69h-96V172A22.48,22.48,0,0,1,129.69,149.59Z"/><path class="cls-1" d="M151.85,187.44l2,.23,15.06,1.67,10,1.1.59.07L192,180.77l.48-.37,2.94-2.3,10.48-8.18.06-.58,3.72-33.62a1.75,1.75,0,0,0-1.55-1.94l-49.72-5.51a1.77,1.77,0,0,0-1.94,1.55l-2.63,23.72-1.45,13.15-1.31,11.77-.6,5.46-.18,1.58A1.76,1.76,0,0,0,151.85,187.44Z"/><path class="cls-2" d="M165.51,158l21.54,2.38,7.63.85a2.59,2.59,0,1,0,.57-5.14h0l-9.5-1.05-19.67-2.18a2.59,2.59,0,0,0-.57,5.14Z"/><path class="cls-2" d="M164.28,167.5l.17,0,25,2.77,4.18.46a2.58,2.58,0,1,0,.56-5.13h0l-6-.67-19.81-2.2-3.33-.37a2.59,2.59,0,0,0-.74,5.12Z"/><path class="cls-2" d="M175.85,146.32l5.36.6,2.36.26,3.58.39a2.58,2.58,0,0,0,.57-5.13h0l-11.3-1.25a2.58,2.58,0,1,0-.57,5.13Z"/><path class="cls-2" d="M147,182.1a2.59,2.59,0,0,0,3.12,1.9l28.53-6.9a2.6,2.6,0,0,0,1.9-3.12l0-.1a2.58,2.58,0,0,0-3.09-1.81L148.91,179A2.59,2.59,0,0,0,147,182.1Z"/><path class="cls-2" d="M149.47,189.69l10.08,1.92,21.37-5.17a2.59,2.59,0,0,0-1.22-5l-28.53,6.91a2.6,2.6,0,0,0-1.48,1A2.88,2.88,0,0,0,149.47,189.69Z"/><path class="cls-2" d="M152.76,167.63a2.59,2.59,0,0,0,3.12,1.9l11.05-2.67a2.59,2.59,0,0,0,1.42-4.11,2.57,2.57,0,0,0-2.64-.92l-11.05,2.68a2.57,2.57,0,0,0-1.9,3.12Z"/><path class="cls-7" d="M159.55,191.61l10.83,2.06,3.45.66a1.5,1.5,0,0,0,1.16-.28l2.78-2.17-1,.24-2,1.6a1,1,0,0,1-.83.2l-2.56-.49-10.82-2.06Zm32.33-11.27.11.43.48-.37Zm-32.33,11.27,10.83,2.06,3.45.66a1.5,1.5,0,0,0,1.16-.28l2.78-2.17-1,.24-2,1.6a1,1,0,0,1-.83.2l-2.56-.49-10.82-2.06Zm0,0,10.83,2.06,3.45.66a1.5,1.5,0,0,0,1.16-.28l2.78-2.17-1,.24-2,1.6a1,1,0,0,1-.83.2l-2.56-.49-10.82-2.06Zm-34.7-6.1.06,0,0,0a1.06,1.06,0,0,1,1-.31l23.58,4.49,10.08,1.92,10.83,2.06,3.45.66a1.5,1.5,0,0,0,1.16-.28l2.78-2.17-1,.24-2,1.6a1,1,0,0,1-.83.2l-2.56-.49-10.82-2.06-10.84-2.06L126,184.8a1.4,1.4,0,0,0-.61,0Zm-.56,1.05L136.5,237a1.45,1.45,0,0,0,1.75,1.07l88.4-21.4a1.45,1.45,0,0,0,1.06-1.75L215.5,164.48a1.46,1.46,0,0,0-.93-1,1.59,1.59,0,0,0-.53-.08,1.41,1.41,0,0,0-.6.16l-.24.15L206,169.34l-10.54,8.24-3.53,2.75h0l-12.95,10.1-2.14,1.68-2,1.6a1,1,0,0,1-.83.2l-2.56-.49-10.82-2.06-10.84-2.06L126,184.8a1.4,1.4,0,0,0-.61,0,1.47,1.47,0,0,0-.7.41,1.64,1.64,0,0,0-.2.26,1.45,1.45,0,0,0-.16,1.08Zm.4-.1a1,1,0,0,1,.18-.86.1.1,0,0,1,0,0l0,0a1.06,1.06,0,0,1,1-.31l23.58,4.49,10.08,1.92,10.83,2.06,3.45.66a1.5,1.5,0,0,0,1.16-.28l2.78-2.17,1.75-1.37L192,180.77l.48-.37,2.94-2.3,10.48-8.18,7.57-5.92a1.18,1.18,0,0,1,.39-.19l.12,0h.11a1.05,1.05,0,0,1,1,.79L227.31,215a1,1,0,0,1-.76,1.25h0l-88.4,21.4a1,1,0,0,1-1.25-.77Zm34.86,5.15,10.83,2.06,3.45.66a1.5,1.5,0,0,0,1.16-.28l2.78-2.17-1,.24-2,1.6a1,1,0,0,1-.83.2l-2.56-.49-10.82-2.06Zm0,0,10.83,2.06,3.45.66a1.5,1.5,0,0,0,1.16-.28l2.78-2.17-1,.24-2,1.6a1,1,0,0,1-.83.2l-2.56-.49-10.82-2.06Zm0,0,10.83,2.06,3.45.66a1.5,1.5,0,0,0,1.16-.28l2.78-2.17-1,.24-2,1.6a1,1,0,0,1-.83.2l-2.56-.49-10.82-2.06Z"/><path class="cls-3" d="M203.61,206.77a3.21,3.21,0,0,1,2.36-3.88l11.16-2.7a3.21,3.21,0,0,1,1.51,6.24l-11.16,2.7A3.21,3.21,0,0,1,203.61,206.77Z"/><circle class="cls-8" cx="80.31" cy="194.63" r="2.77"/></g></g></svg>