<svg xmlns="http://www.w3.org/2000/svg" viewBox="0 0 12.89 26.89"><defs><style>.cls-1{fill:#e4dbcc;}.cls-2{fill:#f3efe8;}</style></defs><g id="Layer_2" data-name="Layer 2"><g id="Layer_1-2" data-name="Layer 1"><path class="cls-1" d="M3.21,7.87a22,22,0,0,1,.39-4.4A4.38,4.38,0,0,1,7.64.2c1.5-.13,3-.12,4.53-.2.56,0,.74.18.72.73q0,1.92,0,3.84c0,.65-.26.85-.86.82s-1.37,0-2.06,0S8.9,5.79,8.79,6.44c0,.28,0,.59,0,.89-.07.7.23,1,.93.93s1.67,0,2.5,0c.49,0,.7.14.69.66,0,1.28,0,2.56,0,3.85,0,.57-.22.72-.74.7s-1.25,0-1.88,0c-1.72,0-1.48-.24-1.49,1.54,0,3.64,0,7.28,0,10.92,0,.8-.23,1-1,1a35.62,35.62,0,0,0-3.58,0c-.78,0-1-.17-1-1,0-3.19,0-6.39,0-9.58,0-.91-.14-1.83-.22-2.88-.78,0-1.54,0-2.3,0-.5,0-.7-.14-.69-.66,0-1.31,0-2.62,0-3.94,0-.59.25-.79.81-.77s1.37,0,2.06,0Z"/><path class="cls-2" d="M3.21,7.87l-.34.21Z"/></g></g></svg>