<svg xmlns="http://www.w3.org/2000/svg" viewBox="0 0 18.35 38.26"><defs><style>.cls-1{fill:#3f3f3f;}</style></defs><g id="Layer_2" data-name="Layer 2"><g id="Layer_1-2" data-name="Layer 1"><path class="cls-1" d="M4.57,11.2c.16-2.09,0-4.29.56-6.27A6.22,6.22,0,0,1,10.87.29C13,.1,15.17.12,17.32,0c.79,0,1,.26,1,1-.05,1.83-.05,3.65,0,5.48,0,.91-.37,1.19-1.22,1.16s-2,0-2.93,0-1.53.58-1.69,1.51c-.07.41,0,.85,0,1.27-.11,1,.33,1.37,1.32,1.32,1.19-.06,2.38,0,3.56,0,.7,0,1,.2,1,.94,0,1.83,0,3.65,0,5.48,0,.81-.32,1-1.06,1s-1.78,0-2.67,0c-2.45,0-2.12-.34-2.13,2.19,0,5.18,0,10.36,0,15.54,0,1.14-.33,1.46-1.44,1.4a48,48,0,0,0-5.09,0c-1.1.06-1.46-.25-1.44-1.4.07-4.54,0-9.09,0-13.63,0-1.3-.19-2.6-.3-4.1-1.11,0-2.2,0-3.28,0-.7,0-1-.21-1-.94q.06-2.81,0-5.61c0-.84.36-1.13,1.15-1.1,1,0,2,0,2.93,0Z"/><path class="cls-1" d="M4.57,11.2l-.49.3Z"/></g></g></svg>