<svg xmlns="http://www.w3.org/2000/svg" viewBox="0 0 547.25 436.93"><defs><style>.cls-1{fill:#3f3d56;}.cls-2{fill:#bca04a;}.cls-3{fill:#4f5d75;}.cls-4{fill:#b2dacd;}.cls-5{opacity:0.1;isolation:isolate;}.cls-6{fill:#ffb8b8;}.cls-7{fill:#2f2e41;}.cls-8{fill:#c1aea7;}</style></defs><g id="Layer_2" data-name="Layer 2"><g id="b2cac8c7-99a7-498b-9b00-d1bcd66eb524"><line class="cls-1" x1="547.25" y1="426.37" x2="547.25" y2="428.37"/><rect class="cls-2" x="312.87" y="56.59" width="45.27" height="45.27" transform="translate(5.33 178.37) rotate(-30)"/><path class="cls-3" d="M344.29,118.32,320.65,77.38l40.94-23.63,23.64,40.94Zm-20.91-40.2L345,115.59,382.5,94,360.86,56.48Z"/><circle class="cls-2" cx="307.61" cy="209.34" r="19"/><path class="cls-3" d="M321.61,229.34a20,20,0,1,1,20-20A20,20,0,0,1,321.61,229.34Zm0-38a18,18,0,1,0,18,18A18,18,0,0,0,321.61,191.34Z"/><path class="cls-1" d="M427.47,430.92h-184a8.51,8.51,0,0,1-8.5-8.5v-171a8.52,8.52,0,0,1,8.5-8.5h184a8.52,8.52,0,0,1,8.5,8.5v171A8.51,8.51,0,0,1,427.47,430.92Z"/><path class="cls-4" d="M348.47,436.93h-26a8.51,8.51,0,0,1-8.5-8.5V246.34a8.51,8.51,0,0,1,8.5-8.5h26a8.52,8.52,0,0,1,8.5,8.5V428.43A8.52,8.52,0,0,1,348.47,436.93Z"/><path class="cls-4" d="M476.36,226c-1.08,17.64-24.91,30.55-24.91,30.55s-22.08-15.7-21-33.34,24.91-30.55,24.91-30.55S477.43,208.35,476.36,226Z"/><path class="cls-4" d="M477.44,281c-17.65-1-30.62-24.8-30.62-24.8s15.63-22.14,33.27-21.12,30.62,24.81,30.62,24.81S495.08,282.05,477.44,281Z"/><polygon class="cls-5" points="435.47 263.84 435.47 329.12 370.54 243.42 420 243.42 435.47 263.84"/><path class="cls-1" d="M490.59,375.59a8.49,8.49,0,0,1-6.78-3.37L348.53,193.68a8.51,8.51,0,0,1,1.64-11.91h0l19.93-15.09A8.5,8.5,0,0,1,382,168.32h0L517.28,346.86a8.5,8.5,0,0,1-1.64,11.91h0l-19.92,15.09A8.5,8.5,0,0,1,490.59,375.59Z"/><rect class="cls-4" x="410.79" y="245.47" width="43" height="43" transform="translate(-73.5 315.24) rotate(-37.15)"/><rect class="cls-4" x="253.51" y="111.33" width="45.27" height="45.27" transform="translate(75.27 366.03) rotate(-75)"/><path class="cls-3" d="M273.6,168.23,227.94,156l12.23-45.67,45.66,12.24Zm-43.22-13.65,41.8,11.2,11.2-41.8-41.79-11.2Z"/><path class="cls-6" d="M81.25,274.37a11.38,11.38,0,0,0,.34-16.09A10,10,0,0,0,80.08,257l-18.36-148L38,116,63.61,260a11.44,11.44,0,0,0,17.64,14.33Z"/><polygon class="cls-6" points="103.24 415.86 117.12 415.86 123.72 362.34 103.24 362.34 103.24 415.86"/><path d="M143.88,428.75H100.27V411.9h28.3a15.3,15.3,0,0,1,15.31,15.31h0v1.54Z"/><polygon class="cls-6" points="7.28 394.25 20.29 399.09 45.14 351.22 25.94 344.08 7.28 394.25"/><path d="M40.88,420.49,0,405.29H0l5.87-15.8h0l26.53,9.87a15.31,15.31,0,0,1,9,19.69h0l-.53,1.44Z"/><circle class="cls-6" cx="78.35" cy="44.26" r="26.24"/><path class="cls-7" d="M37.31,111.6c-.82-24.17,24.58-40.93,46-29.62,2.72,1.45,30.84,25.33,31.89,40.17s3.18,39.2,3.18,39.2L148,382.79l-63.57-3.18L92.11,315,50.78,380.7.72,364.78,62.18,187.84S38.55,148.23,37.31,111.6Z"/><path class="cls-8" d="M37.81,120l4.08,53.06a2.21,2.21,0,0,0,2.2,2h18a2.21,2.21,0,0,0,2.21-2.2,2.26,2.26,0,0,0-.17-.85L42,119a2.2,2.2,0,0,0-4.23,1Z"/><path class="cls-6" d="M130.05,265.18a11.39,11.39,0,0,0-1.54-16,11.83,11.83,0,0,0-1.66-1.13L91.29,103.15l-22.74,9.79L110.85,253a11.45,11.45,0,0,0,19.2,12.17Z"/><path class="cls-8" d="M71.71,90.36s-7.41,14.83,0,41.32,12.72,48.74,12.72,48.74,16.95-10.6,24.37-7.42-11.73-70.61-11.73-70.61S85.49,77.64,71.71,90.36Z"/><path class="cls-2" d="M84.51,48.36c.35-5.45,7.22-5.64,12.67-5.69s12,.15,15.07-4.35c2-3,1.65-7.1,0-10.29s-4.45-5.64-7.18-8C98,13.94,90.73,7.9,82.28,4S63.92-1.47,55.15,1.66c-10.77,3.84-25.33,23.63-26.59,35s3.29,69,10.94,77.45,25.19,5.07,36.22,8.09C69,112.7,73.43,49.45,84.17,45Z"/></g></g></svg>