<svg xmlns="http://www.w3.org/2000/svg" viewBox="0 0 424.63 342.23"><defs><style>.cls-1{fill:#c1aea7;}.cls-2{fill:#b2dacd;}.cls-3{fill:#ffb8b8;}.cls-4{fill:#2f2e41;}.cls-5{opacity:0.15;isolation:isolate;}.cls-6{fill:#bba247;}.cls-7{fill:#e4dbcc;}</style></defs><g id="Layer_2" data-name="Layer 2"><g id="Layer_1-2" data-name="Layer 1"><path class="cls-1" d="M401.15,113.31c0,14.74-3.5,26.87-9.55,37.27a74.42,74.42,0,0,1-6.79,9.74c-22.27,27.24-63.66,42.14-101.08,66.29-110.44,71.27-122.4-42.93-117.42-113.3A125.57,125.57,0,0,1,197,39a116.92,116.92,0,0,1,11.93-11.73A114.23,114.23,0,0,1,283.73,0c50,0,92.71,30.16,109.64,72.66a110.06,110.06,0,0,1,7.78,40.65Z"/><path class="cls-2" d="M308.75,25.54,197,39a116.92,116.92,0,0,1,11.93-11.73Z"/><path class="cls-2" d="M391.6,150.58a74.42,74.42,0,0,1-6.79,9.74l-95.76-11.51Z"/><path class="cls-2" d="M397.27,84.35,235,63.29l158.4,9.37A109,109,0,0,1,397.27,84.35Z"/><path class="cls-1" d="M177.32,30.18c0,.29,0,.58,0,.86a11.74,11.74,0,1,1-22.08-6.34,11,11,0,0,1,.86-1.38,11.73,11.73,0,0,1,21.21,5.91C177.31,29.54,177.32,29.86,177.32,30.18Z"/><path class="cls-2" d="M177.32,30.18c0,.29,0,.58,0,.86l-17.57-2.12,17.56.31C177.31,29.54,177.32,29.86,177.32,30.18Z"/><path class="cls-2" d="M173.13,36.1l-16.25,1.95a11,11,0,0,1-1.24-1.65Z"/><path class="cls-2" d="M168.52,23.1l-13.31,1.6a11,11,0,0,1,.86-1.38Z"/><path class="cls-1" d="M338.17,241.5a7.89,7.89,0,0,1-.43.74,11.73,11.73,0,1,1-16.53-16,11,11,0,0,1,1.41-.82,11.73,11.73,0,0,1,16,15.16C338.46,240.92,338.32,241.21,338.17,241.5Z"/><path class="cls-2" d="M338.17,241.5a7.89,7.89,0,0,1-.43.74l-14.53-10.11,15.37,8.5C338.46,240.92,338.32,241.21,338.17,241.5Z"/><path class="cls-2" d="M331.7,244.76l-15.28-5.9a12.74,12.74,0,0,1-.32-2Z"/><path class="cls-2" d="M333.72,231.12l-12.51-4.83a11,11,0,0,1,1.41-.82Z"/><path class="cls-1" d="M421.3,39.17c.2.21.39.42.57.64a11.73,11.73,0,1,1-20.23,10.88,12.17,12.17,0,0,1-.35-1.59A11.73,11.73,0,0,1,420.6,38.52C420.84,38.72,421.07,38.94,421.3,39.17Z"/><path class="cls-2" d="M421.3,39.17c.2.21.39.42.57.64L407.82,50.56l12.78-12C420.84,38.72,421.07,38.94,421.3,39.17Z"/><path class="cls-2" d="M422.43,46.33,412.16,59.08a11.8,11.8,0,0,1-2.05-.31Z"/><path class="cls-2" d="M410.05,40.25l-8.41,10.44a12.17,12.17,0,0,1-.35-1.59Z"/><path class="cls-3" d="M201.11,255.47s25.76,1.07,25.76,7.51-29,0-29,0Z"/><path class="cls-4" d="M162.48,342.2l-47.85,0-2.59-17-10.41,17h-48c1.08-40.78,18.7-81.4,19.77-86.76S77,227.93,77,227.93c4.69-10,29.27-10.88,48.53-10,8,.36,15.07,1.05,19.43,1.54,2.89.32,4.6.56,4.6.56,7.69,7.93,12.65,18.74,15.7,30.81C176.29,294.36,162.48,342.2,162.48,342.2Z"/><circle class="cls-3" cx="108.82" cy="78.39" r="26.83"/><path class="cls-3" d="M90.57,84.83s-7.51,33.27-19.31,42.93,46.14,0,46.14,0-12.88-21.47-3.22-31.12S90.57,84.83,90.57,84.83Z"/><path class="cls-1" d="M145.3,222.2l-17.8,2-49.81,5.54L77,227.93c-3.62-9.87-21-57.86-23-72.27-2.15-16.1,20.39-35.41,20.39-35.41s21.46-4.3,27.9-4.3,32.19,9.66,32.19,9.66l9.61,86.4.82,7.48Z"/><path class="cls-5" d="M165.3,250.86l-36.09-21.15s-.64-2.06-1.71-5.54L125.57,218c-4.16-13.37-11.15-35.44-16.75-51.56-8.59-24.68,33.27,44,33.27,44l2.09,1.62.82,7.48c2.89.32,4.6.56,4.6.56C157.29,228,162.25,238.79,165.3,250.86Z"/><path class="cls-1" d="M117.4,127.76s-10.73,14-2.14,38.63,20.39,63.32,20.39,63.32l62.24,36.49,8.59-10.73-58-45.08s-2.14-81.56-12.87-84.78A22,22,0,0,0,117.4,127.76Z"/><path class="cls-3" d="M64.28,221.66s15,31.12,21.46,27.9-16.09-35.41-16.09-35.41Z"/><path class="cls-1" d="M62.67,136.34,5.79,183.56s-21.46,15,18.25,25.76S67,226.49,67,226.49s4.3-14,9.66-11.81L30.48,192.15,68,169.61Z"/><path class="cls-6" d="M39.81,100.41a151.44,151.44,0,0,0,15.19-8c-.39-11.7,1-22.31,5.26-27.94,2.37-5.37,7.34-10.75,11.23-15,9.56-10.4,30.69-16.21,34.44-11,28.34.56,31.33,22.78,31.33,22.78-.15,9.29-9.81,9.59-18.27,9.25.76,6.34-1.26,12.94-7.11,15.86-11.18,5.59-14.54,12.86-8.95,17.89s15.66,18.45,2.24,21.81S90.07,136.07,94,138.87s-8.95-5-8.95-5-2.23,13.42-14,10.07a7,7,0,0,1-3.14-2.23c-3.17,3.49-6,5.55-8.13,5.56-12.21.06-10.75-13.46-10.75-13.46s-14.49,4.07-10,2.43,4.71-8.55-7.3-15.39S33.07,103.75,39.81,100.41Z"/><path class="cls-2" d="M189.63,135.47l-.2,0,.48,1.81a47.55,47.55,0,0,0,2,7.41l13.92,52.94a9,9,0,0,0,7.31,6.59l28.4,4.39a9,9,0,0,0,9.29-4.63l27-50.42a48.07,48.07,0,0,0,2.31-4.31l.91-1.71-.14,0a47.72,47.72,0,1,0-91.22-12Z"/><path class="cls-2" d="M243.24,212a10.81,10.81,0,0,1-1.5-.11l-29.69-4.6a9.81,9.81,0,0,1-8-7.19L189.52,144.8a49.78,49.78,0,0,1-2.05-7.78l-.37-2.42a50.32,50.32,0,0,1,57.59-56.11l-.12.83A49.46,49.46,0,0,0,188,135l.28,1.81a48.88,48.88,0,0,0,2,7.71l14.56,55.38a9,9,0,0,0,7.3,6.57l29.69,4.6a9,9,0,0,0,9.27-4.63l.74.4A9.82,9.82,0,0,1,243.24,212Z"/><rect class="cls-7" x="215.98" y="171.81" width="52.53" height="1.08" transform="translate(-2.9 340.55) rotate(-69.88)"/><rect class="cls-7" x="221.34" y="142.94" width="1.08" height="52.53" transform="translate(-7.21 9.9) rotate(-2.52)"/><path class="cls-2" d="M240.73,237.13l-38-5.89a1.08,1.08,0,0,1,.33-2.14L241.06,235a1.08,1.08,0,0,1-.32,2.14Z"/><path class="cls-2" d="M241.7,229.05l-38-5.88A1.09,1.09,0,0,1,204,221h0l38,5.89a1.08,1.08,0,1,1-.32,2.14Z"/><path class="cls-2" d="M242.68,221l-38.05-5.88a1.09,1.09,0,0,1,.34-2.15l38,5.89a1.08,1.08,0,0,1-.33,2.14Z"/><path class="cls-2" d="M220.52,241.83c7.55,1.17,14.32-2.09,15.12-7.28l-27.33-4.23C207.51,235.51,213,240.66,220.52,241.83Z"/><path class="cls-7" d="M234.2,137.11a6.68,6.68,0,0,1-3.71-2.39l-.71-.87a8.37,8.37,0,0,0-2.79-2.6c-2.49-1.16-5.42.46-8,2.2l-.62-.9c2.8-1.91,6.05-3.68,9-2.28a9.41,9.41,0,0,1,3.18,2.9c.23.28.45.57.69.84.76.9,2.29,2.34,3.93,2a5.17,5.17,0,0,0,1.88-1,11.46,11.46,0,0,1,1.33-.84,5.31,5.31,0,0,1,5.83.82,10.35,10.35,0,0,1,.79.84,3.82,3.82,0,0,0,1.55,1.27c.89.29,1.83-.22,2.82-.76a5.61,5.61,0,0,1,3.28-1l.12,0c2.13.33,3.12,2.69,3.67,4.45l-1,.33c-.76-2.4-1.68-3.59-2.89-3.72a4.74,4.74,0,0,0-2.64.86c-1.14.62-2.33,1.26-3.66.84a4.78,4.78,0,0,1-2-1.59,7.22,7.22,0,0,0-.71-.75,4.24,4.24,0,0,0-4.61-.66,8.59,8.59,0,0,0-1.19.76,6.12,6.12,0,0,1-2.3,1.17A3.34,3.34,0,0,1,234.2,137.11Z"/></g></g></svg>