<svg xmlns="http://www.w3.org/2000/svg" viewBox="0 0 501.32 370.63"><defs><style>.cls-1{fill:#bba247;}.cls-2{fill:#3f3f3f;}.cls-3{fill:#2f2e41;}.cls-4{fill:#ffb8b8;}.cls-5{fill:#c1aea7;}.cls-6{fill:#e4dbcc;}</style></defs><g id="Layer_2" data-name="Layer 2"><g id="Layer_1-2" data-name="Layer 1"><path class="cls-1" d="M452.83,106.89H379.75c-9.89-26.77-14.18-51.67,0-70.35A36.54,36.54,0,0,1,416.29,0h0a36.49,36.49,0,0,1,29.79,15.37,30.59,30.59,0,0,1,3.62,28C443.8,60.05,447.4,82.89,452.83,106.89Z"/><path class="cls-2" d="M491.43,370.63h0a9.89,9.89,0,0,1-9.46-7l-3-9.79a14.64,14.64,0,0,1-.39-7L480.62,336H495l6,22.14a9.88,9.88,0,0,1-7,12.12A10.19,10.19,0,0,1,491.43,370.63Z"/><path class="cls-2" d="M386.64,370.63h0a9.89,9.89,0,0,0,9.45-7l3-9.79a14.52,14.52,0,0,0,.39-7L397.44,336H383.06l-6,22.14a9.89,9.89,0,0,0,7,12.12A10.21,10.21,0,0,0,386.64,370.63Z"/><path class="cls-3" d="M496.17,337.2H480.23L411.05,205.82,398.28,337.2H384.22c-7.21-82.73-24.75-161.54,0-191.24l57.92,5.44Z"/><circle class="cls-4" cx="414.35" cy="37.7" r="19.44"/><path class="cls-4" d="M441.75,112.53H398.61l-7.39-34.21C405.55,74.09,409,64.25,406,51.11l23.32-1.55C430.64,60.14,433.05,70,448,71.72Z"/><path class="cls-5" d="M441.75,155.29c-24.48,9.29-44.39,9-58.3-3.89,6.28-20.7,6.65-46.2,3.88-74.24l7.78-3.5,2.72,24.88,38.48-2,8.55-27.21,8.55,2C454.07,105.06,452.05,135.41,441.75,155.29Z"/><path class="cls-4" d="M464.3,197.27l4.57,14.85a8.06,8.06,0,0,1-5.33,10.06,8.17,8.17,0,0,1-2.36.35h0a8,8,0,0,1-8.05-8,7.89,7.89,0,0,1,.05-.84L455,196.49l-7.39-58.31L453,112.53h13.6Z"/><path class="cls-4" d="M355.43,194.18l-8,13.3a8.05,8.05,0,0,0,2.73,11.05,8.4,8.4,0,0,0,2.21.92h0a8,8,0,0,0,9.75-5.86,7.91,7.91,0,0,0,.16-.82l2.42-17.09L386,140.9l4.29-26.23-16.56-3.27Z"/><path class="cls-5" d="M476.35,115.64l-25.66-.39V70.55l3.95.58a18.87,18.87,0,0,1,16.08,16.94Z"/><path class="cls-5" d="M366.73,120.3l25.66-.38V75.21l-3.95.58a18.88,18.88,0,0,0-16.08,16.95Z"/><path class="cls-1" d="M432.23,28.38c-8.26,4.67-24.12,6.8-35.76,3.49l-3.89-20.21h38.48Z"/><rect class="cls-5" y="268.29" width="126.59" height="102.03"/><rect class="cls-2" x="52.59" y="340.71" width="21.41" height="28.97"/><polygon class="cls-5" points="282.16 271.3 285.53 262.32 316.98 244.35 338.31 239.86 282.16 271.3"/><polygon class="cls-5" points="166.49 271.3 163.12 262.32 131.67 244.35 110.33 239.86 166.49 271.3"/><polygon class="cls-5" points="284.41 273.55 164.24 273.55 154.13 226.38 294.51 226.38 284.41 273.55"/><rect class="cls-5" x="163.68" y="270.74" width="121.29" height="99.57"/><rect class="cls-2" x="213.62" y="340.7" width="21.41" height="28.97"/><rect class="cls-6" x="199.13" y="291.12" width="50.38" height="15.74"/><rect class="cls-6" x="37.77" y="291.12" width="50.38" height="15.74"/><path d="M44.8,301.39v-5.68h3.73v.49H45.36v2.09H48v.46H45.36v2.64Z"/><path d="M49.42,295.55H50v4.92c0,.21,0,.35.11.41a.36.36,0,0,0,.27.1,1.43,1.43,0,0,0,.29,0l.25-.07.09.44a1.48,1.48,0,0,1-.37.11,3.08,3.08,0,0,1-.38,0,.76.76,0,0,1-.81-.82Z"/><path d="M53.36,301.47a2,2,0,0,1-1.92-1.33,2.24,2.24,0,0,1-.15-.81,2.32,2.32,0,0,1,.15-.84,2.12,2.12,0,0,1,.43-.68,2.21,2.21,0,0,1,.66-.47,2.05,2.05,0,0,1,.83-.17,2,2,0,0,1,.82.17,2.21,2.21,0,0,1,.66.47,2.15,2.15,0,0,1,.58,1.52,2.24,2.24,0,0,1-.15.81,2.1,2.1,0,0,1-1.08,1.16A2.09,2.09,0,0,1,53.36,301.47Zm-1.52-2.14a1.8,1.8,0,0,0,.2.84,1.67,1.67,0,0,0,.55.6,1.43,1.43,0,0,0,.76.22,1.36,1.36,0,0,0,.76-.23,1.6,1.6,0,0,0,.55-.6,1.76,1.76,0,0,0,.21-.85,1.68,1.68,0,0,0-.21-.83,1.63,1.63,0,0,0-.55-.61,1.4,1.4,0,0,0-1.52,0,1.71,1.71,0,0,0-.55.61A1.8,1.8,0,0,0,51.84,299.33Z"/><path d="M58,301.47a1.73,1.73,0,0,1-.79-.18,2,2,0,0,1-.62-.48,2.11,2.11,0,0,1-.4-.68,2.17,2.17,0,0,1-.15-.79,2.54,2.54,0,0,1,.14-.83,2.36,2.36,0,0,1,.4-.69,2.07,2.07,0,0,1,.62-.48,1.79,1.79,0,0,1,.78-.17,1.59,1.59,0,0,1,.93.27,2.38,2.38,0,0,1,.67.67v-.88h.49v4.18a1.63,1.63,0,0,1-.28,1,1.67,1.67,0,0,1-.74.59,2.61,2.61,0,0,1-1,.2,2.25,2.25,0,0,1-1.15-.26,2,2,0,0,1-.72-.68l.33-.27a1.63,1.63,0,0,0,.66.59,2.21,2.21,0,0,0,.88.19,1.86,1.86,0,0,0,.75-.15,1.26,1.26,0,0,0,.54-.43,1.23,1.23,0,0,0,.2-.73v-.83a1.87,1.87,0,0,1-.65.63A1.73,1.73,0,0,1,58,301.47Zm.15-.46a1.27,1.27,0,0,0,.47-.09,1.42,1.42,0,0,0,.42-.23,1.29,1.29,0,0,0,.32-.34.81.81,0,0,0,.16-.37v-1.29a1.7,1.7,0,0,0-.34-.54,1.67,1.67,0,0,0-.51-.37,1.34,1.34,0,0,0-.59-.13,1.26,1.26,0,0,0-.62.15,1.49,1.49,0,0,0-.47.39,2.06,2.06,0,0,0-.29.55,1.81,1.81,0,0,0-.1.61,1.68,1.68,0,0,0,.12.63,1.87,1.87,0,0,0,.33.54,1.33,1.33,0,0,0,.49.36A1.39,1.39,0,0,0,58.16,301Z"/><path d="M60.94,300.19a1.07,1.07,0,0,1,.23-.67,1.36,1.36,0,0,1,.62-.43,2.35,2.35,0,0,1,.91-.16,4.58,4.58,0,0,1,.63.05,3,3,0,0,1,.59.14v-.35a1.13,1.13,0,0,0-.31-.83,1.17,1.17,0,0,0-.87-.31,1.92,1.92,0,0,0-.66.12,3.16,3.16,0,0,0-.67.36l-.21-.38a3.25,3.25,0,0,1,.8-.42,2.45,2.45,0,0,1,.8-.14,1.65,1.65,0,0,1,1.21.44,1.6,1.6,0,0,1,.45,1.21v1.91a.26.26,0,0,0,.05.17.21.21,0,0,0,.15.05v.44h-.15a.17.17,0,0,1-.1,0,.38.38,0,0,1-.3-.13A.38.38,0,0,1,64,301v-.31a1.86,1.86,0,0,1-.73.56,2.26,2.26,0,0,1-.91.2,1.53,1.53,0,0,1-.72-.17,1.29,1.29,0,0,1-.51-.47A1.17,1.17,0,0,1,60.94,300.19Zm2.79.32a.85.85,0,0,0,.14-.21.49.49,0,0,0,.05-.18v-.61a3.41,3.41,0,0,0-.57-.16,3.79,3.79,0,0,0-.58-.05,1.69,1.69,0,0,0-1,.23.71.71,0,0,0-.36.63.85.85,0,0,0,.12.43,1,1,0,0,0,.35.33,1.09,1.09,0,0,0,.55.13,1.8,1.8,0,0,0,.73-.15A1.25,1.25,0,0,0,63.73,300.51Z"/><path d="M67.61,301.22a.78.78,0,0,0-.2.09,1.82,1.82,0,0,1-.33.11,1.86,1.86,0,0,1-.42.05,1,1,0,0,1-.43-.09.73.73,0,0,1-.33-.27.79.79,0,0,1-.12-.45v-3h-.57v-.44h.57v-1.4h.55v1.4h1v.44h-1v2.84a.43.43,0,0,0,.16.34.58.58,0,0,0,.34.11,1.07,1.07,0,0,0,.41-.07,1,1,0,0,0,.22-.11Z"/><path d="M70,301.47a2,2,0,0,1-.84-.18,2.18,2.18,0,0,1-.66-.46,2.26,2.26,0,0,1-.44-.69,2.36,2.36,0,0,1-.15-.84,2.29,2.29,0,0,1,.26-1.07,2.1,2.1,0,0,1,.74-.77,2.08,2.08,0,0,1,1.08-.29,2,2,0,0,1,1.07.29,2.18,2.18,0,0,1,.73.78,2.21,2.21,0,0,1,.26,1.05v.12a.28.28,0,0,1,0,.1H68.49a1.76,1.76,0,0,0,.26.79,1.61,1.61,0,0,0,.55.55,1.44,1.44,0,0,0,.74.2,1.51,1.51,0,0,0,.77-.21,1.2,1.2,0,0,0,.51-.54l.47.13a1.61,1.61,0,0,1-.39.53,1.77,1.77,0,0,1-.62.37A2.14,2.14,0,0,1,70,301.47Zm-1.54-2.36h3.08a1.6,1.6,0,0,0-.25-.79,1.55,1.55,0,0,0-.55-.53,1.49,1.49,0,0,0-1.49,0,1.58,1.58,0,0,0-.55.54A1.7,1.7,0,0,0,68.48,299.11Z"/><path d="M72.57,300.19a1.07,1.07,0,0,1,.23-.67,1.36,1.36,0,0,1,.62-.43,2.36,2.36,0,0,1,.92-.16A4.7,4.7,0,0,1,75,299a2.9,2.9,0,0,1,.58.14v-.35a1.09,1.09,0,0,0-.31-.83,1.16,1.16,0,0,0-.86-.31,1.84,1.84,0,0,0-.66.12,3,3,0,0,0-.68.36l-.21-.38a3.25,3.25,0,0,1,.8-.42,2.45,2.45,0,0,1,.8-.14,1.69,1.69,0,0,1,1.22.44,1.6,1.6,0,0,1,.45,1.21v1.91a.27.27,0,0,0,0,.17.25.25,0,0,0,.16.05v.44h-.16a.14.14,0,0,1-.09,0,.39.39,0,0,1-.31-.13.43.43,0,0,1-.11-.25v-.31a1.79,1.79,0,0,1-.73.56,2.23,2.23,0,0,1-.91.2,1.59,1.59,0,0,1-.72-.17,1.26,1.26,0,0,1-.5-.47A1.17,1.17,0,0,1,72.57,300.19Zm2.8.32a.8.8,0,0,0,.13-.21.49.49,0,0,0,0-.18v-.61a3.58,3.58,0,0,0-.56-.16,3.92,3.92,0,0,0-.59-.05,1.69,1.69,0,0,0-1,.23.72.72,0,0,0-.35.63.85.85,0,0,0,.12.43.93.93,0,0,0,.35.33,1,1,0,0,0,.54.13,1.77,1.77,0,0,0,.73-.15A1.36,1.36,0,0,0,75.37,300.51Z"/><path d="M77.23,299.67v-2.44h.54v2.35a1.9,1.9,0,0,0,.25,1.06.82.82,0,0,0,.72.35,1.48,1.48,0,0,0,.62-.14,1.73,1.73,0,0,0,.53-.4,1.66,1.66,0,0,0,.36-.6v-2.62h.54v3.5a.22.22,0,0,0,0,.16A.17.17,0,0,0,81,301v.44h-.25a.47.47,0,0,1-.28-.12.38.38,0,0,1-.12-.28l0-.55a2,2,0,0,1-.74.75,2,2,0,0,1-1,.27,1.13,1.13,0,0,1-1-.46A2.19,2.19,0,0,1,77.23,299.67Z"/><path d="M205.2,302.39v-5.68h3.73v.5h-3.17v2.09h2.68v.46h-2.68v2.63Z"/><path d="M209.83,296.55h.54v4.93a.57.57,0,0,0,.11.41.45.45,0,0,0,.28.09,1.33,1.33,0,0,0,.28,0l.25-.06.1.44a1.64,1.64,0,0,1-.37.1,2,2,0,0,1-.38,0,.74.74,0,0,1-.81-.81Z"/><path d="M213.76,302.47a2.05,2.05,0,0,1-.83-.17,1.94,1.94,0,0,1-.66-.47,2.18,2.18,0,0,1-.43-.68,2.25,2.25,0,0,1-.15-.82,2.31,2.31,0,0,1,.15-.83,2,2,0,0,1,.44-.68,1.9,1.9,0,0,1,.65-.47,1.93,1.93,0,0,1,.83-.17,2,2,0,0,1,1.48.64,2.21,2.21,0,0,1,.44.68,2.31,2.31,0,0,1,.15.83,2.25,2.25,0,0,1-.15.82,2.38,2.38,0,0,1-.43.68,2,2,0,0,1-1.49.64Zm-1.52-2.13a1.69,1.69,0,0,0,.21.84,1.49,1.49,0,0,0,.55.59,1.35,1.35,0,0,0,.76.22,1.37,1.37,0,0,0,.76-.22,1.77,1.77,0,0,0,.55-2.29,1.77,1.77,0,0,0-.55-.6,1.37,1.37,0,0,0-.76-.22,1.29,1.29,0,0,0-.76.23,1.59,1.59,0,0,0-.55.6A1.76,1.76,0,0,0,212.24,300.34Z"/><path d="M218.41,302.47a1.85,1.85,0,0,1-.78-.17,2,2,0,0,1-.62-.48,2.25,2.25,0,0,1-.41-.68,2.4,2.4,0,0,1-.14-.8,2.48,2.48,0,0,1,.14-.82,2.32,2.32,0,0,1,.4-.7,1.85,1.85,0,0,1,.61-.47,1.85,1.85,0,0,1,1.72.09,2.84,2.84,0,0,1,.67.67v-.87h.48v4.17a1.66,1.66,0,0,1-.27,1,1.78,1.78,0,0,1-.75.6,2.61,2.61,0,0,1-1,.2,2.28,2.28,0,0,1-1.15-.26,2.16,2.16,0,0,1-.72-.69l.34-.26a1.49,1.49,0,0,0,.66.58,2,2,0,0,0,.87.19,1.82,1.82,0,0,0,.75-.14,1.18,1.18,0,0,0,.54-.44,1.19,1.19,0,0,0,.21-.73v-.82a1.82,1.82,0,0,1-.66.63A1.77,1.77,0,0,1,218.41,302.47Zm.15-.45a1.28,1.28,0,0,0,.48-.09,1.76,1.76,0,0,0,.42-.24,1.66,1.66,0,0,0,.32-.33,1,1,0,0,0,.16-.38V299.7a1.67,1.67,0,0,0-.85-.91,1.37,1.37,0,0,0-.59-.13,1.42,1.42,0,0,0-.63.14,1.36,1.36,0,0,0-.46.4,1.78,1.78,0,0,0-.3.54,2.22,2.22,0,0,0-.1.61,1.73,1.73,0,0,0,.45,1.17,1.52,1.52,0,0,0,.5.37A1.54,1.54,0,0,0,218.56,302Z"/><path d="M221.35,301.2a1,1,0,0,1,.22-.67,1.52,1.52,0,0,1,.62-.44,2.61,2.61,0,0,1,.92-.15,4.64,4.64,0,0,1,.63,0,2.88,2.88,0,0,1,.58.15v-.35a1.13,1.13,0,0,0-.31-.84,1.19,1.19,0,0,0-.86-.31,1.65,1.65,0,0,0-.66.13,3.22,3.22,0,0,0-.68.36l-.21-.38a3.44,3.44,0,0,1,.8-.42,2.21,2.21,0,0,1,.8-.14,1.67,1.67,0,0,1,1.22.43,1.63,1.63,0,0,1,.45,1.21v1.92a.19.19,0,0,0,0,.16s.08.05.15.06v.43l-.15,0h-.1a.4.4,0,0,1-.3-.13.45.45,0,0,1-.12-.26v-.3a1.76,1.76,0,0,1-.72.56,2.29,2.29,0,0,1-.91.19,1.48,1.48,0,0,1-.73-.17,1.31,1.31,0,0,1-.5-.46A1.19,1.19,0,0,1,221.35,301.2Zm2.79.32a2,2,0,0,0,.14-.22.45.45,0,0,0,0-.18v-.6a3.58,3.58,0,0,0-.56-.16,3,3,0,0,0-.59-.06,1.74,1.74,0,0,0-.94.23.73.73,0,0,0-.36.63.82.82,0,0,0,.12.43.88.88,0,0,0,.35.34,1.16,1.16,0,0,0,.54.13,1.85,1.85,0,0,0,.74-.15A1.32,1.32,0,0,0,224.14,301.52Z"/><path d="M228,302.22l-.2.09a1.28,1.28,0,0,1-.33.11,1.32,1.32,0,0,1-.41.05,1.08,1.08,0,0,1-.44-.09.68.68,0,0,1-.32-.26.82.82,0,0,1-.12-.45v-3h-.58v-.43h.58v-1.41h.54v1.41h1v.43h-1v2.85a.45.45,0,0,0,.17.34.55.55,0,0,0,.34.11,1,1,0,0,0,.4-.08.8.8,0,0,0,.23-.11Z"/><path d="M230.42,302.47a2.05,2.05,0,0,1-.83-.17,2,2,0,0,1-.67-.47,2.23,2.23,0,0,1-.43-.69,2.25,2.25,0,0,1,.11-1.9,2,2,0,0,1,.74-.77,2.14,2.14,0,0,1,2.15,0,2.13,2.13,0,0,1,.72.77,2.17,2.17,0,0,1,.27,1.06v.12s0,.07,0,.09H228.9a1.84,1.84,0,0,0,.25.79,1.53,1.53,0,0,0,.55.55,1.41,1.41,0,0,0,.74.21,1.55,1.55,0,0,0,.78-.21,1.1,1.1,0,0,0,.5-.55l.48.13a1.58,1.58,0,0,1-.4.54,1.83,1.83,0,0,1-.62.37A2.09,2.09,0,0,1,230.42,302.47Zm-1.54-2.35H232a1.71,1.71,0,0,0-.24-.79,1.58,1.58,0,0,0-.55-.54,1.49,1.49,0,0,0-.75-.19,1.43,1.43,0,0,0-.74.19,1.5,1.5,0,0,0-.55.54A1.75,1.75,0,0,0,228.88,300.12Z"/><path d="M233,301.2a1.1,1.1,0,0,1,.22-.67,1.52,1.52,0,0,1,.62-.44,2.61,2.61,0,0,1,.92-.15,4.64,4.64,0,0,1,.63,0,3,3,0,0,1,.59.15v-.35a1.14,1.14,0,0,0-.32-.84,1.17,1.17,0,0,0-.86-.31,1.72,1.72,0,0,0-.66.13,3.22,3.22,0,0,0-.68.36l-.2-.38a3.09,3.09,0,0,1,.8-.42,2.18,2.18,0,0,1,.8-.14,1.66,1.66,0,0,1,1.21.43,1.63,1.63,0,0,1,.45,1.21v1.92a.23.23,0,0,0,.05.16s.08.05.15.06v.43l-.15,0h-.1a.42.42,0,0,1-.3-.13A.38.38,0,0,1,236,302v-.3a1.86,1.86,0,0,1-.73.56,2.25,2.25,0,0,1-.91.19,1.48,1.48,0,0,1-.73-.17,1.31,1.31,0,0,1-.5-.46A1.19,1.19,0,0,1,233,301.2Zm2.79.32a1.13,1.13,0,0,0,.14-.22.49.49,0,0,0,.05-.18v-.6a3.7,3.7,0,0,0-.57-.16,2.88,2.88,0,0,0-.59-.06,1.74,1.74,0,0,0-.94.23.73.73,0,0,0-.36.63.82.82,0,0,0,.12.43,1,1,0,0,0,.35.34,1.21,1.21,0,0,0,.55.13,1.8,1.8,0,0,0,.73-.15A1.25,1.25,0,0,0,235.77,301.52Z"/><path d="M237.64,300.68v-2.44h.54v2.34a1.87,1.87,0,0,0,.24,1.06.83.83,0,0,0,.73.35,1.37,1.37,0,0,0,.62-.14,1.46,1.46,0,0,0,.53-.4,1.64,1.64,0,0,0,.35-.6v-2.61h.55v3.5a.24.24,0,0,0,0,.16.23.23,0,0,0,.15.06v.43h-.26a.41.41,0,0,1-.27-.13.39.39,0,0,1-.13-.27v-.56a2,2,0,0,1-.74.75,2,2,0,0,1-1,.27,1.17,1.17,0,0,1-1-.45A2.26,2.26,0,0,1,237.64,300.68Z"/></g></g></svg>