<svg xmlns="http://www.w3.org/2000/svg" xmlns:xlink="http://www.w3.org/1999/xlink" viewBox="0 0 839.2 727.1"><defs><style>.cls-1{fill:#b2dacd;}.cls-2{fill:#bba24f;}.cls-3{fill:#4f5d75;}.cls-4{fill:#f55f44;}.cls-14,.cls-4,.cls-5{opacity:0.5;}.cls-13,.cls-17,.cls-4,.cls-5{isolation:isolate;}.cls-5{fill:#47e6b1;}.cls-6,.cls-7,.cls-8,.cls-9{fill:none;stroke-miterlimit:10;stroke-width:2px;}.cls-6{stroke:url(#linear-gradient);}.cls-7{stroke:#535461;}.cls-8{stroke:url(#linear-gradient-2);}.cls-9{stroke:url(#linear-gradient-3);}.cls-10{opacity:0.7;}.cls-11{fill:url(#linear-gradient-4);}.cls-12{fill:#535461;}.cls-13{fill:#fff;}.cls-13,.cls-17{opacity:0.1;}.cls-15{fill:url(#linear-gradient-5);}.cls-16{fill:url(#linear-gradient-6);}</style><linearGradient id="linear-gradient" x1="484.9" y1="928.13" x2="600.83" y2="928.13" gradientTransform="translate(-180.4 -436.46)" gradientUnits="userSpaceOnUse"><stop offset="0" stop-color="gray" stop-opacity="0.25"/><stop offset="0.54" stop-color="gray" stop-opacity="0.12"/><stop offset="1" stop-color="gray" stop-opacity="0.1"/></linearGradient><linearGradient id="linear-gradient-2" x1="615.75" y1="880.72" x2="651.46" y2="880.72" xlink:href="#linear-gradient"/><linearGradient id="linear-gradient-3" x1="745.48" y1="945.52" x2="780.02" y2="945.52" xlink:href="#linear-gradient"/><linearGradient id="linear-gradient-4" x1="634.3" y1="860.06" x2="634.3" y2="445.86" xlink:href="#linear-gradient"/><linearGradient id="linear-gradient-5" x1="637.01" y1="936.8" x2="637.01" y2="863.37" xlink:href="#linear-gradient"/><linearGradient id="linear-gradient-6" x1="454.9" y1="1077.1" x2="454.9" y2="837.9" gradientTransform="translate(0 -350)" xlink:href="#linear-gradient"/></defs><g id="Layer_2" data-name="Layer 2"><g id="_683d3690-e1ab-45db-97b8-9484a1649262" data-name="683d3690-e1ab-45db-97b8-9484a1649262"><rect class="cls-1" x="124.2" y="129.5" width="3.3" height="18.9"/><rect class="cls-1" x="116.4" y="137.3" width="18.9" height="3.3"/><rect class="cls-1" x="242.6" y="540.2" width="3.3" height="18.9"/><rect class="cls-1" x="234.8" y="548" width="18.9" height="3.3"/><rect class="cls-1" x="76.9" y="321" width="3.3" height="18.9"/><rect class="cls-1" x="69.1" y="328.8" width="18.9" height="3.3"/><rect class="cls-1" x="659.9" width="3.3" height="18.9"/><rect class="cls-1" x="652.1" y="7.8" width="18.9" height="3.3"/><rect class="cls-1" x="98" y="46.9" width="3.3" height="18.9"/><rect class="cls-1" x="90.2" y="54.7" width="18.9" height="3.3"/><path class="cls-2" d="M165.1,472.9a4,4,0,0,1-2.3-4.9,4.33,4.33,0,0,0,.1-.5h0a2,2,0,0,0-1.7-2.3,2,2,0,0,0-2,.9h0a.76.76,0,0,0-.2.4,4,4,0,0,1-4.9,2.3,4.33,4.33,0,0,0-.5-.1h0a2,2,0,0,0-2.3,1.7,2,2,0,0,0,.9,2h0a.76.76,0,0,0,.4.2,4,4,0,0,1,2.3,4.9,4.33,4.33,0,0,0-.1.5h0a2,2,0,0,0,1.7,2.3,2,2,0,0,0,2-.9h0a.76.76,0,0,0,.2-.4,4,4,0,0,1,4.9-2.3,4.33,4.33,0,0,0,.5.1h0a2,2,0,0,0,2.3-1.7,2,2,0,0,0-.9-2h0A.76.76,0,0,0,165.1,472.9Z"/><path class="cls-2" d="M148.6,652.2a4,4,0,0,1-2.3-4.9,4.33,4.33,0,0,0,.1-.5h0a2,2,0,0,0-1.7-2.3,2,2,0,0,0-2,.9h0a.76.76,0,0,0-.2.4,4,4,0,0,1-4.9,2.3,4.33,4.33,0,0,0-.5-.1h0a2,2,0,0,0-2.3,1.7,2,2,0,0,0,.9,2h0a.76.76,0,0,0,.4.2,4,4,0,0,1,2.3,4.9,4.33,4.33,0,0,0-.1.5h0a2,2,0,0,0,1.7,2.3,2,2,0,0,0,2-.9h0a.76.76,0,0,0,.2-.4,4,4,0,0,1,4.9-2.3,4.33,4.33,0,0,0,.5.1h0a2,2,0,0,0,2.3-1.7,2,2,0,0,0-.9-2h0C148.9,652.3,148.7,652.3,148.6,652.2Z"/><path class="cls-2" d="M755.6,255.2a4,4,0,0,1-2.3-4.9,4.33,4.33,0,0,0,.1-.5h0a2,2,0,0,0-1.7-2.3,2,2,0,0,0-2,.9h0a.76.76,0,0,0-.2.4,4,4,0,0,1-4.9,2.3c-.1,0-.3-.1-.4-.1h0a2,2,0,0,0-2.3,1.7,2,2,0,0,0,.9,2h0a.76.76,0,0,0,.4.2,4,4,0,0,1,2.3,4.9,4.33,4.33,0,0,0-.1.5h0a2,2,0,0,0,1.7,2.3,2,2,0,0,0,2-.9h0a.76.76,0,0,0,.2-.4,4,4,0,0,1,4.9-2.3,4.33,4.33,0,0,0,.5.1h0a2,2,0,0,0,2.3-1.7,2,2,0,0,0-.9-2h0C755.9,255.3,755.7,255.3,755.6,255.2Z"/><path class="cls-2" d="M728.1,444.5a4,4,0,0,1-2.3-4.9,4.33,4.33,0,0,0,.1-.5h0a2,2,0,0,0-1.7-2.3,2,2,0,0,0-2,.9h0a.76.76,0,0,0-.2.4,4,4,0,0,1-4.9,2.3,4.33,4.33,0,0,0-.5-.1h0a2,2,0,0,0-2.3,1.7,2,2,0,0,0,.9,2h0a.76.76,0,0,0,.4.2,4,4,0,0,1,2.3,4.9,4.33,4.33,0,0,0-.1.5h0a2,2,0,0,0,1.7,2.3,2,2,0,0,0,2-.9h0a.76.76,0,0,0,.2-.4,4,4,0,0,1,4.9-2.3c.1,0,.3.1.4.1h0a2,2,0,0,0,2.3-1.7,2,2,0,0,0-.9-2h0A1.24,1.24,0,0,0,728.1,444.5Z"/><path class="cls-2" d="M748.6,67.2a4,4,0,0,1-2.3-4.9c0-.1.1-.3.1-.4h0a2,2,0,0,0-1.7-2.3,2,2,0,0,0-2,.9h0a.76.76,0,0,0-.2.4,4,4,0,0,1-4.9,2.3,4.33,4.33,0,0,0-.5-.1h0a2,2,0,0,0-2.3,1.7,2,2,0,0,0,.9,2h0a.76.76,0,0,0,.4.2,4,4,0,0,1,2.3,4.9c0,.1-.1.3-.1.4h0a2,2,0,0,0,1.7,2.3,2,2,0,0,0,2-.9h0a.76.76,0,0,0,.2-.4,4,4,0,0,1,4.9-2.3c.1,0,.3.1.4.1h0a2,2,0,0,0,2.3-1.7,2,2,0,0,0-.9-2h0C748.9,67.3,748.7,67.3,748.6,67.2Z"/><path class="cls-2" d="M812.8,559.3a4,4,0,0,1-2.3-4.9,4.33,4.33,0,0,0,.1-.5h0a2,2,0,0,0-1.7-2.3,2,2,0,0,0-2,.9h0a.76.76,0,0,0-.2.4,4,4,0,0,1-4.9,2.3,4.33,4.33,0,0,0-.5-.1h0a2,2,0,0,0-2.3,1.7,2,2,0,0,0,.9,2h0a.76.76,0,0,0,.4.2,4,4,0,0,1,2.3,4.9,4.33,4.33,0,0,0-.1.5h0a2,2,0,0,0,1.7,2.3,2,2,0,0,0,2-.9h0a.76.76,0,0,0,.2-.4,4,4,0,0,1,4.9-2.3c.1,0,.3.1.4.1h0a2,2,0,0,0,2.3-1.7,2,2,0,0,0-.9-2h0C813.1,559.4,813,559.3,812.8,559.3Z"/><circle class="cls-3" cx="6.7" cy="257.8" r="6.7"/><circle class="cls-3" cx="749.8" cy="146.1" r="6.7"/><circle class="cls-4" cx="446.9" cy="396" r="7.5"/><circle class="cls-3" cx="446.9" cy="396" r="7.5"/><circle class="cls-3" cx="832.5" cy="346.3" r="6.7"/><circle class="cls-5" cx="294.2" cy="47.3" r="7.5"/><circle class="cls-3" cx="721.5" cy="621.4" r="6.7"/><path class="cls-6" d="M306.7,381.5c-3.9,12.8,2,27.9,13.5,34.6,4.8,2.8,10.4,4.2,15.1,7.3,10.2,6.6,14.2,19.3,17.5,31,3.8,13.5,7.6,27.7,4.1,41.2-2.2,8.6-7.3,16.3-10.1,24.7a53.06,53.06,0,0,0-2.5,22c.4,3.9,1.4,8,4.1,10.9,3.9,4.2,10.2,4.8,15.8,5.8a77,77,0,0,1,55.2,42.7"/><path class="cls-7" d="M307.9,381.5c-3.9,12.8,2,27.9,13.5,34.6,4.8,2.8,10.4,4.2,15.1,7.3,10.2,6.6,14.2,19.3,17.5,31,3.8,13.5,7.6,27.7,4.1,41.2-2.2,8.6-7.3,16.3-10.1,24.7a53.06,53.06,0,0,0-2.5,22c.4,3.9,1.4,8,4.1,10.9,3.9,4.2,10.2,4.8,15.8,5.8a77,77,0,0,1,55.2,42.7"/><path class="cls-8" d="M457.1,285.9c-9.7,13.5-19.8,28.1-20.6,44.8-1.3,25.6,19.2,46.5,28.3,70.5a83.75,83.75,0,0,1-2.8,65.5c-4.5,9.2-10.8,18.4-10,28.6.5,6.2,3.6,11.9,6.1,17.6a99.26,99.26,0,0,1-5.8,89.8"/><path class="cls-7" d="M458.3,285.9c-9.7,13.6-19.8,28.1-20.7,44.8-1.3,25.6,19.2,46.5,28.3,70.5a83.75,83.75,0,0,1-2.8,65.5c-4.5,9.2-10.8,18.4-10,28.6.5,6.2,3.6,11.9,6.1,17.6a99.26,99.26,0,0,1-5.8,89.8"/><path class="cls-9" d="M593.4,407.8l4.7,38.3c.6,5.1,1.2,10.6-1.6,15-2.6,4.1-7.5,6.1-11.2,9.1-12.4,10-11.3,29.1-7,44.4s10.4,31.8,4.5,46.6c-2.5,6.1-6.8,11.2-10,16.9a51.68,51.68,0,0,0-6.2,32.2"/><path class="cls-7" d="M594.6,407.8l4.7,38.3c.6,5.1,1.2,10.6-1.6,15-2.6,4.1-7.4,6.1-11.2,9.1-12.4,10-11.3,29.1-7,44.4s10.4,31.8,4.5,46.6c-2.5,6.1-6.8,11.2-10,16.9a51.68,51.68,0,0,0-6.2,32.2"/><g class="cls-10"><path class="cls-11" d="M715.3,250.4A113.49,113.49,0,0,0,566.6,142.5a155.26,155.26,0,0,0,1.5-19.3A113.54,113.54,0,0,0,341.3,115,113.7,113.7,0,0,0,192.5,223c0,57,42,138,96.6,152.4l8.5,4.9L293,396.1h27.4l-5.9-15.9,8.5-4.8c42.3-11.1,76.9-62,90.5-110.8a82.79,82.79,0,0,0,24.2,11l8.5,4.9-4.6,15.8H469l-5.9-15.9,8.5-4.8a78.15,78.15,0,0,0,18-7.3c7.3,54.8,46.2,121.7,95.4,134.6l8.5,4.9-4.6,15.8h27.4l-6-15.8,8.5-4.8C673.3,388.4,715.3,307.3,715.3,250.4Z"/></g><polygon class="cls-3" points="324.8 390.1 298.3 390.1 302.9 374.3 318.8 374.3 324.8 390.1"/><path class="cls-3" d="M420.7,222.7c0,60.7-49.2,149.6-109.9,149.6S201,283.4,201,222.7a109.85,109.85,0,1,1,219.7,0Z"/><polygon class="cls-12" points="318.8 374.9 302.9 374.9 293.6 369.6 328.1 369.6 318.8 374.9"/><path class="cls-13" d="M271.1,137.3s-46.3,25.1-53,75.4"/><polygon class="cls-2" points="468.4 293.6 442 293.6 446.6 277.7 462.5 277.7 468.4 293.6"/><path class="cls-2" d="M564.4,126.1c0,60.7-49.2,149.6-109.9,149.6S344.6,186.8,344.6,126.1a109.9,109.9,0,1,1,219.8,0Z"/><polygon class="cls-12" points="462.5 278.3 446.6 278.3 437.3 273 471.7 273 462.5 278.3"/><path class="cls-13" d="M414.8,40.7s-46.3,25.1-53,75.4"/><polygon class="cls-1" points="610.9 416.7 584.4 416.7 589 400.8 604.9 400.8 610.9 416.7"/><path class="cls-1" d="M706.8,249.3c0,60.7-49.2,149.6-109.9,149.6S487,310,487,249.3a109.9,109.9,0,1,1,219.8,0Z"/><polygon class="cls-12" points="604.9 401.5 589 401.5 579.8 396.2 614.2 396.2 604.9 401.5"/><path class="cls-13" d="M557.3,163.9s-46.3,25.1-53,75.4"/><g class="cls-14"><path class="cls-15" d="M516.4,435.4c-6.4-6.4-15.7-8.9-26.2-7.2-9.8,1.7-19.7,7-27.7,15a32.21,32.21,0,0,0-5.8,7.9,33.45,33.45,0,0,0-5.7-8.2h0c-7.9-8.2-17.6-13.6-27.5-15.4-10.5-2-19.8.4-26.3,6.7s-9.2,15.5-7.5,26c1.5,9.8,6.7,19.8,14.6,27.9,16.6,17.1,49.7,10.4,51.1,10.1l.4-.1,1.3.3c1.4.3,34.4,7.6,51.2-9.2,8-8,13.4-17.8,15.1-27.6C525.3,451.1,522.8,441.8,516.4,435.4Zm-66.5,53c-8,1.1-27.9,2.5-37.8-7.7-6.4-6.6-10.5-14.4-11.7-22.1-1.1-7,.5-13,4.4-16.8a14.33,14.33,0,0,1,5.4-3.3,22.45,22.45,0,0,1,11.5-.6c7.6,1.4,15.4,5.8,21.7,12.4,9.9,10.2,7.8,30.2,6.5,38.1ZM513,459.8c-1.3,7.7-5.6,15.4-12.1,21.9-10.1,10-30,8.2-38,7-1.2-8-2.9-27.9,7.1-37.9,6.5-6.5,14.3-10.7,21.9-12a21.47,21.47,0,0,1,11.5.8,14.19,14.19,0,0,1,5.3,3.4c4,3.8,5.5,9.8,4.3,16.8Z"/></g><path class="cls-1" d="M458.7,496.1l-3.2.7c-1.3.3-33,6.7-48.9-9.7-7.5-7.8-12.5-17.3-14-26.7-1.6-10.1,1-18.9,7.2-24.9s15.1-8.3,25.1-6.4c9.4,1.8,18.7,7,26.2,14.8h0c15.9,16.4,8.5,47.8,8.2,49.2Zm-46.5-56.5a14.11,14.11,0,0,0-5.2,3.2c-3.8,3.7-5.3,9.3-4.2,16.1,1.1,7.3,5.1,14.9,11.2,21.2,9.5,9.8,28.5,8.4,36.2,7.3,1.3-7.6,3.3-26.6-6.2-36.4h0c-6.1-6.3-13.5-10.5-20.8-11.9A21.55,21.55,0,0,0,412.2,439.6Z"/><path class="cls-1" d="M454,496.3l-.7-3.1c-.3-1.3-7.1-32.9,9-49h0c7.7-7.7,17.1-12.7,26.5-14.3,10-1.7,18.9.7,25,6.8s8.5,15,6.8,25c-1.6,9.4-6.7,18.8-14.4,26.4-16.1,16.1-47.7,9.2-49,8.8Zm47.5-55.8a21.59,21.59,0,0,0-11-.8c-7.3,1.2-14.8,5.3-21,11.5h0c-9.6,9.6-8,28.7-6.8,36.3,7.6,1.2,26.7,2.9,36.3-6.7,6.2-6.2,10.3-13.6,11.6-21,1.2-6.7-.2-12.4-4-16.1A14.23,14.23,0,0,0,501.5,440.5Z"/><g class="cls-14"><polygon class="cls-16" points="608.4 487.9 301.4 487.9 301.4 549.3 317.4 549.3 317.4 727.1 592.5 727.1 592.5 549.3 608.4 549.3 608.4 487.9"/></g><rect class="cls-3" x="320.9" y="506.4" width="268.1" height="217.6"/><rect class="cls-1" x="429.7" y="545.3" width="50.5" height="178.8"/><rect class="cls-17" x="320.9" y="494.8" width="268.1" height="54.4"/><rect class="cls-3" x="305.3" y="490.9" width="299.2" height="54.4"/><rect class="cls-1" x="429.7" y="490.9" width="50.5" height="54.4"/><rect class="cls-3" x="492.9" y="631.2" width="90.6" height="90.6"/></g></g></svg>