<svg xmlns="http://www.w3.org/2000/svg" viewBox="0 0 42.52 42.03"><defs><style>.cls-1{fill:#3f3f3f;}</style></defs><g id="Layer_2" data-name="Layer 2"><g id="Layer_1-2" data-name="Layer 1"><path class="cls-1" d="M21.33,42c-3.88-.05-7.45,0-11-.25C5.53,41.46.62,36.38.47,31.61c-.12-4-.56-8-.45-12.09.09-3.39.13-6.79.55-10.14A10.42,10.42,0,0,1,5.59,2,12.2,12.2,0,0,1,11.75.23C17.2-.12,22.65,0,28.09.1c2.72,0,5.53,0,8.05,1.48a11.77,11.77,0,0,1,6.11,10c.27,4.89.37,9.79.17,14.68-.11,2.73,0,5.51-.91,8.19-1.37,3.8-6.07,7.33-10.28,7.42C27.83,41.91,24.43,41.91,21.33,42Zm0-3.07c3.27-.05,6.54,0,9.82-.21,3.89-.22,6.85-2.39,7.74-6.16.55-2.38.3-4.82.46-7.23.3-4.8,0-9.62-.21-14.42A8.32,8.32,0,0,0,32.63,3.4a25.94,25.94,0,0,0-4.31-.28c-5.71.07-11.41-.13-17.12.16-2.65.13-6.5,2.46-7.42,5.35C3,11,3.22,13.44,3.13,15.83a139.84,139.84,0,0,0,.19,15.32,8,8,0,0,0,7.18,7.54C14.11,39.07,17.73,38.93,21.35,39Z"/><path class="cls-1" d="M32,21.23A10.67,10.67,0,0,1,21.21,31.86,10.59,10.59,0,0,1,10.42,21,10.79,10.79,0,1,1,32,21.23ZM21.26,13.1A7.93,7.93,0,1,0,29.17,21,7.95,7.95,0,0,0,21.26,13.1Z"/><path class="cls-1" d="M30.71,9.61c0-1.55.75-2.39,2.15-2.4a2.77,2.77,0,0,1,2.45,2.47A2.72,2.72,0,0,1,32.82,12C31.74,11.9,30.44,10.87,30.71,9.61Z"/></g></g></svg>