<svg xmlns="http://www.w3.org/2000/svg" viewBox="0 0 29.89 29.54"><defs><style>.cls-1{fill:#e4dbcc;}</style></defs><g id="Layer_2" data-name="Layer 2"><g id="Layer_1-2" data-name="Layer 1"><path class="cls-1" d="M15,29.54c-2.72,0-5.23,0-7.74-.18C3.89,29.14.43,25.57.33,22.22c-.09-2.84-.4-5.66-.32-8.5C.08,11.34.11,9,.4,6.59A7.33,7.33,0,0,1,3.93,1.42,8.48,8.48,0,0,1,8.26.16C12.09-.09,15.92,0,19.74.07c1.91,0,3.89,0,5.66,1a8.24,8.24,0,0,1,4.29,7c.19,3.44.26,6.88.12,10.32a18.72,18.72,0,0,1-.64,5.75A8.67,8.67,0,0,1,22,29.4C19.56,29.45,17.17,29.46,15,29.54Zm0-2.16c2.3,0,4.6,0,6.91-.15a5.53,5.53,0,0,0,5.43-4.32,29.89,29.89,0,0,0,.33-5.09c.21-3.37,0-6.75-.15-10.13a5.84,5.84,0,0,0-4.59-5.3,19.2,19.2,0,0,0-3-.2c-4,.05-8-.09-12,.11C6,2.4,3.3,4,2.66,6.07a18.83,18.83,0,0,0-.46,5.06,99,99,0,0,0,.13,10.76,5.62,5.62,0,0,0,5.05,5.3C9.91,27.46,12.46,27.36,15,27.38Z"/><path class="cls-1" d="M22.49,14.92a7.5,7.5,0,0,1-7.58,7.47,7.44,7.44,0,0,1-7.59-7.6,7.59,7.59,0,1,1,15.17.13ZM14.94,9.2a5.58,5.58,0,1,0,5.56,5.58A5.6,5.6,0,0,0,14.94,9.2Z"/><path class="cls-1" d="M21.58,6.75c0-1.09.53-1.68,1.52-1.68A1.93,1.93,0,0,1,24.81,6.8a1.88,1.88,0,0,1-1.74,1.63C22.3,8.36,21.39,7.64,21.58,6.75Z"/></g></g></svg>