<svg xmlns="http://www.w3.org/2000/svg" viewBox="0 0 104.82 80.91"><defs><style>.cls-1{fill:#b2dacd;}.cls-2{fill:#bba24f;}.cls-3{fill:#bda452;}.cls-4{fill:#3f3f3f;}</style></defs><g id="Layer_2" data-name="Layer 2"><g id="Layer_1-2" data-name="Layer 1"><path class="cls-1" d="M70,24.34c1-1.38,2-2.7,3-4.05L82.47,6.9C84,4.77,85.56,2.67,87,.52c.53-.78.84-.49,1.22,0q3,4.22,5.9,8.42,5.13,7.28,10.29,14.53a1.29,1.29,0,0,1,0,1.82c-5,6.9-9.92,13.84-14.87,20.77-.51.72-1,1.42-1.51,2.17s-.59.41-.89,0Q83.38,43,79.6,37.76L72,27.19c-.49-.69-1-1.36-1.47-2.06s-.63-.51-1,0Q65.33,31,61.13,36.87c-2.67,3.74-5.34,7.47-8,11.23-.49.69-.74.54-1.15,0q-8.15-11.3-16.33-22.58a1.51,1.51,0,0,1,0-2.11q7.58-10.47,15.07-21c.45-.63.88-1.28,1.32-1.92s.67-.57,1.09,0q4.45,6.39,9,12.74C64.71,16.91,67.33,20.58,70,24.34Zm22.43-.13c0-2.16,0-4.32,0-6.48a5.26,5.26,0,0,0-1.22-3.41c-1.36-1.67-3.86-1.79-5.79-1.16a4.6,4.6,0,0,0-3,4.59c0,4.14,0,8.28,0,12.42a5.57,5.57,0,0,0,.76,2.94,5,5,0,0,0,5.76,2,4.52,4.52,0,0,0,3.44-4.54C92.45,28.46,92.43,26.33,92.43,24.21ZM49,24.05V34c0,.51,0,1,.73,1,2.37,0,4.74,0,7.11,0,.49,0,.73-.18.7-.69a7.5,7.5,0,0,1,0-1.06c.07-.66-.24-.86-.87-.84-1.2,0-2.4,0-3.61,0-1.48,0-1.48,0-1.48-1.44,0-5.63,0-11.26,0-16.89,0-1-.5-1-1.24-1s-1.41-.23-1.38,1C49.09,17.39,49,20.72,49,24.05Z"/><path class="cls-1" d="M17.41,48.71a4.38,4.38,0,0,1-.4-.44L5.39,32.11C3.68,29.73,2,27.35.23,25c-.41-.55-.2-.9.1-1.32,2.13-2.95,4.27-5.89,6.38-8.84q5-7,10-14.06c.74-1,.77-1,1.49,0q8.09,11.46,16.2,22.91a1.11,1.11,0,0,1,0,1.5Q27.31,35.07,20.25,45c-.78,1.09-1.58,2.17-2.36,3.25C17.77,48.42,17.71,48.65,17.41,48.71ZM13.53,24.05c0,3.12,0,6.24,0,9.35,0,1.74-.28,1.55,1.57,1.62.8,0,1-.23,1-1,0-2.48,0-5,0-7.44,0-1.53,0-1.53,1.48-1.54a16.05,16.05,0,0,1,1.7,0c.85.09,1.17-.24,1.06-1.08a3,3,0,0,1,0-.74c.07-.62-.24-.79-.81-.77-.85,0-1.7,0-2.55,0-.62,0-.9-.15-.88-.83,0-1.66,0-3.33,0-5,0-.6.2-.82.8-.8,1.17,0,2.34,0,3.51,0,1.83,0,1.61.29,1.67-1.73,0-.79-.22-1-1-1q-3.28.06-6.59,0c-.75,0-1,.25-1,1C13.55,17.39,13.53,20.72,13.53,24.05Z"/><path class="cls-2" d="M9.48,69.07c0-2.2,0-4.39,0-6.59,0-5.08,5-6.25,8.1-4.55a4.81,4.81,0,0,1,2.33,4,10.92,10.92,0,0,1,0,1.28c0,1.77.2,1.43-1.51,1.54-1,.07-1.43-.22-1.3-1.27A5.61,5.61,0,0,0,17,62a1.93,1.93,0,0,0-2.16-1.87,2.12,2.12,0,0,0-2.48,1.79,4,4,0,0,0-.08.85c0,4.25,0,8.5,0,12.75,0,1.88.86,2.65,2.71,2.54,1.35-.07,2-.67,2.09-2.18s0-3.12,0-4.68c0-.72-.49-.6-.94-.65s-1.16.28-1.38-.21A4.85,4.85,0,0,1,14.72,68c0-.31.36-.28.6-.28,1.31,0,2.62,0,3.94,0,.49,0,.68.17.67.68,0,2.62.07,5.24,0,7.86-.13,2.92-2.26,4.7-5.37,4.67a4.87,4.87,0,0,1-5-4.93,1.48,1.48,0,0,1,0-.21Z"/><path class="cls-2" d="M85,67.22c0-2.87,0-5.74,0-8.61,0-.79.13-1.13,1-1.09,1.78.06,1.78,0,1.78,1.83q0,8,0,15.94c0,2.13.92,2.93,3,2.71a1.78,1.78,0,0,0,1.73-1.58,10.74,10.74,0,0,0,.16-1.69c0-5.35,0-10.7,0-16.05,0-1,.24-1.29,1.18-1.14a4.31,4.31,0,0,0,1,0c.49,0,.69.16.69.67,0,6,0,12-.06,18,0,3-2.28,4.8-5.51,4.74a4.8,4.8,0,0,1-4.86-5C84.93,73,85,70.13,85,67.22Z"/><path class="cls-2" d="M35.18,80.63c-1,.32-1.39-.29-1.49-1.36-.08-.81-.34-1.59-.43-2.4S32.88,75.71,32,75.8a13,13,0,0,1-2.65,0c-.88-.09-1.18.31-1.29,1.1-.13,1-.38,1.94-.5,2.92-.08.63-.35.83-1,.8-2.22-.1-2.24.49-1.7-2.06q2-9.64,4-19.29c.35-1.68,1.25-2.24,2.9-1.74.37.12.36.39.42.65l4.44,21.37C36.89,80.64,36.88,80.65,35.18,80.63ZM30.53,64.06c-.55,2.8-1.09,5.61-1.64,8.41-.08.44.15.57.54.56.81,0,1.63,0,2.44,0,.44,0,.68-.15.58-.63A58.24,58.24,0,0,0,30.53,64.06Z"/><path class="cls-2" d="M78.73,80.63c-1,.32-1.47-.26-1.58-1.39-.09-.88-.33-1.74-.48-2.61-.09-.56-.29-.86-1-.82a28.29,28.29,0,0,1-3.19,0c-.59,0-.81.23-.91.76-.2,1.11-.47,2.21-.64,3.33-.08.52-.28.71-.81.74-2.2.12-2.23.13-1.8-2q1.84-8.94,3.72-17.87a24.37,24.37,0,0,0,.53-2.48c.07-.69.39-.77,1-.77,1.93,0,2,0,2.34,1.86q2,9.7,4,19.42c0,.14.07.27.1.41C80.41,80.63,80.41,80.63,78.73,80.63ZM74.22,64.12a1,1,0,0,0-.41.83c-.35,1.73-.64,3.47-1,5.2-.62,2.94-.64,2.91,2.33,2.89.71,0,.92-.14.75-.9-.37-1.61-.61-3.26-1-4.88A15.11,15.11,0,0,0,74.22,64.12Z"/><path class="cls-2" d="M54.36,69c0-3.5,0-7,0-10.51,0-.8.21-1,1-1q3.56.07,7.11,0c.77,0,1.06.15,1,1-.06,1.81,0,1.84-1.76,1.88-1.24,0-2.48,0-3.72,0-.61,0-.89.16-.87.84,0,1.8,0,3.61,0,5.41,0,.65.27.78.83.77,1,0,1.91,0,2.86,0,.56,0,.72.19.74.74.1,2.16.12,2.16-2.06,2.16-2.36,0-2.36,0-2.36,2.41,0,1.38,0,2.76,0,4.14,0,.74.23,1,1,1,1.52,0,3.05,0,4.57,0,.59,0,.82.18.8.79-.07,2.43.32,2.08-2,2.08-2,0-4-.07-6.06,0-1,0-1.15-.32-1.14-1.2C54.39,76,54.36,72.51,54.36,69Z"/><path class="cls-3" d="M42.94,70.51c0-3,0-6,0-8.92,0-1-.29-1.29-1.2-1.16a4.56,4.56,0,0,1-.64,0c-2.26,0-2.26,0-2-2.28.05-.48.24-.61.66-.61h9.35c.47,0,.58.21.62.64.18,2.25.19,2.25-2.09,2.26-1.78,0-1.78,0-1.78,1.81,0,5.77,0,11.54,0,17.31,0,.93-.31,1.14-1.16,1.09-1.89-.11-1.78.38-1.78-1.85,0-2.76,0-5.53,0-8.29Z"/><path class="cls-3" d="M30.63,53A1.7,1.7,0,0,1,32.85,54c.2.41.5.77.74,1.16s.74.8.42,1.05a1.36,1.36,0,0,1-1.59-.11A7.9,7.9,0,0,1,31.27,55c-.42-.5-.73-.46-1.18,0-.6.61-1.08,1.47-2.15,1.34-.24,0-.54.11-.69-.14s.1-.46.22-.65c.3-.48.67-.92.94-1.41C28.89,53.26,29.47,52.58,30.63,53Z"/><path class="cls-4" d="M92.43,24.21c0,2.12,0,4.25,0,6.37A4.52,4.52,0,0,1,89,35.12a5,5,0,0,1-5.76-2,5.57,5.57,0,0,1-.76-2.94c0-4.14,0-8.28,0-12.42a4.6,4.6,0,0,1,3-4.59c1.93-.63,4.43-.51,5.79,1.16a5.26,5.26,0,0,1,1.22,3.41C92.44,19.89,92.43,22.05,92.43,24.21ZM89.68,24V17.54a1.84,1.84,0,0,0-1.43-2,2.21,2.21,0,0,0-3,2.28c0,4.18,0,8.36,0,12.54a2.11,2.11,0,0,0,2.26,2.26,2,2,0,0,0,2.21-2.25C89.69,28.27,89.68,26.15,89.68,24Z"/><path class="cls-4" d="M49,24.05c0-3.33.05-6.66,0-10,0-1.21.71-.94,1.38-1s1.25,0,1.24,1c0,5.63,0,11.26,0,16.89,0,1.44,0,1.44,1.48,1.44,1.21,0,2.41,0,3.61,0,.63,0,.94.18.87.84a7.5,7.5,0,0,0,0,1.06c0,.51-.21.69-.7.69-2.37,0-4.74,0-7.11,0C49,35,49,34.55,49,34Z"/><path class="cls-4" d="M13.53,24.05c0-3.33,0-6.66,0-10,0-.73.2-1,1-1q3.3.06,6.59,0c.8,0,1.05.23,1,1-.06,2,.16,1.71-1.67,1.73-1.17,0-2.34,0-3.51,0-.6,0-.81.2-.8.8,0,1.66,0,3.33,0,5,0,.68.26.85.88.83.85,0,1.7,0,2.55,0,.57,0,.88.15.81.77a3,3,0,0,0,0,.74c.11.84-.21,1.17-1.06,1.08a16.05,16.05,0,0,0-1.7,0c-1.48,0-1.48,0-1.48,1.54,0,2.48,0,5,0,7.44,0,.79-.21,1-1,1-1.85-.07-1.57.12-1.57-1.62C13.52,30.29,13.53,27.17,13.53,24.05Z"/><path class="cls-1" d="M89.68,24c0,2.13,0,4.25,0,6.38a2,2,0,0,1-2.21,2.25,2.11,2.11,0,0,1-2.26-2.26c0-4.18,0-8.36,0-12.54a2.21,2.21,0,0,1,3-2.28,1.84,1.84,0,0,1,1.43,2Z"/></g></g></svg>