<svg xmlns="http://www.w3.org/2000/svg" viewBox="0 0 31.31 21.59"><defs><style>.cls-1{fill:#e4dbcc;}</style></defs><g id="Layer_2" data-name="Layer 2"><g id="Layer_1-2" data-name="Layer 1"><path class="cls-1" d="M15.65,21.59H1.45C.14,21.59,0,21.45,0,20.16V1.37C0,.18,0,.24,1.21.16c4-.26,8-.12,11.94-.14,4.66,0,9.32,0,14,0,1.16,0,2.32.12,3.49.15.65,0,.68.43.68.92q0,4.68,0,9.35v9.8c0,1.17-.16,1.34-1.35,1.35ZM28.88,1.44H3.16c-.19,0-.47-.1-.55.16s.16.37.31.5c1,.88,2,1.73,2.94,2.62Q10.47,9,15,13.33c.43.4.77.47,1.22,0q2-1.9,4-3.77c1.16-1.08,2.35-2.12,3.51-3.21C25.39,4.81,27,3.21,28.88,1.44ZM22.37,20.17h5.3c.28,0,.68.16.82-.15s-.26-.49-.46-.68C25.51,16.9,23,14.5,20.45,12.07c-.41-.39-.67-.25-1,0-.87.82-1.76,1.62-2.62,2.45-1.18,1.15-1.21,1.15-2.43,0-.83-.81-1.71-1.59-2.55-2.39-.39-.37-.7-.47-1.11,0s-1,1-1.47,1.45L3,19.6c-.15.15-.33.3-.24.54s.35.17.54.2a27.27,27.27,0,0,0,2.86-.18c3,.05,6,0,9.06.11C17.58,20.32,20,20.18,22.37,20.17ZM30,10.8c0-2.48,0-5,0-7.45,0-.25.15-.61-.16-.73s-.5.13-.69.32C26.73,5.51,24,7.81,21.45,10.29c-.39.38-.42.63,0,1,2.46,2.19,4.83,4.46,7.16,6.78a7.6,7.6,0,0,0,.76.62c.16.12.29.39.51.3s.16-.42.16-.65C30.05,15.83,30,13.32,30,10.8ZM1.26,10.74c0,2.25,0,4.49,0,6.74,0,.5-.23,1.3.13,1.43s.93-.47,1.32-.86c2.31-2.31,4.66-4.56,7.1-6.73.47-.42.4-.68,0-1.07-2.66-2.45-5.3-4.93-8-7.39-.12-.12-.24-.32-.44-.24s-.15.37-.15.56Z"/></g></g></svg>