<svg xmlns="http://www.w3.org/2000/svg" viewBox="0 0 824.19 757.02"><defs><style>.cls-1{fill:#b2dacd;}.cls-2{fill:#3f3d56;}.cls-3{opacity:0.1;}.cls-13,.cls-14,.cls-3{isolation:isolate;}.cls-4{fill:#bba247;}.cls-5{fill:#fbbebe;}.cls-6{fill:#2f2e41;}.cls-7{fill:#3f3f3f;}.cls-14,.cls-8{fill:#c1aea7;}.cls-9{fill:#6c63ff;}.cls-10{fill:#fff;}.cls-11{fill:#faf0dc;}.cls-12{fill:#937a48;}.cls-13,.cls-16{fill:#e4dbcc;}.cls-13,.cls-14{opacity:0.5;}.cls-15{fill:#c2b275;}.cls-17{fill:#bba24f;}.cls-18{fill:#bda452;}</style></defs><g id="Layer_2" data-name="Layer 2"><g id="Layer_1-2" data-name="Layer 1"><g id="Layer_2-2" data-name="Layer 2"><g id="Layer_1-2-2" data-name="Layer 1-2"><polygon class="cls-1" points="653.44 741.09 108 246.02 193.29 79.94 793 737.02 653.44 741.09"/><circle class="cls-2" cx="550" cy="342.02" r="11"/><ellipse class="cls-1" cx="405" cy="737.02" rx="405" ry="20"/><polyline class="cls-3" points="218.45 431.98 215.08 453.89 218.45 467.37 218.45 490.97 208.34 534.79 218.45 546.58 230.25 561.75"/><path class="cls-4" d="M223.19,224.14a76.49,76.49,0,0,0,5.88,29.4l4.65,11.16-97.57.8a1.69,1.69,0,0,1-1.58-1.43l-.88-5c-2.92-16.64-2.55-33.45-2.17-50.32A134.76,134.76,0,0,1,137,173.52h0c2.1-7.09,9-15.07,15.61-18.37,7.52-3.77,17.52-2.93,36.39-2.17a10.65,10.65,0,0,1,1.13,0c17,2.67,25,9.67,29,25.67"/><path class="cls-5" d="M190.81,675.1s-3,19-8,22,26,10,26,10l5-30Z"/><path class="cls-6" d="M227.81,458.1l11,13-5,45-4,89s5,91-3,93-44,1-43-4,2-9,4-16,1-46,1-46l5-28-18-121Z"/><path class="cls-7" d="M191.81,694.1s-11-2-12,0-20,23-23,23-25,20-2,21,61-17,61-17-5.59-25.44-5.3-24.22S191.81,699.1,191.81,694.1Z"/><path class="cls-5" d="M179.81,648.1s28,31,29,34,16,0,16,0l6-20-5-7-28-23Z"/><path class="cls-7" d="M219.81,671.1l-14.5,13.65s18.5,28.35,18.5,31.35,1,28,11,24,11-44,11-44-1-34-7-37-19.15-2.05-19.15-2.05S227.81,670.1,219.81,671.1Z"/><path class="cls-6" d="M136.81,369.1s-5,16-6,20-7,15-7,32,2,37,0,39-34,114-20,126,88,78,91,83,4,17,10,15,29-22,30-26-13-11-13-11-56-67-63-66-6-5-5-8,3-5,0-5-1-8,0-12,24-58,24-58l61-27s-3-73-25-93l-5-12S152.81,362.1,136.81,369.1Z"/><path class="cls-5" d="M161.81,211.1s5,35-7,37-22,1-22,2,30,32,30,32l28-2,25-27s-23-4-23-18-1-24-1-24Z"/><path class="cls-3" d="M161.81,211.1s5,35-7,37-22,1-22,2,30,32,30,32l28-2,25-27s-23-4-23-18-1-24-1-24Z"/><circle class="cls-5" cx="177.31" cy="194.6" r="31"/><path class="cls-8" d="M149.81,245.1s-39,5-42,18,20,94,23,101,2,12,2,12a39.63,39.63,0,0,1,32-7c19,4,46,2,46,2s9-37,11-41,10-26,10-32,12-31,12-31-6-18-28-17c0,0-9.6-4.29-12.3-1.14s-17.7,17.14-36.7,11.14S149.81,245.1,149.81,245.1Z"/><path class="cls-8" d="M118.81,262.1h-11l-6,79s22,6,25,2S118.81,262.1,118.81,262.1Z"/><path class="cls-8" d="M224.81,262.1l19,5s14,51,15,52,2,7,2,7,0,1,2,4,5,1,3,5-5,2-3,6,1,15,1,15-5-19-23-14l-12-54Z"/><path class="cls-4" d="M207.51,187.06l-30.87-5.51c-14.45-2.85-27-3.74-32.92-16.71l1.72-2.84h64.25Z"/><circle class="cls-2" cx="204" cy="314.02" r="18"/><circle class="cls-7" cx="204" cy="314.02" r="18"/><circle class="cls-7" cx="204" cy="314.02" r="16.21"/><path class="cls-3" d="M203.29,304.86s-4.14-2.63-8.08,0a5.74,5.74,0,0,0-2.38,3.54,7.88,7.88,0,0,0,1.54,6.7l8.92,11.26a2.68,2.68,0,0,0,2.65,1H206a2.63,2.63,0,0,0,1.68-1.27l6.2-10.9a10.51,10.51,0,0,0,1.34-6.56,5.89,5.89,0,0,0-4.42-5.41S207.23,301.66,203.29,304.86Z"/><path class="cls-1" d="M203.33,305.49s-3.88-2.47-7.58,0a5.32,5.32,0,0,0-2.23,3.33A7.37,7.37,0,0,0,195,315.1l8.37,10.57a2.48,2.48,0,0,0,2.48.9h.05a2.52,2.52,0,0,0,1.58-1.2l5.82-10.22a10,10,0,0,0,1.26-6.16,5.53,5.53,0,0,0-4.16-5.07A7.23,7.23,0,0,0,203.33,305.49Z"/><path class="cls-3" d="M203.48,309.72a3.55,3.55,0,0,0-3.69,0,2.61,2.61,0,0,0-1.09,1.62,3.61,3.61,0,0,0,.71,3.05s4.83,5.69,5.28,5.59h0c.32-.08,3.59-5.56,3.59-5.56a4.78,4.78,0,0,0,.62-3,2.7,2.7,0,0,0-2-2.47A3.48,3.48,0,0,0,203.48,309.72Z"/><circle class="cls-2" cx="188" cy="324.02" r="18"/><circle class="cls-7" cx="188" cy="324.02" r="18"/><circle class="cls-7" cx="188" cy="324.02" r="16.21"/><path class="cls-3" d="M187.29,314.86s-4.14-2.63-8.08,0a5.74,5.74,0,0,0-2.38,3.54,7.88,7.88,0,0,0,1.54,6.7l8.92,11.26a2.68,2.68,0,0,0,2.65,1H190a2.63,2.63,0,0,0,1.68-1.27l6.2-10.9a10.51,10.51,0,0,0,1.34-6.56,5.89,5.89,0,0,0-4.42-5.41S191.23,311.66,187.29,314.86Z"/><path class="cls-1" d="M187.33,315.49s-3.88-2.47-7.58,0a5.32,5.32,0,0,0-2.23,3.33A7.37,7.37,0,0,0,179,325.1l8.37,10.57a2.48,2.48,0,0,0,2.48.9h.05a2.52,2.52,0,0,0,1.58-1.2l5.82-10.22a10,10,0,0,0,1.26-6.16,5.53,5.53,0,0,0-4.16-5.07A7.23,7.23,0,0,0,187.33,315.49Z"/><path class="cls-3" d="M187.48,319.72a3.55,3.55,0,0,0-3.69,0,2.61,2.61,0,0,0-1.09,1.62,3.61,3.61,0,0,0,.71,3.05s4.83,5.69,5.28,5.59h0c.32-.08,3.59-5.56,3.59-5.56a4.78,4.78,0,0,0,.62-3,2.7,2.7,0,0,0-2-2.47A3.48,3.48,0,0,0,187.48,319.72Z"/><path class="cls-2" d="M174.27,279c-.43-.72-2-.7-2-.7-1.39,2.07-4.74-.13-4.74-.13-2.49,1.11-4-2.44-4-2.44-3.35-.5-2.83-4-2.83-4-1.67-.33-1.2-3.34-1.2-3.34s.92-.76.47-1.32a4,4,0,0,1-.28-2A23,23,0,1,0,174.52,279C174.42,279.07,174.33,279.11,174.27,279Z"/><path class="cls-7" d="M174.27,279c-.43-.72-2-.7-2-.7-1.39,2.07-4.74-.13-4.74-.13-2.49,1.11-4-2.44-4-2.44-3.35-.5-2.83-4-2.83-4-1.67-.33-1.2-3.34-1.2-3.34s.92-.76.47-1.32a4,4,0,0,1-.28-2A23,23,0,1,0,174.52,279C174.42,279.07,174.33,279.11,174.27,279Z"/><path class="cls-7" d="M172.91,278.93c-.42-.69-1.87-.67-1.87-.67-1.33,2-4.52-.12-4.52-.12-2.36,1.06-3.81-2.32-3.81-2.32C159.53,275.35,160,272,160,272c-1.59-.32-1.14-3.18-1.14-3.18s.88-.72.45-1.25a3.8,3.8,0,0,1-.27-2,21.87,21.87,0,1,0,14.1,13.24C173.05,279,173,279,172.91,278.93Z"/><path class="cls-9" d="M150.07,277.6s-3.78-2.4-7.38,0a5.21,5.21,0,0,0-2.17,3.24,7.2,7.2,0,0,0,1.41,6.11l8.14,10.28a2.4,2.4,0,0,0,2.42.88h0A2.45,2.45,0,0,0,154,297l5.66-9.95a9.67,9.67,0,0,0,1.23-6,5.38,5.38,0,0,0-4-4.95S153.67,274.68,150.07,277.6Z"/><path class="cls-3" d="M150.07,277.6s-3.78-2.4-7.38,0a5.21,5.21,0,0,0-2.17,3.24,7.2,7.2,0,0,0,1.41,6.11l8.14,10.28a2.4,2.4,0,0,0,2.42.88h0A2.45,2.45,0,0,0,154,297l5.66-9.95a9.67,9.67,0,0,0,1.23-6,5.38,5.38,0,0,0-4-4.95S153.67,274.68,150.07,277.6Z"/><path class="cls-1" d="M150.1,278.18s-3.53-2.26-6.91,0a4.87,4.87,0,0,0-2,3,6.78,6.78,0,0,0,1.32,5.74l7.64,9.65a2.3,2.3,0,0,0,2.27.82h.05a2.27,2.27,0,0,0,1.44-1.09l5.31-9.33a9.07,9.07,0,0,0,1.15-5.63,5,5,0,0,0-3.79-4.63A6.69,6.69,0,0,0,150.1,278.18Z"/><path class="cls-3" d="M150.24,282a3.22,3.22,0,0,0-3.36,0,2.37,2.37,0,0,0-1,1.48,3.28,3.28,0,0,0,.65,2.78s4.41,5.19,4.82,5.1h0a60.34,60.34,0,0,0,3.29-5.08,4.41,4.41,0,0,0,.56-2.73,2.44,2.44,0,0,0-1.85-2.26A3.22,3.22,0,0,0,150.24,282Z"/><polyline class="cls-3" points="139.49 290.24 139.97 291.04 140.94 292.65 141.26 293.78 140.62 294.74 141.42 296.67 141.74 297.8 141.1 298.44 142.38 299.41"/><polyline class="cls-3" points="163.13 283.16 163.13 284.45 162.33 286.54 161.85 287.67 162.65 289.11 162.97 290.08 164.26 290.56 164.74 291.37 164.74 293.3"/><path class="cls-3" d="M171.34,284.45l-1.29.8s-.64.33-.64.49V287"/><polyline class="cls-3" points="165.54 279.95 165.87 281.55 165.54 282.68"/><polyline class="cls-3" points="166.83 294.42 165.87 295.87 164.74 296.83 164.74 297.48 165.38 298.28 165.38 299.25 164.9 300.21"/><polyline class="cls-3" points="157.66 267.08 156.06 267.08 154.77 268.21 152.68 269.33 151.71 270.13 151.71 270.46 149.62 271.58 148.98 272.71"/><path class="cls-3" d="M140.29,269.81l-1.44,2.9-.49,1.12-1.12,1.45a15.43,15.43,0,0,1-1,1.61,7.31,7.31,0,0,1-1.28.48l1.6,1.61"/><polyline class="cls-3" points="133.86 280.91 133.54 283 133.86 284.29 133.86 286.54 132.9 290.72 133.86 291.85 134.99 293.3"/><polyline class="cls-3" points="136.27 281.88 137.24 282.36 137.88 284.45 139.17 284.13 139.81 285.25"/><polyline class="cls-3" points="153.97 302.78 156.54 302.46 157.66 301.34 159.27 301.34"/><polyline class="cls-3" points="138.36 299.41 139.33 300.53 140.94 301.02 142.06 301.34 142.38 303.11"/><polyline class="cls-3" points="157.34 293.94 158.47 293.13 158.95 291.85 159.92 291.69 160.4 290.08"/><path class="cls-8" d="M104.81,333.1l-3,8s-2,26,10,25,19-16,19-16-7-19-15-17S104.81,333.1,104.81,333.1Z"/><path class="cls-5" d="M114.81,338.1s-6,18,1,18,20-11,21-20,19-43,6-40-19,28-19,28Z"/><path class="cls-5" d="M257.81,339.1l6.25,10.44s2.75,19.56-11.25,19.56-34-19-34-19-10-4-16-3-39,0-25-17,38,0,38,0l25,12,13-7Z"/><path class="cls-8" d="M249.31,325.6l-10,16s23,3,25,8-9-26-9-26Z"/><rect class="cls-10" x="278.73" y="459.18" width="389" height="60" rx="12" transform="translate(-174.52 698.16) rotate(-63.83)"/><rect class="cls-11" x="314.39" y="482.19" width="389.41" height="67.46" rx="12" transform="translate(-178.47 745.29) rotate(-63.83)"/><rect class="cls-12" x="363.06" y="631.34" width="112.68" height="99.48" rx="43.31" transform="translate(-376.83 757.11) rotate(-63.83)"/><rect class="cls-12" x="535.7" y="291.17" width="112.68" height="103.89" rx="43.31" transform="translate(22.98 723.14) rotate(-63.83)"/><rect class="cls-4" x="250.19" y="23.71" width="198" height="255" rx="12" transform="translate(-31.07 137.11) rotate(-21.29)"/><path class="cls-13" d="M243.1,75.83l6.9-2.69A12,12,0,0,1,265.54,80l5,12.93a12,12,0,0,1-6.82,15.54l-5,2a12,12,0,0,1-15.54-6.83l-5.76-14.78A10,10,0,0,1,243.1,75.83Z"/><path class="cls-13" d="M259.19,118.91l6.9-2.69A12,12,0,0,1,281.63,123l5,12.93a12,12,0,0,1-6.82,15.53l-5,2a12,12,0,0,1-15.54-6.82l-5.76-14.79a10,10,0,0,1,5.68-12.94Z"/><path class="cls-13" d="M276.19,161.9l6.9-2.69A12,12,0,0,1,298.63,166l5,12.92a12,12,0,0,1-6.82,15.54l-5,2a12,12,0,0,1-15.54-6.83l-5.76-14.78A10,10,0,0,1,276.19,161.9Z"/><path class="cls-13" d="M310.19,246.9l6.89-2.68A12,12,0,0,1,332.62,251l5,12.92a12,12,0,0,1-6.83,15.54l-5,2a12,12,0,0,1-15.54-6.82l-5.76-14.79A10,10,0,0,1,310.19,246.9Z"/><path class="cls-13" d="M294.2,203.91l6.89-2.69A12,12,0,0,1,316.63,208l5,12.93a12,12,0,0,1-6.83,15.54l-5,2a12,12,0,0,1-15.54-6.83l-5.76-14.79A10,10,0,0,1,294.2,203.91Z"/><path class="cls-13" d="M282.45,60.94l6.9-2.69a12,12,0,0,1,15.53,6.83l5,12.92a12,12,0,0,1-6.82,15.54l-5,2a12,12,0,0,1-15.53-6.83l-5.77-14.78A10,10,0,0,1,282.45,60.94Z"/><path class="cls-13" d="M298.53,104l6.9-2.69A12,12,0,0,1,321,108.15l5,12.93a12,12,0,0,1-6.82,15.54l-5,2a12,12,0,0,1-15.53-6.83h0L292.84,117A10,10,0,0,1,298.53,104Z"/><path class="cls-13" d="M315.53,147l6.9-2.69A12,12,0,0,1,338,151.15l5,12.92a12,12,0,0,1-6.82,15.54l-5,2a12,12,0,0,1-15.54-6.82L309.85,160A10,10,0,0,1,315.53,147Z"/><path class="cls-13" d="M349.54,232l6.89-2.68A12,12,0,0,1,372,236.15l5,12.93a12,12,0,0,1-6.83,15.53l-5,2a12,12,0,0,1-15.54-6.82L343.85,245A10,10,0,0,1,349.54,232Z"/><path class="cls-13" d="M333.54,189l6.89-2.69A12,12,0,0,1,356,193.16l5,12.92a12,12,0,0,1-6.82,15.54l-5,2a12,12,0,0,1-15.54-6.83L327.85,202A10,10,0,0,1,333.54,189Z"/><path class="cls-13" d="M325.45,45l6.89-2.69a12,12,0,0,1,15.54,6.83l5,12.92a12,12,0,0,1-6.83,15.54l-5,2a12,12,0,0,1-15.54-6.83L319.76,57.9A10,10,0,0,1,325.45,45Z"/><path class="cls-13" d="M341.54,88l6.89-2.69A12,12,0,0,1,364,92.15l5,12.93a12,12,0,0,1-6.83,15.54l-5,2a12,12,0,0,1-15.54-6.83L335.85,101A10,10,0,0,1,341.54,88Z"/><path class="cls-13" d="M358.54,131l6.89-2.69A12,12,0,0,1,381,135.16l5,12.92a12,12,0,0,1-6.83,15.54l-5,2a12,12,0,0,1-15.53-6.82L352.85,144A10,10,0,0,1,358.54,131Z"/><path class="cls-13" d="M392.53,216l6.9-2.68A12,12,0,0,1,415,220.15l5,12.92a12,12,0,0,1-6.82,15.54l-5,2a12,12,0,0,1-15.54-6.82L386.85,229A10,10,0,0,1,392.53,216Z"/><path class="cls-13" d="M376.53,173l6.9-2.69A12,12,0,0,1,399,177.16l5,12.92a12,12,0,0,1-6.82,15.54l-5,2a12,12,0,0,1-15.53-6.83L370.84,186A10,10,0,0,1,376.53,173Z"/><path class="cls-13" d="M366.45,27.94l6.89-2.69a12,12,0,0,1,15.54,6.83l5,12.92a12,12,0,0,1-6.83,15.54l-5,2a12,12,0,0,1-15.54-6.82l-5.76-14.79a10,10,0,0,1,5.69-12.95Z"/><path class="cls-13" d="M382.54,71l6.89-2.69A12,12,0,0,1,405,75.16l5,12.92a12,12,0,0,1-6.83,15.54l-5,2a12,12,0,0,1-15.54-6.82L376.85,84A10,10,0,0,1,382.54,71Z"/><path class="cls-13" d="M399.54,114l6.89-2.68A12,12,0,0,1,422,118.15l5,12.92a12,12,0,0,1-6.83,15.54l-5,2a12,12,0,0,1-15.54-6.82L393.85,127A10,10,0,0,1,399.54,114Z"/><path class="cls-13" d="M433.53,199l6.9-2.69A12,12,0,0,1,456,203.15l5,12.93a12,12,0,0,1-6.82,15.54l-5,2a12,12,0,0,1-15.54-6.83L427.84,212A10,10,0,0,1,433.53,199Z"/><path class="cls-13" d="M417.54,156l6.9-2.69A12,12,0,0,1,440,160.16l5,12.92a12,12,0,0,1-6.82,15.54l-5,2a12,12,0,0,1-15.53-6.82L411.85,169A10,10,0,0,1,417.54,156Z"/><rect class="cls-14" x="243.4" y="432.8" width="389.41" height="67.01" rx="12" transform="translate(-173.62 653.84) rotate(-63.83)"/><rect class="cls-11" x="230" y="447.34" width="389.41" height="67.01" rx="12" transform="translate(-194.16 649.94) rotate(-63.83)"/><rect class="cls-12" x="455.22" y="260.72" width="112.68" height="96.53" rx="43.38" transform="translate(8.63 631.83) rotate(-63.83)"/><rect class="cls-12" x="291.3" y="596.42" width="112.68" height="106.02" rx="43.38" transform="translate(-388.54 675.01) rotate(-63.83)"/><circle class="cls-15" cx="700.19" cy="619.7" r="124"/><circle class="cls-4" cx="693.19" cy="620.7" r="117"/><circle class="cls-8" cx="693.3" cy="619.84" r="96.89"/><circle class="cls-16" cx="693.56" cy="619.37" r="76.67"/><path class="cls-1" d="M710.46,602.92c1-1.38,2-2.7,3-4,3.18-4.46,6.33-8.94,9.51-13.4,1.51-2.13,3.08-4.22,4.56-6.38.53-.77.84-.49,1.22.06,2,2.8,3.93,5.61,5.91,8.41q5.13,7.27,10.28,14.54a1.29,1.29,0,0,1,0,1.82c-5,6.9-9.92,13.83-14.87,20.76-.51.72-1.06,1.42-1.51,2.17s-.59.41-.9,0l-7.56-10.49-7.62-10.58c-.5-.68-1-1.36-1.48-2.06s-.63-.5-1,0q-4.17,5.88-8.37,11.73c-2.66,3.74-5.34,7.47-8,11.23-.48.68-.73.54-1.14,0q-8.16-11.31-16.34-22.59a1.52,1.52,0,0,1,0-2.11c5.06-7,10.06-14,15.07-21,.46-.63.89-1.28,1.33-1.92s.67-.56,1.08,0q4.46,6.39,9,12.74C705.16,595.49,707.79,599.17,710.46,602.92Zm22.42-.13v-6.47a5.27,5.27,0,0,0-1.22-3.42c-1.36-1.66-3.86-1.78-5.78-1.16a4.61,4.61,0,0,0-3,4.6v12.41a5.61,5.61,0,0,0,.76,2.94,5,5,0,0,0,5.77,2,4.52,4.52,0,0,0,3.43-4.54C732.9,607,732.88,604.92,732.88,602.79Zm-43.39-.15v10c0,.52,0,1,.73,1h7.12c.49,0,.72-.18.69-.68a6.25,6.25,0,0,1,0-1.06c.06-.67-.24-.86-.87-.84h-3.62c-1.48,0-1.48,0-1.48-1.43V592.74c0-1-.51-1.06-1.24-1s-1.41-.24-1.39,1c.11,3.26.06,6.57.06,9.9Z"/><path class="cls-1" d="M657.86,627.29a4,4,0,0,1-.39-.43l-11.62-16.17c-1.71-2.37-3.42-4.76-5.17-7.11-.41-.54-.19-.9.1-1.31,2.13-2.95,4.27-5.89,6.39-8.85l10-14c.75-1,.77-1,1.49,0q8.1,11.48,16.2,22.92a1.09,1.09,0,0,1,0,1.5q-7.11,9.88-14.17,19.82c-.78,1.09-1.57,2.17-2.36,3.26C658.22,627,658.17,627.24,657.86,627.29ZM654,602.64V612c0,1.73-.28,1.55,1.57,1.61.8,0,1-.23,1-1-.05-2.48,0-5,0-7.43,0-1.54,0-1.54,1.48-1.54a12.06,12.06,0,0,1,1.7,0c.86.09,1.18-.25,1.06-1.08a2.3,2.3,0,0,1,0-.74c.06-.63-.25-.8-.82-.78h-2.55c-.62,0-.9-.14-.88-.83v-5c0-.6.21-.81.8-.8h3.51c1.83,0,1.61.29,1.68-1.73,0-.8-.23-1-1-1-2.2.05-4.4,0-6.59,0-.76,0-1,.25-1,1C654,596,654,599.31,654,602.64Z"/><path class="cls-17" d="M649.93,647.66v-6.59c0-5.08,5-6.25,8.09-4.56a4.8,4.8,0,0,1,2.33,4.06,9,9,0,0,1,0,1.27c0,1.77.19,1.44-1.51,1.55-1,.06-1.44-.22-1.31-1.28a5.24,5.24,0,0,0-.1-1.58,1.93,1.93,0,0,0-2-1.88h-.18a2.1,2.1,0,0,0-2.45,1.7.3.3,0,0,0,0,.1,3.93,3.93,0,0,0-.09.84v12.75c0,1.88.86,2.65,2.72,2.55,1.34-.08,2-.67,2.08-2.19s0-3.11,0-4.67c0-.73-.5-.61-1-.66s-1.16.28-1.38-.21a5,5,0,0,1-.08-2.3c0-.32.36-.28.61-.28h3.93c.5,0,.68.17.68.68,0,2.62.06,5.25,0,7.87-.12,2.92-2.25,4.7-5.36,4.66a4.87,4.87,0,0,1-5-4.74v-.4Q649.94,651,649.93,647.66Z"/><path class="cls-17" d="M725.42,645.81V637.2c0-.79.13-1.13,1-1.1,1.78.06,1.78,0,1.78,1.83v15.94c0,2.13.93,2.94,3,2.71a1.76,1.76,0,0,0,1.7-1.58,9.55,9.55,0,0,0,.16-1.68V637.27c0-.95.25-1.3,1.18-1.15a4.18,4.18,0,0,0,1,0c.49,0,.68.16.68.68,0,6,.06,12,0,18-.06,3-2.29,4.79-5.52,4.73a4.8,4.8,0,0,1-4.86-4.74v-.26C725.39,651.62,725.42,648.71,725.42,645.81Z"/><path class="cls-17" d="M675.63,659.22c-1,.32-1.39-.3-1.49-1.37-.08-.8-.34-1.59-.43-2.39s-.38-1.17-1.26-1.07a13,13,0,0,1-2.65,0c-.88-.08-1.18.31-1.28,1.1-.14,1-.39,1.94-.51,2.92-.08.64-.35.83-1,.8-2.21-.1-2.23.49-1.7-2.06q2-9.64,4-19.29c.34-1.68,1.24-2.23,2.89-1.73.37.11.36.38.42.65q2.22,10.68,4.45,21.37C677.34,659.23,677.33,659.23,675.63,659.22ZM671,642.64c-.54,2.81-1.09,5.61-1.63,8.41-.09.44.15.57.53.57h2.44c.44,0,.69-.14.58-.63A59.44,59.44,0,0,0,671,642.64Z"/><path class="cls-17" d="M719.19,659.21c-1,.32-1.48-.26-1.59-1.39-.08-.88-.33-1.74-.47-2.61-.1-.56-.29-.86-1-.82-1.06.05-2.13.05-3.19,0a.78.78,0,0,0-.91.75c-.2,1.12-.46,2.22-.64,3.34-.08.51-.27.71-.81.74-2.2.12-2.23.13-1.79-2q1.83-8.94,3.72-17.86c.17-.83.43-1.65.52-2.49.08-.68.4-.77,1-.76,1.92,0,2,0,2.34,1.85q2,9.7,4,19.42a1.46,1.46,0,0,0,.11.41C720.87,659.22,720.87,659.22,719.19,659.21Zm-4.51-16.51a1,1,0,0,0-.42.84c-.35,1.73-.64,3.47-1,5.2-.62,2.93-.64,2.91,2.33,2.88.71,0,.93-.13.75-.89-.37-1.62-.61-3.26-1-4.89A15.26,15.26,0,0,0,714.68,642.7Z"/><path class="cls-17" d="M694.82,647.63V637.11c0-.8.2-1,1-1h7.12c.77,0,1.06.14,1,1-.05,1.81,0,1.84-1.76,1.89-1.24,0-2.48,0-3.71,0-.61,0-.89.15-.88.83v5.42c0,.64.27.78.83.76h2.87c.55,0,.71.18.74.73.09,2.17.11,2.17-2.06,2.17-2.36,0-2.37,0-2.37,2.4v4.14c0,.74.23,1,1,1h4.57c.6,0,.82.19.81.79-.08,2.44.32,2.08-2,2.09-2,0-4-.07-6,0-1,0-1.15-.33-1.14-1.2C694.84,654.57,694.82,651.1,694.82,647.63Z"/><path class="cls-18" d="M683.39,649.1v-8.93c0-1-.3-1.29-1.21-1.15h-.63c-2.27,0-2.27,0-2-2.29,0-.47.23-.6.66-.6h9.35c.46,0,.58.21.61.64.18,2.25.2,2.25-2.08,2.25-1.79,0-1.79,0-1.79,1.81v17.32c0,.92-.3,1.13-1.15,1.09-1.9-.11-1.78.37-1.78-1.86V649.1Z"/><path class="cls-18" d="M671.08,631.53a1.71,1.71,0,0,1,2.2,1,.19.19,0,0,0,0,.07c.21.41.51.77.74,1.16s.75.8.42,1.05a1.37,1.37,0,0,1-1.59-.1,7.42,7.42,0,0,1-1.14-1.1c-.43-.5-.73-.46-1.19,0s-1.08,1.46-2.15,1.33c-.24,0-.53.11-.69-.13s.1-.46.23-.66c.3-.47.67-.91.93-1.41C669.35,631.84,669.92,631.16,671.08,631.53Z"/><path class="cls-10" d="M732.88,602.79v6.37a4.52,4.52,0,0,1-3.43,4.54,5,5,0,0,1-5.77-2,5.61,5.61,0,0,1-.76-2.94V596.35a4.61,4.61,0,0,1,3-4.6c1.92-.62,4.42-.5,5.78,1.16a5.27,5.27,0,0,1,1.22,3.42C732.89,598.48,732.88,600.64,732.88,602.79Zm-2.75-.18v-6.49a1.86,1.86,0,0,0-1.43-2,2.21,2.21,0,0,0-2.86,1.28,2.18,2.18,0,0,0-.14,1V609a2.1,2.1,0,0,0,1.94,2.25H728a2,2,0,0,0,2.21-1.77,2.57,2.57,0,0,0,0-.48C730.15,606.85,730.14,604.73,730.13,602.61Z"/><path class="cls-10" d="M689.49,602.64v-10c0-1.21.72-.93,1.39-1s1.25,0,1.24,1c0,5.63,0,11.26,0,16.89,0,1.43,0,1.43,1.48,1.43h3.62c.63,0,.93.17.87.84a6.25,6.25,0,0,0,0,1.06c0,.5-.2.68-.69.68h-7.12c-.78,0-.73-.46-.73-1C689.5,609.29,689.49,606,689.49,602.64Z"/><path class="cls-10" d="M654,602.64v-10c0-.73.2-1,1-1,2.19,0,4.39.05,6.59,0,.79,0,1,.23,1,1-.07,2,.15,1.71-1.68,1.73H657.4c-.59,0-.81.2-.8.8v5c0,.69.26.86.88.83H660c.57,0,.88.15.82.78a3.05,3.05,0,0,0,0,.74c.12.83-.2,1.17-1.06,1.08a12.06,12.06,0,0,0-1.7,0c-1.48,0-1.48,0-1.48,1.54v7.43c0,.79-.22,1-1,1-1.85-.06-1.56.12-1.57-1.61C654,608.87,654,605.75,654,602.64Z"/><path class="cls-1" d="M730.13,602.61V609a2,2,0,0,1-1.72,2.24,1.93,1.93,0,0,1-.48,0,2.1,2.1,0,0,1-2.26-1.93,1.71,1.71,0,0,1,0-.32V596.44a2.22,2.22,0,0,1,2-2.43,2.3,2.3,0,0,1,1,.14,1.86,1.86,0,0,1,1.43,2Z"/></g></g></g></g></svg>