<?xml version="1.0" encoding="utf-8"?>
<!-- Generator: Adobe Illustrator 25.1.0, SVG Export Plug-In . SVG Version: 6.00 Build 0)  -->
<svg version="1.1" id="Layer_1" xmlns="http://www.w3.org/2000/svg" xmlns:xlink="http://www.w3.org/1999/xlink" x="0px" y="0px"
	 viewBox="0 0 1584 765" style="enable-background:new 0 0 1584 765;" xml:space="preserve">
<style type="text/css">
	.st0{fill:#FFFFFF;stroke:#B2DBCD;stroke-miterlimit:10;}
	.st1{fill:#B2DACD;}
	.st2{fill:#FFB8B8;}
	.st3{fill:#2F2E41;}
	.st4{fill:#C1AEA7;}
	.st5{opacity:0.15;enable-background:new    ;}
	.st6{fill:#BBA247;}
	.st7{fill:#E4DBCC;}
	.st8{opacity:0.5;fill:#CCB164;}
	.st9{opacity:0.5;fill:#CCB164;stroke:#CCB164;stroke-width:1.2843;stroke-miterlimit:10;}
	.st10{opacity:0.15;fill:#FFFFFF;}
	.st11{opacity:0.15;fill:#E4DBCC;}
	.st12{opacity:0.25;fill:#CCB164;}
	.st13{fill:#FFFFFF;}
	.st14{stroke:#3F3F3F;stroke-miterlimit:10;}
	.st15{fill:#3F3F3F;}
	.st16{fill:#B2DBCD;}
	.st17{display:none;fill:#E4DBCC;}
</style>
<g id="Layer_2_5_">
	<g id="Layer_1-2_4_">
		<path class="st0" d="M275,422.2"/>
		<path class="st0" d="M167.6,535.6"/>
		<path class="st1" d="M298.4,543.1"/>
		<path class="st1" d="M244.2,457.6"/>
		<path class="st2" d="M202.4,677.7c0,0,25.8,1.1,25.8,7.5s-29,0-29,0L202.4,677.7z"/>
		<path class="st3" d="M163.7,764.5h-47.8l-2.6-17l-10.4,17h-48c1.1-40.8,18.7-81.4,19.8-86.8s3.6-27.5,3.6-27.5
			c4.7-10,29.3-10.9,48.5-10c8,0.4,15.1,1,19.4,1.5c2.9,0.3,4.6,0.6,4.6,0.6c7.7,7.9,12.7,18.7,15.7,30.8
			C177.6,716.6,163.7,764.5,163.7,764.5z"/>
		<circle class="st2" cx="110.1" cy="500.7" r="26.8"/>
		<path class="st2" d="M91.8,507.1c0,0-7.5,33.3-19.3,42.9s46.2,0,46.2,0s-12.9-21.5-3.2-31.1S91.8,507.1,91.8,507.1z"/>
		<path class="st4" d="M146.6,644.5l-17.8,2L79,652l-0.7-1.8c-3.6-9.9-21-57.9-23-72.3c-2.1-16.2,20.4-35.5,20.4-35.5
			s21.5-4.3,27.9-4.3s32.2,9.7,32.2,9.7l9.6,86.4l0.8,7.5L146.6,644.5z"/>
		<path class="st5" d="M166.6,673.1L130.5,652l-1.7-5.5l-1.9-6.2c-4.2-13.4-11.1-35.4-16.8-51.6c-8.6-24.7,33.3,44,33.3,44l2.1,1.6
			l0.8,7.5c2.9,0.3,4.6,0.6,4.6,0.6C158.6,650.3,163.5,661.1,166.6,673.1z"/>
		<path class="st4" d="M118.7,550c0,0-10.7,14-2.1,38.6s20.4,63.3,20.4,63.3l62.3,36.5l8.6-10.7l-58-45.1c0,0-2.1-81.6-12.8-84.8
			C130.8,545.9,124.1,546.7,118.7,550z"/>
		<path class="st2" d="M65.6,643.9c0,0,15,31.1,21.5,27.9s-16.1-35.4-16.1-35.4L65.6,643.9z"/>
		<path class="st4" d="M63.9,558.6L7.1,605.8c0,0-21.5,15,18.2,25.8s42.9,17.2,42.9,17.2s4.3-14,9.7-11.8l-46.2-22.5l37.6-22.5
			L63.9,558.6z"/>
		<path class="st6" d="M41.1,522.7c5.2-2.4,10.3-5,15.2-8c-0.4-11.7,1-22.3,5.3-27.9c2.4-5.4,7.3-10.8,11.2-15
			c9.6-10.4,30.7-16.2,34.4-11c28.4,0.6,31.3,22.8,31.3,22.8c-0.1,9.3-9.8,9.6-18.3,9.2c0.8,6.4-1.3,12.9-7.1,15.9
			c-11.2,5.6-14.5,12.9-9,17.9c5.5,5,15.6,18.5,2.2,21.8s-15.1,10.1-11.2,12.9s-8.9-5-8.9-5s-2.2,13.4-14,10.1
			c-1.2-0.4-2.3-1.2-3.1-2.2c-3.2,3.5-6,5.5-8.1,5.5c-12.2,0.1-10.7-13.5-10.7-13.5s-14.5,4.1-10,2.4s4.7-8.5-7.3-15.4
			S34.3,526,41.1,522.7z"/>
		<path class="st1" d="M198.9,529.7h-0.2l0.5,1.8c0.4,2.5,1.1,5,1.9,7.4l13.9,52.9c0.9,3.5,3.8,6,7.3,6.6l28.4,4.4
			c3.8,0.6,7.5-1.3,9.3-4.6l27-50.4c0.9-1.4,1.6-2.8,2.3-4.3l0.9-1.7h-0.1c10.3-24.3-1.1-52.3-25.4-62.5s-52.3,1.1-62.5,25.4
			C198.9,512.6,197.7,521.3,198.9,529.7L198.9,529.7z"/>
		<path class="st1" d="M252.5,606.3c-0.5,0-1,0-1.5-0.1l-29.7-4.6c-3.9-0.6-7-3.4-8-7.2l-14.6-55.3c-0.9-2.5-1.5-5.1-2-7.8l-0.4-2.4
			c-3.5-27.6,16-52.8,43.5-56.3c4.7-0.6,9.4-0.5,14.1,0.2l-0.1,0.8c-27-4.2-52.3,14.4-56.5,41.4c-0.7,4.7-0.8,9.6-0.1,14.3l0.3,1.8
			c0.5,2.6,1.1,5.2,2,7.7l14.6,55.4c0.9,3.4,3.8,6,7.3,6.6l29.7,4.6c3.8,0.6,7.5-1.3,9.3-4.6l0.7,0.4
			C259.4,604.3,256.1,606.3,252.5,606.3z"/>
		
			<rect x="225.3" y="566.1" transform="matrix(0.344 -0.939 0.939 0.344 -367.101 607.9169)" class="st7" width="52.5" height="1.1"/>
		
			<rect x="230.7" y="537.2" transform="matrix(0.999 -4.396812e-02 4.396812e-02 0.999 -24.5506 10.7104)" class="st7" width="1.1" height="52.5"/>
		<path class="st1" d="M250,631.4l-38-5.9c-0.6-0.1-1-0.7-0.8-1.3c0.1-0.5,0.6-0.9,1.2-0.8l38,5.9c0.6,0.1,1,0.6,0.9,1.2
			C251.1,631.1,250.6,631.5,250,631.4L250,631.4z"/>
		<path class="st1" d="M251,623.3l-38-5.9c-0.6-0.1-1-0.7-0.8-1.3c0.1-0.5,0.6-0.9,1.1-0.8l0,0l38,5.9c0.6,0.1,1,0.6,0.9,1.2
			C252.1,623,251.6,623.4,251,623.3z"/>
		<path class="st1" d="M251.9,615.2l-38-5.9c-0.6-0.1-1-0.6-0.9-1.2c0.1-0.6,0.6-1,1.2-0.9l0,0l38,5.9c0.6,0.1,1,0.6,0.9,1.2
			C253,614.9,252.5,615.3,251.9,615.2L251.9,615.2L251.9,615.2z"/>
		<path class="st1" d="M229.8,636.1c7.5,1.2,14.3-2.1,15.1-7.3l-27.3-4.2C216.8,629.8,222.2,634.9,229.8,636.1z"/>
		<path class="st7" d="M243.5,531.4c-1.5-0.4-2.8-1.2-3.7-2.4c-0.2-0.3-0.5-0.6-0.7-0.9c-0.7-1.1-1.7-2-2.8-2.6
			c-2.5-1.2-5.4,0.5-8,2.2l-0.6-0.9c2.8-1.9,6.1-3.7,9-2.3c1.3,0.7,2.4,1.7,3.2,2.9l0.7,0.8c0.8,0.9,2.3,2.3,3.9,2
			c0.7-0.2,1.3-0.5,1.9-1c0.4-0.3,0.9-0.6,1.3-0.8c1.9-0.9,4.2-0.6,5.8,0.8c0.3,0.3,0.5,0.5,0.8,0.8c0.4,0.6,0.9,1,1.5,1.3
			c0.9,0.3,1.8-0.2,2.8-0.8c1-0.7,2.1-1,3.3-1h0.1c2.1,0.3,3.1,2.7,3.7,4.5l-1,0.3c-0.8-2.4-1.7-3.6-2.9-3.7c-0.9,0-1.9,0.3-2.6,0.9
			c-1.1,0.6-2.3,1.3-3.7,0.8c-0.8-0.3-1.5-0.9-2-1.6c-0.2-0.3-0.5-0.5-0.7-0.8c-1.3-1.1-3.1-1.4-4.6-0.7c-0.4,0.2-0.8,0.5-1.2,0.8
			c-0.7,0.6-1.5,1-2.3,1.2C244.3,531.4,243.9,531.4,243.5,531.4z"/>
		<rect x="21" y="35.5" class="st8" width="896" height="225"/>
		<rect x="292.9" y="250.5" class="st8" width="10" height="55"/>
		<rect x="365" y="352.5" class="st9" width="1125" height="266"/>
		<rect x="1079.9" y="307.5" class="st8" width="10" height="55"/>
		<rect x="822.9" y="362.5" class="st10" width="524" height="318"/>
		<rect x="1002.5" y="302.1" class="st11" width="451.7" height="1.1"/>
		<rect x="28" y="301.5" class="st12" width="1552.9" height="10"/>
		<circle class="st8" cx="1084.9" cy="306.5" r="16"/>
		<circle class="st7" cx="1084.9" cy="306.5" r="5"/>
		<circle class="st8" cx="297.9" cy="306.5" r="16"/>
		<circle class="st7" cx="297.9" cy="306.5" r="5"/>
		<polygon class="st13" points="376.3,361 1479,362.2 1479,605.5 375,605.5 		"/>
		<polygon class="st13" points="33.9,45 906.5,43.6 906.4,250.5 36.2,250.5 		"/>
		<path class="st6" d="M1540.9,88.1h-59.2c-8-21.7-11.5-41.9,0-57c0-16.3,13.2-29.6,29.6-29.6l0,0c9.6,0,18.6,4.6,24.1,12.5
			c4.6,6.6,5.7,15.1,2.9,22.6C1533.5,50.2,1536.5,68.7,1540.9,88.1z"/>
		<path class="st14" d="M1572.1,301.9L1572.1,301.9c-3.5,0-6.6-2.3-7.7-5.7l-2.4-7.9c-0.6-1.8-0.7-3.8-0.3-5.7l1.7-8.8h11.7
			l4.9,17.9c1.2,4.3-1.4,8.7-5.6,9.8c0,0,0,0,0,0C1573.6,301.8,1572.9,301.9,1572.1,301.9z"/>
		<path class="st14" d="M1487.2,301.9L1487.2,301.9c3.5,0,6.6-2.3,7.7-5.7l2.4-7.9c0.6-1.8,0.7-3.8,0.3-5.7l-1.7-8.8h-11.7
			l-4.8,17.9c-1.2,4.3,1.4,8.7,5.6,9.8c0,0,0,0,0,0C1485.8,301.8,1486.5,301.9,1487.2,301.9z"/>
		<path class="st3" d="M1576,274.8h-12.9L1507,168.3l-10.3,106.5h-11.4c-5.8-67.1-20.1-130.9,0-155l46.9,4.4L1576,274.8z"/>
		<circle class="st2" cx="1509.7" cy="32.1" r="15.7"/>
		<path class="st2" d="M1531.9,92.7h-35l-6-27.7c11.6-3.4,14.4-11.4,12-22l18.9-1.3c1.1,8.6,3,16.6,15.1,18L1531.9,92.7z"/>
		<path class="st4" d="M1531.9,127.4c-19.8,7.5-36,7.3-47.3-3.2c5.1-16.8,5.4-37.4,3.2-60.2l6.3-2.8l2.2,20.2l31.2-1.6l6.9-22.1
			l6.9,1.6C1541.9,86.7,1540.2,111.3,1531.9,127.4z"/>
		<path class="st2" d="M1550.2,161.4l3.7,12c1.1,3.4-0.8,7.1-4.3,8.1c-0.6,0.2-1.3,0.3-2,0.3l0,0c-3.6,0-6.5-2.9-6.5-6.5
			c0,0,0,0,0,0c0-0.2,0-0.4,0-0.7l1.4-13.9l-6-47.3l4.4-20.8h11L1550.2,161.4z"/>
		<path class="st2" d="M1461.9,158.9l-6.5,10.8c-1.9,3.1-0.9,7.1,2.1,8.9c0,0,0.1,0,0.1,0.1c0.6,0.3,1.2,0.6,1.8,0.7l0,0
			c3.5,0.9,7-1.2,7.9-4.7c0,0,0,0,0,0c0-0.2,0.1-0.4,0.1-0.7l2-13.9l17.3-44.4l3.5-21.3l-13.4-2.7L1461.9,158.9z"/>
		<path class="st4" d="M1559.9,95.2l-20.8-0.3V58.7l3.2,0.5c7,1,12.4,6.7,13,13.7L1559.9,95.2z"/>
		<path class="st4" d="M1471.1,99l20.8-0.3V62.5l-3.2,0.5c-7,1-12.4,6.7-13,13.7L1471.1,99z"/>
		<path class="st6" d="M1524.2,24.5c-6.7,3.8-19.6,5.5-29,2.8L1492,11h31.2L1524.2,24.5z"/>
		<rect x="1173.8" y="219" class="st1" width="102.6" height="82.7"/>
		<rect x="1216.5" y="277.7" class="st15" width="17.4" height="23.5"/>
		<polygon class="st16" points="1402.5,221.4 1405.3,214.1 1430.8,199.6 1448,195.9 		"/>
		<polygon class="st16" points="1308.8,221.4 1306,214.1 1280.6,199.6 1263.3,195.9 		"/>
		<polygon class="st16" points="1404.4,223.2 1307,223.2 1298.8,185 1412.5,185 		"/>
		<rect x="1306.5" y="220.9" class="st16" width="98.3" height="80.7"/>
		<rect x="1347" y="277.6" class="st15" width="17.4" height="23.5"/>
		<rect x="1204.5" y="237.5" class="st17" width="40.8" height="12.8"/>
		<polygon class="st17" points="1342.5,249.8 1355.2,232 1367.8,249.8 1355.2,267.7 		"/>
	</g>
</g>
</svg>
