<?xml version="1.0" encoding="utf-8"?>
<!-- Generator: Adobe Illustrator 25.0.1, SVG Export Plug-In . SVG Version: 6.00 Build 0)  -->
<svg version="1.1" id="Layer_1" xmlns="http://www.w3.org/2000/svg" xmlns:xlink="http://www.w3.org/1999/xlink" x="0px" y="0px"
	 viewBox="0 0 1600 763" style="enable-background:new 0 0 1600 763;" xml:space="preserve">
<style type="text/css">
	.st0{fill:#FFB8B8;}
	.st1{fill:#2F2E41;}
	.st2{fill:#C1AEA7;}
	.st3{opacity:0.15;enable-background:new    ;}
	.st4{fill:#BBA247;}
	.st5{fill:#B2DACD;}
	.st6{fill:#E4DBCC;}
	.st7{fill:#CCB164;}
	.st8{stroke:#3F3F3F;stroke-miterlimit:10;}
	.st9{fill:#3F3F3F;}
	.st10{fill:#FFFFFF;}
	.st11{fill:#FF6584;}
</style>
<path class="st0" d="M221.5,676.2c0,0,25.8,1.1,25.8,7.5s-29,0-29,0L221.5,676.2z"/>
<path class="st1" d="M182.8,763H135l-2.6-17L122,763H74c1.1-40.8,18.7-81.4,19.8-86.8s3.6-27.5,3.6-27.5c4.7-10,29.3-10.9,48.5-10
	c8,0.4,15.1,1,19.4,1.5c2.9,0.3,4.6,0.6,4.6,0.6c7.7,7.9,12.7,18.7,15.7,30.8C196.6,715.1,182.8,763,182.8,763z"/>
<circle class="st0" cx="129.2" cy="499.2" r="26.8"/>
<path class="st0" d="M110.9,505.6c0,0-7.5,33.3-19.3,42.9s46.2,0,46.2,0s-12.9-21.5-3.2-31.1S110.9,505.6,110.9,505.6z"/>
<path class="st2" d="M165.7,643l-17.8,2l-49.8,5.5l-0.7-1.8c-3.6-9.9-21-57.9-23-72.3C72.3,560.3,94.8,541,94.8,541
	s21.5-4.3,27.9-4.3s32.2,9.7,32.2,9.7l9.6,86.4l0.8,7.5L165.7,643z"/>
<path class="st3" d="M185.7,671.6l-36.1-21.2l-1.7-5.5l-1.9-6.2c-4.2-13.4-11.1-35.4-16.8-51.6c-8.6-24.7,33.3,44,33.3,44l2.1,1.6
	l0.8,7.5c2.9,0.3,4.6,0.6,4.6,0.6C177.7,648.8,182.6,659.6,185.7,671.6z"/>
<path class="st2" d="M137.8,548.5c0,0-10.7,14-2.1,38.6s20.4,63.3,20.4,63.3l62.3,36.5l8.6-10.7l-58-45.1c0,0-2.1-81.6-12.8-84.8
	C149.9,544.4,143.2,545.2,137.8,548.5z"/>
<path class="st0" d="M84.7,642.4c0,0,15,31.1,21.5,27.9S90,634.9,90,634.9L84.7,642.4z"/>
<path class="st2" d="M83,557.1l-56.8,47.2c0,0-21.5,15,18.2,25.8s42.9,17.2,42.9,17.2s4.3-14,9.7-11.8L50.8,613l37.6-22.5L83,557.1z
	"/>
<path class="st4" d="M60.2,521.2c5.2-2.4,10.3-5.1,15.2-8c-0.4-11.7,1-22.3,5.3-27.9c2.4-5.4,7.3-10.8,11.2-15
	c9.6-10.4,30.7-16.2,34.4-11c28.3,0.6,31.3,22.8,31.3,22.8c-0.1,9.3-9.8,9.6-18.3,9.3c0.8,6.4-1.3,12.9-7.1,15.9
	c-11.2,5.6-14.5,12.9-9,17.9s15.6,18.5,2.2,21.8s-15.1,10.1-11.2,12.9s-8.9-5-8.9-5s-2.2,13.4-14,10.1c-1.2-0.4-2.3-1.2-3.1-2.2
	c-3.2,3.5-6,5.5-8.1,5.5c-12.2,0.1-10.7-13.5-10.7-13.5s-14.5,4.1-10,2.4s4.7-8.5-7.3-15.4S53.4,524.5,60.2,521.2z"/>
<path class="st5" d="M210,556.2h-0.2l0.5,1.8c0.4,2.5,1.1,5,1.9,7.4l13.9,52.9c0.9,3.5,3.8,6,7.3,6.6l28.4,4.4
	c3.8,0.6,7.5-1.3,9.3-4.6l27-50.4c0.9-1.4,1.6-2.8,2.3-4.3l0.9-1.7h-0.1c10.3-24.3-1.1-52.3-25.4-62.5s-52.3,1.1-62.5,25.4
	C210,539.1,208.8,547.8,210,556.2L210,556.2z"/>
<path class="st5" d="M263.6,632.8c-0.5,0-1,0-1.5-0.1l-29.7-4.6c-3.9-0.6-7-3.4-8-7.2l-14.6-55.3c-0.9-2.5-1.5-5.1-2-7.8l-0.4-2.4
	c-3.5-27.6,16-52.8,43.6-56.3c4.7-0.6,9.4-0.5,14,0.2l-0.1,0.8c-27-4.2-52.3,14.4-56.5,41.4c-0.7,4.7-0.8,9.5-0.1,14.3l0.3,1.8
	c0.5,2.6,1.1,5.2,2,7.7l14.6,55.4c0.9,3.4,3.8,6,7.3,6.6l29.7,4.6c3.8,0.6,7.5-1.3,9.3-4.6l0.7,0.4
	C270.5,630.8,267.2,632.8,263.6,632.8z"/>
<rect x="236.4" y="592.6" transform="matrix(0.344 -0.939 0.939 0.344 -384.6588 635.6982)" class="st6" width="52.5" height="1.1"/>
<rect x="241.8" y="563.7" transform="matrix(0.999 -4.396956e-02 4.396956e-02 0.999 -25.7045 11.2262)" class="st6" width="1.1" height="52.5"/>
<path class="st5" d="M261.1,657.9l-38-5.9c-0.6-0.1-1-0.7-0.8-1.3c0.1-0.5,0.6-0.9,1.2-0.8l38,5.9c0.6,0.1,1,0.6,0.9,1.2
	C262.2,657.6,261.7,658,261.1,657.9L261.1,657.9z"/>
<path class="st5" d="M262.1,649.8l-38-5.9c-0.6-0.1-1-0.7-0.8-1.3c0.1-0.5,0.6-0.9,1.1-0.8l0,0l38,5.9c0.6,0.1,1,0.6,0.9,1.2
	C263.2,649.5,262.7,649.9,262.1,649.8z"/>
<path class="st5" d="M263,641.7l-38-5.9c-0.6-0.1-1-0.6-0.9-1.2c0.1-0.6,0.6-1,1.2-0.9l0,0l0,0l38,5.9c0.6,0.1,1,0.6,0.9,1.2
	C264.1,641.4,263.6,641.8,263,641.7L263,641.7L263,641.7z"/>
<path class="st5" d="M240.9,662.6c7.5,1.2,14.3-2.1,15.1-7.3l-27.3-4.2C227.9,656.3,233.3,661.4,240.9,662.6z"/>
<path class="st6" d="M254.6,557.9c-1.5-0.4-2.8-1.2-3.7-2.4c-0.2-0.3-0.5-0.6-0.7-0.9c-0.7-1.1-1.7-2-2.8-2.6
	c-2.5-1.2-5.4,0.5-8,2.2l-0.6-0.9c2.8-1.9,6-3.7,9-2.3c1.3,0.7,2.4,1.7,3.2,2.9l0.7,0.8c0.8,0.9,2.3,2.3,3.9,2
	c0.7-0.2,1.3-0.5,1.9-1c0.4-0.3,0.9-0.6,1.3-0.8c1.9-0.9,4.2-0.6,5.8,0.8c0.3,0.3,0.5,0.5,0.8,0.8c0.4,0.6,0.9,1,1.5,1.3
	c0.9,0.3,1.8-0.2,2.8-0.8c1-0.7,2.1-1,3.3-1h0.1c2.1,0.3,3.1,2.7,3.7,4.5l-1,0.3c-0.8-2.4-1.7-3.6-2.9-3.7c-0.9,0-1.9,0.3-2.6,0.9
	c-1.1,0.6-2.3,1.3-3.7,0.8c-0.8-0.3-1.5-0.9-2-1.6c-0.2-0.3-0.5-0.5-0.7-0.8c-1.3-1.1-3.1-1.4-4.6-0.7c-0.4,0.2-0.8,0.5-1.2,0.8
	c-0.7,0.6-1.5,1-2.3,1.2C255.4,557.9,255,557.9,254.6,557.9z"/>
<rect x="1021.6" y="300.6" class="st6" width="451.7" height="1.1"/>
<rect y="300" class="st7" width="1600" height="10"/>
<circle class="st7" cx="1104" cy="305" r="16"/>
<circle class="st6" cx="1104" cy="305" r="5"/>
<circle class="st7" cx="277" cy="305" r="16"/>
<circle class="st6" cx="277" cy="305" r="5"/>
<path class="st4" d="M1560,86.6h-59.2c-8-21.7-11.5-41.9,0-57c0-16.3,13.2-29.6,29.6-29.6l0,0c9.6,0,18.6,4.6,24.1,12.5
	c4.6,6.6,5.7,15.1,2.9,22.7C1552.6,48.7,1555.6,67.2,1560,86.6z"/>
<path class="st8" d="M1591.2,300.4L1591.2,300.4c-3.5,0-6.6-2.3-7.7-5.7l-2.4-7.9c-0.6-1.8-0.7-3.8-0.3-5.7l1.7-8.8h11.7l4.9,17.9
	c1.2,4.3-1.4,8.7-5.6,9.8l0,0C1592.7,300.3,1592,300.4,1591.2,300.4z"/>
<path class="st8" d="M1506.3,300.4L1506.3,300.4c3.5,0,6.6-2.3,7.7-5.7l2.4-7.9c0.6-1.8,0.7-3.8,0.3-5.7l-1.7-8.8h-11.7l-4.8,17.9
	c-1.2,4.3,1.4,8.7,5.6,9.8l0,0C1504.9,300.3,1505.6,300.4,1506.3,300.4z"/>
<path class="st1" d="M1595.1,273.3h-12.9l-56.1-106.5l-10.3,106.5h-11.4c-5.8-67.1-20.1-130.9,0-155l46.9,4.4L1595.1,273.3z"/>
<circle class="st0" cx="1528.8" cy="30.6" r="15.7"/>
<path class="st0" d="M1551,91.2h-35l-6-27.7c11.6-3.4,14.4-11.4,12-22l18.9-1.3c1.1,8.6,3,16.6,15.1,18L1551,91.2z"/>
<path class="st2" d="M1551,125.9c-19.8,7.5-36,7.3-47.3-3.2c5.1-16.8,5.4-37.4,3.2-60.2l6.3-2.8l2.2,20.2l31.2-1.6l6.9-22l6.9,1.6
	C1561,85.2,1559.3,109.8,1551,125.9z"/>
<path class="st0" d="M1569.3,159.9l3.7,12c1.1,3.4-0.8,7.1-4.3,8.1l0,0c-0.6,0.2-1.3,0.3-2,0.3l0,0c-3.6,0-6.5-2.9-6.5-6.5l0,0l0,0
	c0-0.2,0-0.4,0-0.7l1.4-13.9l-6-47.3l4.4-20.8h11L1569.3,159.9z"/>
<path class="st0" d="M1481,157.4l-6.5,10.8c-1.9,3-0.9,7,2.1,8.9l0,0l0.1,0.1c0.6,0.3,1.2,0.6,1.8,0.7l0,0c3.5,0.9,7-1.2,7.9-4.7
	l0,0l0,0c0-0.2,0.1-0.4,0.1-0.7l2-13.9l17.3-44.4l3.5-21.2l-13.4-2.7L1481,157.4z"/>
<path class="st2" d="M1579,93.7l-20.8-0.3V57.2l3.2,0.5c7,1,12.4,6.7,13,13.7L1579,93.7z"/>
<path class="st2" d="M1490.2,97.5l20.8-0.3V61l-3.2,0.5c-7,1-12.4,6.7-13,13.7L1490.2,97.5z"/>
<path class="st4" d="M1543.3,23c-6.7,3.8-19.6,5.5-29,2.8l-3.2-16.4h31.2L1543.3,23z"/>
<rect x="1192.9" y="217.4" class="st5" width="102.6" height="82.7"/>
<rect x="1235.6" y="276.1" class="st9" width="17.4" height="23.5"/>
<polygon class="st5" points="1421.6,219.9 1424.4,212.6 1449.8,198.1 1467.1,194.4 "/>
<polygon class="st5" points="1327.9,219.9 1325.1,212.6 1299.7,198.1 1282.4,194.4 "/>
<polygon class="st5" points="1423.4,221.7 1326.1,221.7 1317.9,183.5 1431.6,183.5 "/>
<rect x="1325.6" y="219.4" class="st5" width="98.3" height="80.7"/>
<rect x="1366.1" y="276.1" class="st9" width="17.4" height="23.5"/>
<rect x="1354.3" y="235.9" class="st6" width="40.8" height="12.8"/>
<rect x="1223.6" y="235.9" class="st6" width="40.8" height="12.8"/>
<path d="M1229.2,244.3v-4.6h3v0.4h-2.6v1.7h2.2v0.4h-2.2v2.1L1229.2,244.3z"/>
<path d="M1233,239.5h0.4v4c0,0.1,0,0.2,0.1,0.3s0.1,0.1,0.2,0.1s0.2,0,0.2,0h0.2l0.1,0.4c-0.1,0-0.2,0.1-0.3,0.1h-0.3
	c-0.2,0-0.3-0.1-0.5-0.2c-0.1-0.1-0.2-0.3-0.2-0.5L1233,239.5z"/>
<path d="M1236.2,244.3c-0.2,0-0.5,0-0.7-0.1s-0.4-0.2-0.5-0.4c-0.3-0.3-0.5-0.8-0.5-1.2c0-0.2,0-0.5,0.1-0.7s0.2-0.4,0.4-0.6
	c0.1-0.2,0.3-0.3,0.5-0.4c0.4-0.2,0.9-0.2,1.3,0s0.7,0.5,0.9,0.9c0.1,0.2,0.1,0.4,0.1,0.7c0,0.2,0,0.4-0.1,0.7
	c-0.1,0.2-0.2,0.4-0.3,0.6c-0.1,0.2-0.3,0.3-0.5,0.4C1236.6,244.3,1236.4,244.3,1236.2,244.3z M1235,242.6c0,0.2,0,0.5,0.2,0.7
	c0.1,0.2,0.3,0.4,0.4,0.5c0.2,0.1,0.4,0.2,0.6,0.2s0.4-0.1,0.6-0.2c0.2-0.1,0.3-0.3,0.4-0.5s0.2-0.4,0.2-0.7c0-0.2-0.1-0.5-0.2-0.7
	s-0.3-0.4-0.4-0.5c-0.2-0.1-0.4-0.2-0.6-0.2s-0.4,0.1-0.6,0.2C1235.2,241.7,1234.9,242.1,1235,242.6L1235,242.6z"/>
<path d="M1240,244.3c-0.2,0-0.4,0-0.6-0.1s-0.4-0.2-0.5-0.4s-0.3-0.3-0.3-0.6c-0.1-0.2-0.1-0.4-0.1-0.6c0-0.2,0-0.5,0.1-0.7
	s0.2-0.4,0.3-0.6c0.1-0.2,0.3-0.3,0.5-0.4c0.2-0.1,0.4-0.1,0.6-0.1c0.3,0,0.5,0.1,0.8,0.2c0.2,0.1,0.4,0.3,0.5,0.5v-0.7h0.4v3.4
	c0,0.3-0.1,0.6-0.2,0.8c-0.2,0.2-0.4,0.4-0.6,0.5c-0.3,0.1-0.5,0.2-0.8,0.2s-0.6-0.1-0.9-0.2c-0.2-0.1-0.4-0.3-0.6-0.6l0.3-0.2
	c0.1,0.2,0.3,0.4,0.5,0.5s0.5,0.2,0.7,0.1c0.2,0,0.4,0,0.6-0.1c0.4-0.2,0.6-0.5,0.6-0.9v-0.7c-0.1,0.2-0.3,0.4-0.5,0.5
	C1240.5,244.3,1240.2,244.3,1240,244.3z M1240.1,244c0.1,0,0.3,0,0.4-0.1c0.1,0,0.2-0.1,0.3-0.2c0.1-0.1,0.2-0.2,0.3-0.3
	c0.1-0.1,0.1-0.2,0.1-0.3v-1c-0.1-0.2-0.2-0.3-0.3-0.4c-0.1-0.1-0.3-0.2-0.4-0.3c-0.3-0.2-0.7-0.2-1,0c-0.1,0.1-0.3,0.2-0.4,0.3
	s-0.2,0.3-0.2,0.4c-0.1,0.2-0.1,0.3-0.1,0.5s0,0.4,0.1,0.5c0.1,0.2,0.2,0.3,0.3,0.4c0.1,0.1,0.2,0.2,0.4,0.3
	C1239.8,244,1239.9,244,1240.1,244L1240.1,244z"/>
<path d="M1242.3,243.3c0-0.2,0.1-0.4,0.2-0.5c0.1-0.2,0.3-0.3,0.5-0.4c0.2-0.1,0.5-0.1,0.7-0.1h0.5c0.2,0,0.3,0.1,0.5,0.1v-0.3
	c0-0.3-0.1-0.5-0.3-0.7c-0.2-0.2-0.4-0.3-0.7-0.3c-0.2,0-0.4,0-0.5,0.1c-0.2,0.1-0.4,0.2-0.6,0.3l-0.2-0.3c0.2-0.1,0.4-0.3,0.6-0.3
	c0.2-0.1,0.4-0.1,0.7-0.1c0.7-0.1,1.3,0.4,1.4,1.1c0,0.1,0,0.2,0,0.3v1.6v0.1h0.1v0.4h-0.2c-0.1,0-0.2,0-0.2-0.1
	c-0.1-0.1-0.1-0.1-0.1-0.2v-0.3c-0.2,0.2-0.4,0.4-0.6,0.4c-0.2,0.1-0.5,0.2-0.7,0.2s-0.4,0-0.6-0.1
	C1242.5,244,1242.3,243.6,1242.3,243.3L1242.3,243.3z M1244.6,243.6c0-0.1,0.1-0.1,0.1-0.2v-0.1v-0.5c-0.1-0.1-0.3-0.1-0.5-0.1h-0.5
	c-0.3,0-0.5,0.1-0.8,0.2c-0.2,0.1-0.3,0.3-0.3,0.5c0,0.1,0,0.2,0.1,0.4c0.1,0.1,0.2,0.2,0.3,0.3c0.1,0.1,0.3,0.1,0.4,0.1
	c0.2,0,0.4,0,0.6-0.1C1244.3,243.9,1244.5,243.7,1244.6,243.6L1244.6,243.6z"/>
<path d="M1247.7,244.1l-0.2,0.1c-0.1,0-0.2,0.1-0.3,0.1c-0.1,0-0.2,0-0.3,0c-0.1,0-0.2,0-0.3-0.1c-0.1,0-0.2-0.1-0.3-0.2
	c-0.1-0.1-0.1-0.2-0.1-0.4v-2.4h-0.5v-0.4h0.5v-1.1h0.4v1.1h0.8v0.4h-0.8v2.3c0,0.1,0.1,0.2,0.1,0.3c0.1,0.1,0.2,0.1,0.3,0.1
	c0.1,0,0.2,0,0.3-0.1l0.2-0.1L1247.7,244.1z"/>
<path d="M1249.7,244.3c-0.7,0-1.3-0.4-1.6-1.1c-0.2-0.5-0.2-1.1,0.1-1.5c0.3-0.5,0.9-0.9,1.5-0.9c0.3,0,0.6,0.1,0.9,0.2
	c0.5,0.3,0.8,0.9,0.8,1.5v0.2h-2.9c0,0.2,0.1,0.4,0.2,0.6c0.1,0.2,0.3,0.3,0.4,0.4c0.2,0.1,0.4,0.2,0.6,0.2s0.4-0.1,0.6-0.2
	c0.2-0.1,0.3-0.3,0.4-0.4l0.4,0.1c-0.1,0.2-0.2,0.3-0.3,0.4c-0.1,0.1-0.3,0.2-0.5,0.3C1250.1,244.3,1249.9,244.3,1249.7,244.3z
	 M1248.4,242.4h2.5c0-0.2-0.1-0.4-0.2-0.6c-0.2-0.4-0.6-0.6-1.1-0.6c-0.2,0-0.4,0.1-0.6,0.2c-0.2,0.1-0.3,0.3-0.4,0.4
	C1248.5,242,1248.5,242.2,1248.4,242.4L1248.4,242.4z"/>
<path d="M1251.8,243.3c0-0.2,0.1-0.4,0.2-0.5c0.1-0.2,0.3-0.3,0.5-0.4c0.2-0.1,0.5-0.1,0.7-0.1h0.5l0.5,0.1v-0.3
	c0-0.2-0.1-0.5-0.3-0.7c-0.2-0.2-0.4-0.3-0.7-0.3c-0.2,0-0.4,0-0.5,0.1c-0.2,0.1-0.4,0.2-0.6,0.3l-0.2-0.3c0.2-0.1,0.4-0.3,0.7-0.3
	c0.2-0.1,0.4-0.1,0.7-0.1c0.4,0,0.7,0.1,1,0.4c0.3,0.3,0.4,0.6,0.4,1v1.6v0.1h0.1v0.4h-0.2c-0.1,0-0.2,0-0.3-0.1
	c0-0.1-0.1-0.1-0.1-0.2v-0.3c-0.2,0.2-0.4,0.4-0.6,0.4c-0.2,0.1-0.5,0.2-0.7,0.2s-0.4,0-0.6-0.1s-0.3-0.2-0.4-0.4
	C1251.8,243.6,1251.8,243.5,1251.8,243.3z M1254,243.6c0-0.1,0.1-0.1,0.1-0.2v-0.1v-0.5c-0.1-0.1-0.3-0.1-0.5-0.1h-0.5
	c-0.3,0-0.5,0.1-0.8,0.2c-0.2,0.1-0.3,0.3-0.3,0.5c0,0.1,0,0.2,0.1,0.4c0.1,0.1,0.2,0.2,0.3,0.3c0.1,0.1,0.3,0.1,0.4,0.1
	c0.2,0,0.4,0,0.6-0.1C1253.7,243.9,1253.9,243.7,1254,243.6L1254,243.6z"/>
<path d="M1255.5,242.9v-2h0.4v1.9c0,0.3,0,0.6,0.2,0.9c0.1,0.2,0.4,0.3,0.6,0.3s0.3,0,0.5-0.1s0.3-0.2,0.4-0.3s0.2-0.3,0.3-0.5V241
	h0.4v2.8v0.1h0.1v0.4h-0.2c-0.1,0-0.2,0-0.2-0.1c-0.1-0.1-0.1-0.1-0.1-0.2v-0.5c-0.3,0.5-0.8,0.8-1.4,0.8c-0.3,0-0.6-0.1-0.8-0.4
	C1255.6,243.6,1255.5,243.2,1255.5,242.9z"/>
<path d="M1359.3,245.1v-4.6h3v0.4h-2.6v1.7h2.2v0.4h-2.2v2.1L1359.3,245.1z"/>
<path d="M1363,240.4h0.4v4c0,0.1,0,0.2,0.1,0.3s0.1,0.1,0.2,0.1h0.2l0.2-0.1l0.1,0.4l-0.3,0.1h-0.3c-0.3,0-0.6-0.2-0.7-0.6l0,0
	L1363,240.4L1363,240.4z"/>
<path d="M1366.2,245.2c-0.2,0-0.5,0-0.7-0.1s-0.4-0.2-0.5-0.4c-0.2-0.2-0.3-0.4-0.3-0.6c-0.1-0.2-0.1-0.4-0.1-0.7
	c0-0.5,0.2-0.9,0.5-1.2c0.1-0.2,0.3-0.3,0.5-0.4c0.4-0.2,0.9-0.2,1.3,0s0.7,0.5,0.9,0.9c0.1,0.2,0.1,0.4,0.1,0.7
	c0,0.2,0,0.4-0.1,0.7c-0.1,0.2-0.2,0.4-0.3,0.6c-0.1,0.2-0.3,0.3-0.5,0.4C1366.6,245.1,1366.4,245.2,1366.2,245.2z M1365,243.4
	c0,0.2,0.1,0.5,0.2,0.7s0.3,0.4,0.4,0.5c0.2,0.1,0.4,0.2,0.6,0.2s0.4-0.1,0.6-0.2c0.2-0.1,0.3-0.3,0.4-0.5c0.2-0.4,0.2-0.9,0-1.4
	c-0.1-0.2-0.3-0.4-0.4-0.5c-0.2-0.1-0.4-0.2-0.6-0.2s-0.4,0.1-0.6,0.2c-0.2,0.1-0.3,0.3-0.4,0.5C1365,243,1365,243.2,1365,243.4
	L1365,243.4z"/>
<path d="M1370,245.2c-0.2,0-0.4-0.1-0.6-0.1c-0.2-0.1-0.4-0.2-0.5-0.4s-0.2-0.4-0.3-0.6c-0.1-0.2-0.1-0.4-0.1-0.6
	c0-0.2,0-0.5,0.1-0.7s0.2-0.4,0.3-0.6c0.1-0.2,0.3-0.3,0.5-0.4c0.2-0.1,0.4-0.1,0.6-0.1c0.3,0,0.5,0.1,0.8,0.2
	c0.2,0.1,0.4,0.3,0.5,0.5v-0.7h0.4v3.4c0,0.6-0.3,1.1-0.8,1.3c-0.3,0.1-0.5,0.2-0.8,0.2s-0.6-0.1-0.9-0.2c-0.2-0.1-0.4-0.3-0.6-0.6
	l0.3-0.2c0.1,0.2,0.3,0.4,0.5,0.5c0.4,0.2,0.9,0.2,1.3,0c0.2-0.1,0.3-0.2,0.4-0.4s0.2-0.4,0.2-0.6v-0.7
	C1371,244.9,1370.5,245.1,1370,245.2L1370,245.2z M1370.1,244.8c0.1,0,0.3,0,0.4-0.1s0.2-0.1,0.3-0.2c0.1-0.1,0.2-0.2,0.3-0.3
	c0.1-0.1,0.1-0.2,0.1-0.3v-1c-0.1-0.2-0.2-0.3-0.3-0.4c-0.1-0.1-0.3-0.2-0.4-0.3c-0.3-0.2-0.7-0.2-1,0c-0.1,0.1-0.3,0.2-0.4,0.3
	c-0.2,0.3-0.3,0.6-0.3,0.9c0,0.2,0,0.3,0.1,0.5s0.2,0.3,0.3,0.4c0.1,0.1,0.2,0.2,0.4,0.3C1369.8,244.8,1369.9,244.8,1370.1,244.8
	L1370.1,244.8z"/>
<path d="M1372.3,244.1c0-0.2,0.1-0.4,0.2-0.6c0.1-0.2,0.3-0.3,0.5-0.4c0.2-0.1,0.5-0.1,0.7-0.1h0.5c0.2,0,0.3,0.1,0.5,0.1V243
	c0-0.2-0.1-0.5-0.3-0.7c-0.2-0.2-0.4-0.3-0.7-0.3c-0.2,0-0.4,0-0.5,0.1c-0.2,0.1-0.4,0.2-0.6,0.3l-0.2-0.3c0.2-0.1,0.4-0.3,0.6-0.3
	c0.2-0.1,0.4-0.1,0.7-0.1c0.4,0,0.7,0.1,1,0.4c0.3,0.3,0.4,0.6,0.4,1v1.7h0.1v0.4h-0.1h-0.1c-0.1,0-0.2,0-0.2-0.1
	c-0.1-0.1-0.1-0.1-0.1-0.2v-0.2c-0.2,0.2-0.4,0.4-0.6,0.4c-0.2,0.1-0.5,0.2-0.7,0.2s-0.4,0-0.6-0.1s-0.3-0.2-0.4-0.4
	C1372.4,244.5,1372.3,244.3,1372.3,244.1z M1374.6,244.4c0-0.1,0.1-0.1,0.1-0.2v-0.1v-0.5c-0.2-0.1-0.3-0.1-0.5-0.1h-0.5
	c-0.3,0-0.5,0.1-0.8,0.2c-0.2,0.1-0.3,0.3-0.3,0.5c0,0.1,0,0.2,0.1,0.4c0.1,0.1,0.2,0.2,0.3,0.3c0.1,0.1,0.3,0.1,0.4,0.1
	c0.2,0,0.4,0,0.6-0.1C1374.3,244.7,1374.5,244.5,1374.6,244.4z"/>
<path d="M1377.7,245l-0.2,0.1l-0.3,0.1h-0.3c-0.1,0-0.2,0-0.3-0.1c-0.1,0-0.2-0.1-0.3-0.2c-0.1-0.1-0.1-0.2-0.1-0.4v-2.4h-0.5v-0.4
	h0.5v-1.1h0.4v1.1h0.8v0.4h-0.8v2.3c0,0.1,0,0.2,0.1,0.3s0.2,0.1,0.3,0.1c0.1,0,0.2,0,0.3-0.1l0.2-0.1L1377.7,245z"/>
<path d="M1379.7,245.2c-1,0-1.7-0.9-1.7-1.8c0-0.3,0.1-0.5,0.2-0.8c0.3-0.5,0.9-0.9,1.5-0.9c0.3,0,0.6,0.1,0.9,0.2
	c0.5,0.3,0.8,0.9,0.8,1.5v0.1v0.1h-2.9c0,0.2,0.1,0.4,0.2,0.6c0.1,0.2,0.3,0.3,0.4,0.4c0.2,0.1,0.4,0.2,0.6,0.2s0.4-0.1,0.6-0.2
	c0.2-0.1,0.3-0.3,0.4-0.4l0.4,0.1c-0.1,0.2-0.2,0.3-0.3,0.4c-0.1,0.1-0.3,0.2-0.5,0.3C1380.1,245.1,1379.9,245.2,1379.7,245.2z
	 M1378.4,243.3h2.5c0-0.2-0.1-0.4-0.2-0.6c-0.1-0.2-0.3-0.3-0.4-0.4c-0.2-0.1-0.4-0.2-0.6-0.2s-0.4,0.1-0.6,0.2
	c-0.2,0.1-0.3,0.3-0.4,0.4C1378.5,242.8,1378.5,243,1378.4,243.3z"/>
<path d="M1381.8,244.1c0-0.2,0.1-0.4,0.2-0.6c0.1-0.2,0.3-0.3,0.5-0.4c0.2-0.1,0.5-0.1,0.7-0.1h0.5l0.5,0.1V243
	c0-0.2-0.1-0.5-0.3-0.7c-0.2-0.2-0.4-0.3-0.7-0.3c-0.2,0-0.4,0-0.5,0.1c-0.2,0.1-0.4,0.2-0.6,0.3l-0.2-0.3c0.2-0.1,0.4-0.3,0.7-0.3
	c0.2-0.1,0.4-0.1,0.7-0.1c0.4,0,0.7,0.1,1,0.4c0.3,0.3,0.4,0.6,0.4,1v1.7h0.1v0.4h-0.1h-0.1c-0.1,0-0.2,0-0.3-0.1
	c0-0.1-0.1-0.1-0.1-0.2v-0.2c-0.2,0.2-0.4,0.3-0.6,0.4c-0.2,0.1-0.5,0.2-0.7,0.2s-0.4,0-0.6-0.1s-0.3-0.2-0.4-0.4
	C1381.8,244.5,1381.8,244.3,1381.8,244.1z M1384,244.4c0-0.1,0.1-0.1,0.1-0.2v-0.1v-0.5c-0.2-0.1-0.3-0.1-0.5-0.1h-0.5
	c-0.3,0-0.5,0.1-0.8,0.2c-0.2,0.1-0.3,0.3-0.3,0.5c0,0.1,0,0.2,0.1,0.4c0.1,0.1,0.2,0.2,0.3,0.3c0.1,0.1,0.3,0.1,0.4,0.1
	c0.2,0,0.4,0,0.6-0.1C1383.7,244.7,1383.9,244.5,1384,244.4L1384,244.4z"/>
<path d="M1385.5,243.7v-2h0.4v1.9c0,0.3,0,0.6,0.2,0.9c0.1,0.2,0.4,0.3,0.6,0.3s0.3,0,0.5-0.1s0.3-0.2,0.4-0.3s0.2-0.3,0.3-0.5v-2.1
	h0.4v2.8v0.1c0,0,0.1,0,0.1,0.1v0.4h-0.2c-0.2,0-0.3-0.1-0.3-0.3v-0.4c-0.3,0.5-0.8,0.8-1.4,0.8c-0.3,0-0.6-0.1-0.8-0.4
	C1385.6,244.4,1385.5,244.1,1385.5,243.7z"/>
<rect x="1167.8" y="214.3" transform="matrix(0.7071 -0.7071 0.7071 0.7071 190.6377 889.2776)" class="st10" width="2" height="0.4"/>
<rect x="1168.7" y="211.9" transform="matrix(0.7071 -0.7071 0.7071 0.7071 192.6017 889.2223)" class="st11" width="2" height="0.4"/>
</svg>
