<svg xmlns="http://www.w3.org/2000/svg" viewBox="0 0 50.32 50.32"><defs><style>.cls-1{fill:#e4dbcc;}</style></defs><g id="Layer_2" data-name="Layer 2"><g id="Layer_1-2" data-name="Layer 1"><path class="cls-1" d="M25.48,50.31H12.71a5.24,5.24,0,0,1-5.5-4.54Q5.32,36.16,3.45,26.55a1,1,0,0,0-.77-.91A4,4,0,0,1,0,21.85c0-.67,0-1.33,0-2A4.14,4.14,0,0,1,4.1,15.73c1.07,0,2.13,0,3.2,0a1.14,1.14,0,0,0,1-.47q6-7.11,12.05-14.19c.15-.19.31-.37.48-.55a1.57,1.57,0,0,1,2.37,2.05c-.54.68-1.11,1.33-1.67,2l-9,10.6c-.11.14-.32.26-.26.44s.34.13.53.13H37.5c.19,0,.46.11.55-.11s-.17-.34-.29-.48L27.23,2.73A1.6,1.6,0,0,1,27,.64,1.58,1.58,0,0,1,28.87.1a2.33,2.33,0,0,1,.95.81l8.85,10.42c1.12,1.32,2.25,2.63,3.35,4a1.13,1.13,0,0,0,1,.44c1,0,2,0,3,0A4.14,4.14,0,0,1,50.31,20q0,.84,0,1.68a4.09,4.09,0,0,1-2.82,4,.74.74,0,0,0-.53.69q-1.65,9.86-3.33,19.71a5,5,0,0,1-5.07,4.21ZM25.21,26H7.2c-.49,0-.68.07-.57.63Q8.48,35.78,10.28,45c.33,1.68,1,2.18,2.69,2.18h22.7c.95,0,1.89,0,2.83,0a2,2,0,0,0,2.06-1.75Q42.15,36,43.74,26.62c.09-.55,0-.69-.59-.68Zm-.12-3.16H45.87c.93,0,1.29-.35,1.31-1.26,0-.38,0-.76,0-1.15,0-1.21-.29-1.5-1.48-1.5H4.27A1,1,0,0,0,3.15,20c0,.48,0,1,0,1.45,0,1.07.33,1.39,1.41,1.39Z"/><path class="cls-1" d="M18.08,41.6a1.59,1.59,0,0,1-1.37,1.63A1.53,1.53,0,0,1,15,41.93c-.28-1.64-.52-3.29-.78-4.93l-.78-5.11a1.61,1.61,0,0,1,1.27-2,1.58,1.58,0,0,1,1.83,1.46c.52,3.29,1,6.58,1.53,9.87C18.06,41.37,18.07,41.51,18.08,41.6Z"/><path class="cls-1" d="M32.25,41.47c.24-1.6.51-3.33.77-5s.52-3.41.8-5.11a1.57,1.57,0,1,1,3.11.45c-.51,3.35-1,6.7-1.55,10.05a1.55,1.55,0,0,1-1.71,1.42A1.59,1.59,0,0,1,32.25,41.47Z"/><path class="cls-1" d="M26.73,36.55c0,1.71,0,3.41,0,5.12a1.54,1.54,0,0,1-1.38,1.56,1.58,1.58,0,0,1-1.68-1.1,2.32,2.32,0,0,1-.07-.65c0-3.27,0-6.55,0-9.82a1.58,1.58,0,1,1,3.14,0c0,1.62,0,3.25,0,4.88Z"/></g></g></svg>