<?xml version="1.0" encoding="utf-8"?>
<!-- Generator: Adobe Illustrator 25.1.0, SVG Export Plug-In . SVG Version: 6.00 Build 0)  -->
<svg version="1.1" id="Layer_1" xmlns="http://www.w3.org/2000/svg" xmlns:xlink="http://www.w3.org/1999/xlink" x="0px" y="0px"
	 viewBox="0 0 1920 1080" style="enable-background:new 0 0 1920 1080;" xml:space="preserve">
<style type="text/css">
	.st0{fill:#B2DACD;}
	.st1{fill:#FFFFFF;}
	.st2{fill:#BCA04A;}
</style>
<polyline class="st0" points="933.51,514.19 906.9,551.55 880.32,514.19 907,477 "/>
<polyline class="st0" points="986.51,514.19 959.9,551.55 933.32,514.19 960,477 "/>
<polyline class="st0" points="1039.51,514.19 1012.9,551.55 986.32,514.19 1013,477 "/>
<g>
	<path class="st1" d="M898.04,529.15v-28.4h18.76v3.2h-15.16v9.48h12.76v3h-12.76v12.72H898.04z"/>
</g>
<g>
	<path class="st1" d="M952.17,529.15v-28.4h3.6v25.2h15.84v3.2H952.17z"/>
</g>
<g>
	<path class="st1" d="M1013.2,529.35c-2,0-3.81-0.4-5.44-1.2s-3.03-1.89-4.22-3.26s-2.1-2.92-2.74-4.64
		c-0.64-1.72-0.96-3.49-0.96-5.3c0-1.89,0.34-3.7,1.02-5.42c0.68-1.72,1.63-3.25,2.84-4.6c1.21-1.35,2.63-2.41,4.26-3.2
		c1.62-0.79,3.4-1.18,5.32-1.18c2,0,3.81,0.41,5.44,1.24c1.63,0.83,3.03,1.93,4.2,3.32c1.17,1.39,2.08,2.93,2.72,4.64
		c0.64,1.71,0.96,3.45,0.96,5.24c0,1.89-0.33,3.7-1,5.42c-0.67,1.72-1.61,3.25-2.82,4.6c-1.21,1.35-2.63,2.41-4.26,3.18
		C1016.89,528.96,1015.12,529.35,1013.2,529.35z M1003.48,514.95c0,1.44,0.23,2.83,0.7,4.18s1.13,2.54,1.98,3.58
		s1.88,1.87,3.08,2.48s2.53,0.92,4,0.92c1.52,0,2.88-0.32,4.08-0.96s2.22-1.49,3.06-2.56c0.84-1.07,1.48-2.27,1.92-3.6
		c0.44-1.33,0.66-2.68,0.66-4.04c0-1.44-0.23-2.83-0.7-4.16s-1.13-2.53-2-3.58c-0.87-1.05-1.89-1.88-3.08-2.48
		c-1.19-0.6-2.5-0.9-3.94-0.9c-1.52,0-2.88,0.31-4.08,0.94c-1.2,0.63-2.22,1.47-3.06,2.54c-0.84,1.07-1.49,2.26-1.94,3.58
		C1003.7,512.21,1003.48,513.56,1003.48,514.95z"/>
</g>
<g>
	<path class="st2" d="M894.16,593.9c-1.87,0-3.61-0.41-5.22-1.22c-1.61-0.81-3.02-1.91-4.22-3.28c-1.2-1.37-2.13-2.92-2.8-4.64
		c-0.67-1.72-1-3.5-1-5.34c0-1.92,0.33-3.74,1-5.46c0.67-1.72,1.59-3.25,2.78-4.58c1.19-1.33,2.59-2.38,4.2-3.14
		c1.61-0.76,3.37-1.14,5.26-1.14c2.75,0,5.01,0.57,6.8,1.72c1.79,1.15,3.13,2.64,4.04,4.48l-2.76,1.92
		c-0.83-1.65-1.96-2.88-3.4-3.68c-1.44-0.8-3.03-1.2-4.76-1.2c-1.44,0-2.75,0.31-3.92,0.92s-2.18,1.45-3.02,2.5
		c-0.84,1.05-1.48,2.25-1.92,3.58c-0.44,1.33-0.66,2.72-0.66,4.16c0,1.52,0.25,2.95,0.74,4.3c0.49,1.35,1.19,2.53,2.1,3.56
		c0.91,1.03,1.96,1.83,3.16,2.42c1.2,0.59,2.49,0.88,3.88,0.88c1.63,0,3.17-0.41,4.64-1.24c1.47-0.83,2.85-2.09,4.16-3.8v3.72
		C900.68,592.38,897.65,593.9,894.16,593.9z M902.8,582.26h-6.12v-2.72h9.16v14.16h-3.04V582.26z"/>
</g>
<g>
	<path class="st2" d="M921.74,565.3h3.04l11.6,28.4h-3.84l-3.19-8.32h-12.22l-3.2,8.32h-3.84L921.74,565.3z M917.94,560.66l4.04-3.6
		h2.56l4.04,3.6l-1.92,0.96l-3.4-2.52l-3.4,2.52L917.94,560.66z M928.29,582.58l-5.02-13.12l-5.04,13.12H928.29z"/>
</g>
<g>
	<path class="st2" d="M956.69,568.5h-9.8v25.2h-3.6v-25.2h-9.8v-3.2h23.2V568.5z"/>
</g>
<g>
	<path class="st2" d="M981.06,590.5v3.2h-19.28v-28.4h18.92v3.2h-15.32v9.2h13.32v3h-13.32v9.8H981.06z"/>
</g>
<g>
	<path class="st2" d="M997.62,565.3h3.04l11.6,28.4h-3.84l-3.19-8.32h-12.21l-3.2,8.32h-3.84L997.62,565.3z M1004.16,582.58
		l-5.02-13.12l-5.04,13.12H1004.16z"/>
</g>
<g>
	<path class="st2" d="M1027.14,593.9c-2.27,0-4.17-0.39-5.72-1.18c-1.55-0.79-2.79-1.85-3.72-3.2s-1.61-2.87-2.04-4.58
		c-0.43-1.71-0.64-3.47-0.64-5.28V565.3h3.6v14.36c0,1.39,0.14,2.74,0.42,4.06c0.28,1.32,0.74,2.5,1.38,3.54
		c0.64,1.04,1.51,1.87,2.6,2.48c1.09,0.61,2.45,0.92,4.08,0.92c1.65,0,3.03-0.31,4.12-0.94c1.09-0.63,1.96-1.47,2.6-2.52
		c0.64-1.05,1.1-2.23,1.38-3.54c0.28-1.31,0.42-2.64,0.42-4V565.3h3.6v14.36c0,1.92-0.22,3.74-0.66,5.46
		c-0.44,1.72-1.14,3.23-2.1,4.54c-0.96,1.31-2.21,2.34-3.74,3.1C1031.19,593.52,1029.33,593.9,1027.14,593.9z"/>
</g>
</svg>
