<?xml version="1.0" encoding="utf-8"?>
<!-- Generator: Adobe Illustrator 25.1.0, SVG Export Plug-In . SVG Version: 6.00 Build 0)  -->
<svg version="1.1" id="Layer_1" xmlns="http://www.w3.org/2000/svg" xmlns:xlink="http://www.w3.org/1999/xlink" x="0px" y="0px"
	 viewBox="0 0 614 434" style="enable-background:new 0 0 614 434;" xml:space="preserve">
<style type="text/css">
	.st0{fill:#BBA24F;}
	.st1{fill:#B2DACD;}
	.st2{fill:#FFFFFF;}
</style>
<g>
	<path class="st0" d="M145.4,373.1c-2.6,3.7-6.7,6.6-12.2,8.7c-5.6,2.1-11.8,3.1-18.6,3.1c-7,0-13.1-1.7-18.6-5
		c-5.4-3.3-9.6-8.1-12.6-14.2c-3-6.1-4.5-13.1-4.5-21v-11.2c0-12.3,3.1-22.1,9.3-29.2c6.2-7.1,14.6-10.7,25.1-10.7
		c9.2,0,16.5,2.3,22.1,7c5.6,4.7,8.9,11.1,9.9,19.3h-7.5c-1.1-6.5-3.8-11.5-8-14.8c-4.2-3.4-9.7-5.1-16.5-5.1
		c-8.3,0-14.9,3-19.7,8.9c-4.8,5.9-7.3,14.2-7.3,25v10.5c0,6.8,1.1,12.7,3.4,17.9c2.3,5.2,5.6,9.2,9.9,12.1s9.2,4.3,14.8,4.3
		c6.5,0,12-1,16.7-3.1c3-1.3,5.2-2.9,6.7-4.7v-22.9h-23.9v-6.3h31.4V373.1z"/>
	<path class="st0" d="M214.7,358.7h-40.3l-9.2,25h-7.9l33.6-88.9h7.1l33.6,88.9h-7.8L214.7,358.7z M176.7,352.3h35.6l-17.8-48.4
		L176.7,352.3z M211.7,287v0.6H205l-10.3-11.2l-10.2,11.2h-6.7v-0.8l14.5-15.6h4.6L211.7,287z"/>
	<path class="st0" d="M297.2,301.1h-30.5v82.5h-7.5v-82.5h-30.4v-6.3h68.4V301.1z"/>
	<path class="st0" d="M360.7,341h-41.6v36.3h47.8v6.3h-55.3v-88.9h55v6.3h-47.5v33.6h41.6V341z"/>
	<path class="st0" d="M430.7,358.7h-40.3l-9.2,25h-7.9l33.6-88.9h7.1l33.6,88.9h-7.8L430.7,358.7z M392.6,352.3h35.6l-17.8-48.4
		L392.6,352.3z"/>
	<path class="st0" d="M520.9,294.8v60.7c0,6-1.4,11.2-4,15.6c-2.6,4.4-6.3,7.8-11,10.2c-4.7,2.4-10.2,3.6-16.3,3.6
		c-9.4,0-16.9-2.6-22.5-7.7c-5.6-5.1-8.6-12.2-8.8-21.2v-61.2h7.4v60.1c0,7.5,2.1,13.3,6.4,17.4c4.3,4.1,10.1,6.2,17.4,6.2
		s13.1-2.1,17.4-6.2s6.4-9.9,6.4-17.3v-60.2H520.9z"/>
</g>
<polygon class="st1" points="227.9,141.6 147.2,254.5 66.7,141.6 147.2,28.5 "/>
<polygon class="st1" points="388.8,141.6 308.1,254.5 227.7,141.6 308.1,28.5 "/>
<polygon class="st1" points="549.7,141.6 469,254.5 388.6,141.6 469,28.5 "/>
<g>
	<path class="st2" d="M169,141.5h-41.4V183h-7.5V94.2h55.1v6.3h-47.5v34.6H169V141.5z"/>
</g>
<g>
	<path class="st2" d="M296.7,176.7h43.9v6.3h-51.5V94.2h7.6V176.7z"/>
</g>
<g>
	<path class="st2" d="M504.4,143.4c0,8.2-1.4,15.4-4.2,21.5c-2.8,6.2-6.9,10.9-12.1,14.3c-5.2,3.3-11.3,5-18.2,5
		c-10.4,0-18.8-3.7-25.1-11.1c-6.4-7.4-9.6-17.4-9.6-30.1v-9.2c0-8.1,1.4-15.3,4.3-21.5c2.9-6.2,6.9-11,12.2-14.4
		c5.2-3.4,11.3-5,18.1-5s12.9,1.6,18.1,4.9s9.3,8,12.1,14c2.8,6,4.3,13,4.5,20.9V143.4z M496.9,133.8c0-10.7-2.4-19.1-7.3-25.1
		c-4.8-6.1-11.5-9.1-19.9-9.1c-8.3,0-14.8,3-19.7,9.1s-7.4,14.6-7.4,25.5v9.3c0,10.5,2.4,18.9,7.3,25.1c4.9,6.2,11.5,9.2,19.9,9.2
		c8.5,0,15.1-3,19.9-9.1s7.1-14.6,7.1-25.4V133.8z"/>
</g>
</svg>
